<?xml version="1.0" encoding="utf-8" standalone="no"?>
<!DOCTYPE svg PUBLIC "-//W3C//DTD SVG 1.1//EN"
  "http://www.w3.org/Graphics/SVG/1.1/DTD/svg11.dtd">
<svg xmlns:xlink="http://www.w3.org/1999/xlink" width="1800pt" height="360pt" viewBox="0 0 1800 360" xmlns="http://www.w3.org/2000/svg" version="1.1">
 <metadata>
  <rdf:RDF xmlns:dc="http://purl.org/dc/elements/1.1/" xmlns:cc="http://creativecommons.org/ns#" xmlns:rdf="http://www.w3.org/1999/02/22-rdf-syntax-ns#">
   <cc:Work>
    <dc:type rdf:resource="http://purl.org/dc/dcmitype/StillImage"/>
    <dc:date>2022-04-28T15:33:27.644478</dc:date>
    <dc:format>image/svg+xml</dc:format>
    <dc:creator>
     <cc:Agent>
      <dc:title>Matplotlib v3.5.1, https://matplotlib.org/</dc:title>
     </cc:Agent>
    </dc:creator>
   </cc:Work>
  </rdf:RDF>
 </metadata>
 <defs>
  <style type="text/css">*{stroke-linejoin: round; stroke-linecap: butt}</style>
 </defs>
 <g id="figure_1">
  <g id="patch_1">
   <path d="M 0 360 
L 1800 360 
L 1800 0 
L 0 0 
z
" style="fill: #ffffff"/>
  </g>
  <g id="axes_1">
   <g id="patch_2">
    <path d="M 225 320.4 
L 1620 320.4 
L 1620 43.2 
L 225 43.2 
z
" style="fill: #ffffff"/>
   </g>
   <g id="matplotlib.axis_1">
    <g id="xtick_1">
     <g id="line2d_1">
      <path d="M 287.739925 320.4 
L 287.739925 43.2 
" clip-path="url(#p6173107567)" style="fill: none; stroke: #cccccc; stroke-width: 0.8; stroke-linecap: round"/>
     </g>
     <g id="text_1">
      <!-- 0 -->
      <g style="fill: #262626" transform="translate(284.959456 334.557813)scale(0.1 -0.1)">
       <defs>
        <path id="ArialMT-30" d="M 266 2259 
Q 266 3072 433 3567 
Q 600 4063 929 4331 
Q 1259 4600 1759 4600 
Q 2128 4600 2406 4451 
Q 2684 4303 2865 4023 
Q 3047 3744 3150 3342 
Q 3253 2941 3253 2259 
Q 3253 1453 3087 958 
Q 2922 463 2592 192 
Q 2263 -78 1759 -78 
Q 1097 -78 719 397 
Q 266 969 266 2259 
z
M 844 2259 
Q 844 1131 1108 757 
Q 1372 384 1759 384 
Q 2147 384 2411 759 
Q 2675 1134 2675 2259 
Q 2675 3391 2411 3762 
Q 2147 4134 1753 4134 
Q 1366 4134 1134 3806 
Q 844 3388 844 2259 
z
" transform="scale(0.015625)"/>
       </defs>
       <use xlink:href="#ArialMT-30"/>
      </g>
     </g>
    </g>
    <g id="xtick_2">
     <g id="line2d_2">
      <path d="M 447.065253 320.4 
L 447.065253 43.2 
" clip-path="url(#p6173107567)" style="fill: none; stroke: #cccccc; stroke-width: 0.8; stroke-linecap: round"/>
     </g>
     <g id="text_2">
      <!-- 10000 -->
      <g style="fill: #262626" transform="translate(433.162909 334.557813)scale(0.1 -0.1)">
       <defs>
        <path id="ArialMT-31" d="M 2384 0 
L 1822 0 
L 1822 3584 
Q 1619 3391 1289 3197 
Q 959 3003 697 2906 
L 697 3450 
Q 1169 3672 1522 3987 
Q 1875 4303 2022 4600 
L 2384 4600 
L 2384 0 
z
" transform="scale(0.015625)"/>
       </defs>
       <use xlink:href="#ArialMT-31"/>
       <use xlink:href="#ArialMT-30" x="55.615234"/>
       <use xlink:href="#ArialMT-30" x="111.230469"/>
       <use xlink:href="#ArialMT-30" x="166.845703"/>
       <use xlink:href="#ArialMT-30" x="222.460938"/>
      </g>
     </g>
    </g>
    <g id="xtick_3">
     <g id="line2d_3">
      <path d="M 606.390582 320.4 
L 606.390582 43.2 
" clip-path="url(#p6173107567)" style="fill: none; stroke: #cccccc; stroke-width: 0.8; stroke-linecap: round"/>
     </g>
     <g id="text_3">
      <!-- 20000 -->
      <g style="fill: #262626" transform="translate(592.488238 334.557813)scale(0.1 -0.1)">
       <defs>
        <path id="ArialMT-32" d="M 3222 541 
L 3222 0 
L 194 0 
Q 188 203 259 391 
Q 375 700 629 1000 
Q 884 1300 1366 1694 
Q 2113 2306 2375 2664 
Q 2638 3022 2638 3341 
Q 2638 3675 2398 3904 
Q 2159 4134 1775 4134 
Q 1369 4134 1125 3890 
Q 881 3647 878 3216 
L 300 3275 
Q 359 3922 746 4261 
Q 1134 4600 1788 4600 
Q 2447 4600 2831 4234 
Q 3216 3869 3216 3328 
Q 3216 3053 3103 2787 
Q 2991 2522 2730 2228 
Q 2469 1934 1863 1422 
Q 1356 997 1212 845 
Q 1069 694 975 541 
L 3222 541 
z
" transform="scale(0.015625)"/>
       </defs>
       <use xlink:href="#ArialMT-32"/>
       <use xlink:href="#ArialMT-30" x="55.615234"/>
       <use xlink:href="#ArialMT-30" x="111.230469"/>
       <use xlink:href="#ArialMT-30" x="166.845703"/>
       <use xlink:href="#ArialMT-30" x="222.460938"/>
      </g>
     </g>
    </g>
    <g id="xtick_4">
     <g id="line2d_4">
      <path d="M 765.71591 320.4 
L 765.71591 43.2 
" clip-path="url(#p6173107567)" style="fill: none; stroke: #cccccc; stroke-width: 0.8; stroke-linecap: round"/>
     </g>
     <g id="text_4">
      <!-- 30000 -->
      <g style="fill: #262626" transform="translate(751.813567 334.557813)scale(0.1 -0.1)">
       <defs>
        <path id="ArialMT-33" d="M 269 1209 
L 831 1284 
Q 928 806 1161 595 
Q 1394 384 1728 384 
Q 2125 384 2398 659 
Q 2672 934 2672 1341 
Q 2672 1728 2419 1979 
Q 2166 2231 1775 2231 
Q 1616 2231 1378 2169 
L 1441 2663 
Q 1497 2656 1531 2656 
Q 1891 2656 2178 2843 
Q 2466 3031 2466 3422 
Q 2466 3731 2256 3934 
Q 2047 4138 1716 4138 
Q 1388 4138 1169 3931 
Q 950 3725 888 3313 
L 325 3413 
Q 428 3978 793 4289 
Q 1159 4600 1703 4600 
Q 2078 4600 2393 4439 
Q 2709 4278 2876 4000 
Q 3044 3722 3044 3409 
Q 3044 3113 2884 2869 
Q 2725 2625 2413 2481 
Q 2819 2388 3044 2092 
Q 3269 1797 3269 1353 
Q 3269 753 2831 336 
Q 2394 -81 1725 -81 
Q 1122 -81 723 278 
Q 325 638 269 1209 
z
" transform="scale(0.015625)"/>
       </defs>
       <use xlink:href="#ArialMT-33"/>
       <use xlink:href="#ArialMT-30" x="55.615234"/>
       <use xlink:href="#ArialMT-30" x="111.230469"/>
       <use xlink:href="#ArialMT-30" x="166.845703"/>
       <use xlink:href="#ArialMT-30" x="222.460938"/>
      </g>
     </g>
    </g>
    <g id="xtick_5">
     <g id="line2d_5">
      <path d="M 925.041239 320.4 
L 925.041239 43.2 
" clip-path="url(#p6173107567)" style="fill: none; stroke: #cccccc; stroke-width: 0.8; stroke-linecap: round"/>
     </g>
     <g id="text_5">
      <!-- 40000 -->
      <g style="fill: #262626" transform="translate(911.138895 334.557813)scale(0.1 -0.1)">
       <defs>
        <path id="ArialMT-34" d="M 2069 0 
L 2069 1097 
L 81 1097 
L 81 1613 
L 2172 4581 
L 2631 4581 
L 2631 1613 
L 3250 1613 
L 3250 1097 
L 2631 1097 
L 2631 0 
L 2069 0 
z
M 2069 1613 
L 2069 3678 
L 634 1613 
L 2069 1613 
z
" transform="scale(0.015625)"/>
       </defs>
       <use xlink:href="#ArialMT-34"/>
       <use xlink:href="#ArialMT-30" x="55.615234"/>
       <use xlink:href="#ArialMT-30" x="111.230469"/>
       <use xlink:href="#ArialMT-30" x="166.845703"/>
       <use xlink:href="#ArialMT-30" x="222.460938"/>
      </g>
     </g>
    </g>
    <g id="xtick_6">
     <g id="line2d_6">
      <path d="M 1084.366568 320.4 
L 1084.366568 43.2 
" clip-path="url(#p6173107567)" style="fill: none; stroke: #cccccc; stroke-width: 0.8; stroke-linecap: round"/>
     </g>
     <g id="text_6">
      <!-- 50000 -->
      <g style="fill: #262626" transform="translate(1070.464224 334.557813)scale(0.1 -0.1)">
       <defs>
        <path id="ArialMT-35" d="M 266 1200 
L 856 1250 
Q 922 819 1161 601 
Q 1400 384 1738 384 
Q 2144 384 2425 690 
Q 2706 997 2706 1503 
Q 2706 1984 2436 2262 
Q 2166 2541 1728 2541 
Q 1456 2541 1237 2417 
Q 1019 2294 894 2097 
L 366 2166 
L 809 4519 
L 3088 4519 
L 3088 3981 
L 1259 3981 
L 1013 2750 
Q 1425 3038 1878 3038 
Q 2478 3038 2890 2622 
Q 3303 2206 3303 1553 
Q 3303 931 2941 478 
Q 2500 -78 1738 -78 
Q 1113 -78 717 272 
Q 322 622 266 1200 
z
" transform="scale(0.015625)"/>
       </defs>
       <use xlink:href="#ArialMT-35"/>
       <use xlink:href="#ArialMT-30" x="55.615234"/>
       <use xlink:href="#ArialMT-30" x="111.230469"/>
       <use xlink:href="#ArialMT-30" x="166.845703"/>
       <use xlink:href="#ArialMT-30" x="222.460938"/>
      </g>
     </g>
    </g>
    <g id="xtick_7">
     <g id="line2d_7">
      <path d="M 1243.691896 320.4 
L 1243.691896 43.2 
" clip-path="url(#p6173107567)" style="fill: none; stroke: #cccccc; stroke-width: 0.8; stroke-linecap: round"/>
     </g>
     <g id="text_7">
      <!-- 60000 -->
      <g style="fill: #262626" transform="translate(1229.789552 334.557813)scale(0.1 -0.1)">
       <defs>
        <path id="ArialMT-36" d="M 3184 3459 
L 2625 3416 
Q 2550 3747 2413 3897 
Q 2184 4138 1850 4138 
Q 1581 4138 1378 3988 
Q 1113 3794 959 3422 
Q 806 3050 800 2363 
Q 1003 2672 1297 2822 
Q 1591 2972 1913 2972 
Q 2475 2972 2870 2558 
Q 3266 2144 3266 1488 
Q 3266 1056 3080 686 
Q 2894 316 2569 119 
Q 2244 -78 1831 -78 
Q 1128 -78 684 439 
Q 241 956 241 2144 
Q 241 3472 731 4075 
Q 1159 4600 1884 4600 
Q 2425 4600 2770 4297 
Q 3116 3994 3184 3459 
z
M 888 1484 
Q 888 1194 1011 928 
Q 1134 663 1356 523 
Q 1578 384 1822 384 
Q 2178 384 2434 671 
Q 2691 959 2691 1453 
Q 2691 1928 2437 2201 
Q 2184 2475 1800 2475 
Q 1419 2475 1153 2201 
Q 888 1928 888 1484 
z
" transform="scale(0.015625)"/>
       </defs>
       <use xlink:href="#ArialMT-36"/>
       <use xlink:href="#ArialMT-30" x="55.615234"/>
       <use xlink:href="#ArialMT-30" x="111.230469"/>
       <use xlink:href="#ArialMT-30" x="166.845703"/>
       <use xlink:href="#ArialMT-30" x="222.460938"/>
      </g>
     </g>
    </g>
    <g id="xtick_8">
     <g id="line2d_8">
      <path d="M 1403.017225 320.4 
L 1403.017225 43.2 
" clip-path="url(#p6173107567)" style="fill: none; stroke: #cccccc; stroke-width: 0.8; stroke-linecap: round"/>
     </g>
     <g id="text_8">
      <!-- 70000 -->
      <g style="fill: #262626" transform="translate(1389.114881 334.557813)scale(0.1 -0.1)">
       <defs>
        <path id="ArialMT-37" d="M 303 3981 
L 303 4522 
L 3269 4522 
L 3269 4084 
Q 2831 3619 2401 2847 
Q 1972 2075 1738 1259 
Q 1569 684 1522 0 
L 944 0 
Q 953 541 1156 1306 
Q 1359 2072 1739 2783 
Q 2119 3494 2547 3981 
L 303 3981 
z
" transform="scale(0.015625)"/>
       </defs>
       <use xlink:href="#ArialMT-37"/>
       <use xlink:href="#ArialMT-30" x="55.615234"/>
       <use xlink:href="#ArialMT-30" x="111.230469"/>
       <use xlink:href="#ArialMT-30" x="166.845703"/>
       <use xlink:href="#ArialMT-30" x="222.460938"/>
      </g>
     </g>
    </g>
    <g id="xtick_9">
     <g id="line2d_9">
      <path d="M 1562.342553 320.4 
L 1562.342553 43.2 
" clip-path="url(#p6173107567)" style="fill: none; stroke: #cccccc; stroke-width: 0.8; stroke-linecap: round"/>
     </g>
     <g id="text_9">
      <!-- 80000 -->
      <g style="fill: #262626" transform="translate(1548.44021 334.557813)scale(0.1 -0.1)">
       <defs>
        <path id="ArialMT-38" d="M 1131 2484 
Q 781 2613 612 2850 
Q 444 3088 444 3419 
Q 444 3919 803 4259 
Q 1163 4600 1759 4600 
Q 2359 4600 2725 4251 
Q 3091 3903 3091 3403 
Q 3091 3084 2923 2848 
Q 2756 2613 2416 2484 
Q 2838 2347 3058 2040 
Q 3278 1734 3278 1309 
Q 3278 722 2862 322 
Q 2447 -78 1769 -78 
Q 1091 -78 675 323 
Q 259 725 259 1325 
Q 259 1772 486 2073 
Q 713 2375 1131 2484 
z
M 1019 3438 
Q 1019 3113 1228 2906 
Q 1438 2700 1772 2700 
Q 2097 2700 2305 2904 
Q 2513 3109 2513 3406 
Q 2513 3716 2298 3927 
Q 2084 4138 1766 4138 
Q 1444 4138 1231 3931 
Q 1019 3725 1019 3438 
z
M 838 1322 
Q 838 1081 952 856 
Q 1066 631 1291 507 
Q 1516 384 1775 384 
Q 2178 384 2440 643 
Q 2703 903 2703 1303 
Q 2703 1709 2433 1975 
Q 2163 2241 1756 2241 
Q 1359 2241 1098 1978 
Q 838 1716 838 1322 
z
" transform="scale(0.015625)"/>
       </defs>
       <use xlink:href="#ArialMT-38"/>
       <use xlink:href="#ArialMT-30" x="55.615234"/>
       <use xlink:href="#ArialMT-30" x="111.230469"/>
       <use xlink:href="#ArialMT-30" x="166.845703"/>
       <use xlink:href="#ArialMT-30" x="222.460938"/>
      </g>
     </g>
    </g>
    <g id="text_10">
     <!-- 训练周期 -->
     <g style="fill: #262626" transform="translate(898.5 350.014063)scale(0.12 -0.12)">
      <defs>
       <path id="SimSun-8bad" d="M 3925 4575 
L 4475 4350 
L 4275 4200 
L 4275 1050 
Q 4275 825 4300 275 
L 3925 75 
Q 3950 1050 3950 2362 
Q 3950 3675 3925 4575 
z
M 5150 5025 
L 5700 4800 
L 5500 4625 
L 5500 725 
Q 5500 225 5525 -350 
L 5150 -550 
Q 5175 -75 5175 500 
L 5175 4125 
Q 5175 4400 5150 5025 
z
M 950 4875 
L 1000 4925 
Q 1500 4675 1662 4525 
Q 1825 4375 1800 4200 
Q 1775 4025 1700 3950 
Q 1625 3875 1575 3875 
Q 1500 3875 1425 4100 
Q 1325 4400 950 4875 
z
M 1625 700 
L 2400 1525 
L 2450 1475 
Q 1750 525 1525 0 
L 1200 400 
Q 1325 525 1300 725 
L 1300 2850 
L 1025 2850 
Q 825 2850 550 2775 
L 325 3000 
L 1275 3000 
L 1450 3250 
L 1825 2925 
L 1625 2775 
L 1625 700 
z
M 2775 5000 
L 3350 4750 
L 3150 4550 
Q 3150 3125 3137 2300 
Q 3125 1475 2812 750 
Q 2500 25 1575 -625 
L 1500 -575 
Q 2300 175 2550 900 
Q 2800 1625 2800 2650 
Q 2800 3675 2775 5000 
z
" transform="scale(0.015625)"/>
       <path id="SimSun-7ec3" d="M 700 3175 
L 1775 3250 
Q 1950 3525 2125 3925 
L 2600 3550 
L 2375 3475 
Q 1575 2500 775 1650 
Q 1425 1725 2350 1900 
L 2375 1800 
Q 875 1400 650 1125 
L 325 1650 
Q 550 1725 800 1987 
Q 1050 2250 1675 3100 
Q 1375 3075 1087 2987 
Q 800 2900 625 2725 
L 325 3225 
Q 550 3275 887 3900 
Q 1225 4525 1425 5225 
L 1975 4900 
L 1700 4750 
Q 1225 3975 700 3175 
z
M 300 375 
Q 1250 625 2425 1000 
L 2450 900 
Q 1550 500 750 75 
L 600 -100 
L 300 375 
z
M 2700 2250 
Q 2900 2550 3100 3075 
Q 2975 3075 2700 3000 
L 2475 3225 
L 3150 3225 
L 3500 4125 
L 3125 4125 
Q 2800 4125 2525 4050 
L 2300 4275 
L 3550 4275 
Q 3775 5000 3800 5250 
L 4325 4950 
L 4100 4825 
Q 4025 4650 3875 4275 
L 5125 4275 
L 5450 4600 
L 5900 4125 
L 3825 4125 
L 3475 3225 
L 4250 3225 
L 4425 3450 
L 4825 3150 
L 4625 3000 
L 4625 2100 
L 5300 2100 
L 5600 2400 
L 6050 1950 
L 4625 1950 
L 4625 150 
Q 4650 -450 4025 -600 
Q 4025 -225 3300 -50 
L 3300 50 
Q 3900 0 4100 0 
Q 4300 0 4300 275 
L 4300 1950 
L 2975 1950 
L 2800 1775 
L 2475 2125 
L 2700 2250 
z
M 3450 1025 
Q 2650 0 1900 -500 
L 1825 -425 
Q 2275 0 2600 450 
Q 2925 900 3175 1475 
L 3675 1100 
L 3450 1025 
z
M 4900 1375 
Q 5775 825 5937 637 
Q 6100 450 6100 275 
Q 6100 125 6025 -37 
Q 5950 -200 5900 -200 
Q 5825 -200 5700 125 
Q 5525 575 4850 1300 
L 4900 1375 
z
M 3425 3075 
Q 3225 2625 2950 2100 
L 4300 2100 
L 4300 3075 
L 3425 3075 
z
" transform="scale(0.015625)"/>
       <path id="SimSun-5468" d="M 275 -500 
Q 800 275 1000 1025 
Q 1200 1775 1200 2925 
Q 1200 4075 1175 5100 
L 1550 4875 
L 5025 4875 
L 5225 5125 
L 5650 4825 
L 5425 4625 
L 5425 275 
Q 5475 -300 4875 -525 
Q 4875 -225 4125 -25 
L 4125 100 
Q 4650 25 4875 37 
Q 5100 50 5100 350 
L 5100 4725 
L 1550 4725 
Q 1550 3000 1525 2300 
Q 1500 1600 1250 862 
Q 1000 125 350 -550 
L 275 -500 
z
M 3100 3650 
Q 3100 4225 3075 4575 
L 3625 4325 
L 3425 4175 
L 3425 3650 
L 3950 3650 
L 4225 3925 
L 4650 3500 
L 3425 3500 
L 3425 2750 
L 4200 2750 
L 4500 3050 
L 4950 2600 
L 2475 2600 
Q 2150 2600 1875 2525 
L 1650 2750 
L 3100 2750 
L 3100 3500 
L 2800 3500 
Q 2475 3500 2200 3425 
L 1975 3650 
L 3100 3650 
z
M 2250 200 
Q 2275 600 2275 1212 
Q 2275 1825 2250 2250 
L 2625 2025 
L 3975 2025 
L 4150 2275 
L 4525 1950 
L 4325 1800 
Q 4325 850 4350 450 
L 4000 300 
L 4000 700 
L 2600 700 
L 2600 350 
L 2250 200 
z
M 2600 1875 
L 2600 850 
L 4000 850 
L 4000 1875 
L 2600 1875 
z
" transform="scale(0.015625)"/>
       <path id="SimSun-671f" d="M 1575 3975 
L 1575 3325 
L 2600 3325 
L 2600 3975 
L 1575 3975 
z
M 1575 3175 
L 1575 2425 
L 2600 2425 
L 2600 3175 
L 1575 3175 
z
M 1575 2275 
L 1575 1500 
L 2600 1500 
L 2600 2275 
L 1575 2275 
z
M 1225 4125 
Q 1225 4750 1200 5175 
L 1775 4850 
L 1575 4700 
L 1575 4125 
L 2600 4125 
Q 2600 4575 2575 5175 
L 3150 4875 
L 2950 4725 
L 2950 4125 
L 3025 4125 
L 3300 4400 
L 3725 3975 
L 2950 3975 
L 2950 1500 
L 2975 1500 
L 3250 1775 
L 3675 1350 
L 950 1350 
L 600 1300 
L 400 1500 
L 1225 1500 
L 1225 3975 
L 1000 3975 
L 650 3925 
L 450 4125 
L 1225 4125 
z
M 1550 1250 
L 2000 850 
L 1775 775 
Q 1100 -25 375 -475 
L 325 -400 
Q 700 -50 1012 350 
Q 1325 750 1550 1250 
z
M 2375 1150 
Q 2975 825 3075 700 
Q 3175 575 3175 475 
Q 3175 350 3100 225 
Q 3025 100 2975 100 
Q 2900 100 2825 300 
Q 2700 625 2325 1100 
L 2375 1150 
z
M 4225 4550 
L 4225 3300 
L 5450 3300 
L 5450 4550 
L 4225 4550 
z
M 4225 3150 
Q 4225 2450 4200 1875 
L 5450 1875 
L 5450 3150 
L 4225 3150 
z
M 4550 50 
Q 5025 -25 5237 -37 
Q 5450 -50 5450 225 
L 5450 1725 
L 4200 1725 
Q 4150 850 3737 300 
Q 3325 -250 2700 -625 
L 2650 -550 
Q 3075 -200 3350 212 
Q 3625 625 3750 1175 
Q 3875 1725 3875 3000 
Q 3875 4275 3850 4925 
L 4225 4700 
L 5400 4700 
L 5575 4950 
L 5975 4650 
L 5800 4475 
L 5800 125 
Q 5825 -375 5250 -575 
Q 5250 -250 4550 -50 
L 4550 50 
z
" transform="scale(0.015625)"/>
      </defs>
      <use xlink:href="#SimSun-8bad"/>
      <use xlink:href="#SimSun-7ec3" x="100"/>
      <use xlink:href="#SimSun-5468" x="200"/>
      <use xlink:href="#SimSun-671f" x="300"/>
     </g>
    </g>
   </g>
   <g id="matplotlib.axis_2">
    <g id="ytick_1">
     <g id="line2d_10">
      <path d="M 225 307.800791 
L 1620 307.800791 
" clip-path="url(#p6173107567)" style="fill: none; stroke: #cccccc; stroke-width: 0.8; stroke-linecap: round"/>
     </g>
     <g id="text_11">
      <!-- 0.00 -->
      <g style="fill: #262626" transform="translate(198.539062 311.379697)scale(0.1 -0.1)">
       <defs>
        <path id="ArialMT-2e" d="M 581 0 
L 581 641 
L 1222 641 
L 1222 0 
L 581 0 
z
" transform="scale(0.015625)"/>
       </defs>
       <use xlink:href="#ArialMT-30"/>
       <use xlink:href="#ArialMT-2e" x="55.615234"/>
       <use xlink:href="#ArialMT-30" x="83.398438"/>
       <use xlink:href="#ArialMT-30" x="139.013672"/>
      </g>
     </g>
    </g>
    <g id="ytick_2">
     <g id="line2d_11">
      <path d="M 225 274.693123 
L 1620 274.693123 
" clip-path="url(#p6173107567)" style="fill: none; stroke: #cccccc; stroke-width: 0.8; stroke-linecap: round"/>
     </g>
     <g id="text_12">
      <!-- 0.01 -->
      <g style="fill: #262626" transform="translate(198.539062 278.272029)scale(0.1 -0.1)">
       <use xlink:href="#ArialMT-30"/>
       <use xlink:href="#ArialMT-2e" x="55.615234"/>
       <use xlink:href="#ArialMT-30" x="83.398438"/>
       <use xlink:href="#ArialMT-31" x="139.013672"/>
      </g>
     </g>
    </g>
    <g id="ytick_3">
     <g id="line2d_12">
      <path d="M 225 241.585455 
L 1620 241.585455 
" clip-path="url(#p6173107567)" style="fill: none; stroke: #cccccc; stroke-width: 0.8; stroke-linecap: round"/>
     </g>
     <g id="text_13">
      <!-- 0.02 -->
      <g style="fill: #262626" transform="translate(198.539062 245.164361)scale(0.1 -0.1)">
       <use xlink:href="#ArialMT-30"/>
       <use xlink:href="#ArialMT-2e" x="55.615234"/>
       <use xlink:href="#ArialMT-30" x="83.398438"/>
       <use xlink:href="#ArialMT-32" x="139.013672"/>
      </g>
     </g>
    </g>
    <g id="ytick_4">
     <g id="line2d_13">
      <path d="M 225 208.477786 
L 1620 208.477786 
" clip-path="url(#p6173107567)" style="fill: none; stroke: #cccccc; stroke-width: 0.8; stroke-linecap: round"/>
     </g>
     <g id="text_14">
      <!-- 0.03 -->
      <g style="fill: #262626" transform="translate(198.539062 212.056693)scale(0.1 -0.1)">
       <use xlink:href="#ArialMT-30"/>
       <use xlink:href="#ArialMT-2e" x="55.615234"/>
       <use xlink:href="#ArialMT-30" x="83.398438"/>
       <use xlink:href="#ArialMT-33" x="139.013672"/>
      </g>
     </g>
    </g>
    <g id="ytick_5">
     <g id="line2d_14">
      <path d="M 225 175.370118 
L 1620 175.370118 
" clip-path="url(#p6173107567)" style="fill: none; stroke: #cccccc; stroke-width: 0.8; stroke-linecap: round"/>
     </g>
     <g id="text_15">
      <!-- 0.04 -->
      <g style="fill: #262626" transform="translate(198.539062 178.949024)scale(0.1 -0.1)">
       <use xlink:href="#ArialMT-30"/>
       <use xlink:href="#ArialMT-2e" x="55.615234"/>
       <use xlink:href="#ArialMT-30" x="83.398438"/>
       <use xlink:href="#ArialMT-34" x="139.013672"/>
      </g>
     </g>
    </g>
    <g id="ytick_6">
     <g id="line2d_15">
      <path d="M 225 142.26245 
L 1620 142.26245 
" clip-path="url(#p6173107567)" style="fill: none; stroke: #cccccc; stroke-width: 0.8; stroke-linecap: round"/>
     </g>
     <g id="text_16">
      <!-- 0.05 -->
      <g style="fill: #262626" transform="translate(198.539062 145.841356)scale(0.1 -0.1)">
       <use xlink:href="#ArialMT-30"/>
       <use xlink:href="#ArialMT-2e" x="55.615234"/>
       <use xlink:href="#ArialMT-30" x="83.398438"/>
       <use xlink:href="#ArialMT-35" x="139.013672"/>
      </g>
     </g>
    </g>
    <g id="ytick_7">
     <g id="line2d_16">
      <path d="M 225 109.154782 
L 1620 109.154782 
" clip-path="url(#p6173107567)" style="fill: none; stroke: #cccccc; stroke-width: 0.8; stroke-linecap: round"/>
     </g>
     <g id="text_17">
      <!-- 0.06 -->
      <g style="fill: #262626" transform="translate(198.539062 112.733688)scale(0.1 -0.1)">
       <use xlink:href="#ArialMT-30"/>
       <use xlink:href="#ArialMT-2e" x="55.615234"/>
       <use xlink:href="#ArialMT-30" x="83.398438"/>
       <use xlink:href="#ArialMT-36" x="139.013672"/>
      </g>
     </g>
    </g>
    <g id="ytick_8">
     <g id="line2d_17">
      <path d="M 225 76.047113 
L 1620 76.047113 
" clip-path="url(#p6173107567)" style="fill: none; stroke: #cccccc; stroke-width: 0.8; stroke-linecap: round"/>
     </g>
     <g id="text_18">
      <!-- 0.07 -->
      <g style="fill: #262626" transform="translate(198.539062 79.62602)scale(0.1 -0.1)">
       <use xlink:href="#ArialMT-30"/>
       <use xlink:href="#ArialMT-2e" x="55.615234"/>
       <use xlink:href="#ArialMT-30" x="83.398438"/>
       <use xlink:href="#ArialMT-37" x="139.013672"/>
      </g>
     </g>
    </g>
    <g id="text_19">
     <!-- 损失 -->
     <g style="fill: #262626" transform="translate(192.992188 193.8)rotate(-90)scale(0.12 -0.12)">
      <defs>
       <path id="SimSun-635f" d="M 1450 3725 
Q 1450 4700 1425 5175 
L 2050 4900 
L 1800 4725 
L 1800 3725 
L 2050 3725 
L 2325 4000 
L 2750 3575 
L 1800 3575 
L 1800 2625 
L 2525 3050 
L 2575 2975 
L 1800 2400 
L 1800 50 
Q 1800 -325 1275 -550 
Q 1325 -225 575 -25 
L 575 75 
Q 1050 25 1262 12 
Q 1475 0 1450 375 
L 1450 2150 
Q 725 1650 625 1425 
L 250 1850 
Q 525 1925 1450 2475 
L 1450 3575 
L 750 3575 
L 475 3525 
L 275 3725 
L 1450 3725 
z
M 3050 3275 
Q 3075 3700 3075 4087 
Q 3075 4475 3050 4925 
L 3400 4725 
L 4975 4725 
L 5150 4925 
L 5525 4650 
L 5325 4500 
Q 5325 3850 5350 3475 
L 5000 3325 
L 5000 3550 
L 3400 3550 
L 3400 3400 
L 3050 3275 
z
M 3400 4575 
L 3400 3700 
L 5000 3700 
L 5000 4575 
L 3400 4575 
z
M 5575 2575 
Q 5575 1300 5600 825 
L 5250 700 
L 5250 2650 
L 3150 2650 
L 3150 725 
L 2800 575 
Q 2825 1175 2825 1862 
Q 2825 2550 2800 3000 
L 3150 2800 
L 5200 2800 
L 5375 3050 
L 5800 2750 
L 5575 2575 
z
M 3925 2375 
L 4500 2100 
L 4300 1950 
Q 4200 825 3650 237 
Q 3100 -350 1875 -600 
L 1850 -525 
Q 2700 -250 3175 162 
Q 3650 575 3787 1150 
Q 3925 1725 3925 2375 
z
M 4175 700 
Q 5175 375 5525 200 
Q 5875 25 5875 -187 
Q 5875 -400 5825 -475 
Q 5775 -550 5750 -550 
Q 5675 -550 5525 -375 
Q 5325 -125 4975 125 
Q 4625 375 4150 625 
L 4175 700 
z
" transform="scale(0.015625)"/>
       <path id="SimSun-5931" d="M 950 2525 
L 875 2575 
Q 1425 3600 1550 4675 
L 2125 4375 
Q 1900 4275 1700 3750 
L 3000 3750 
L 3000 4550 
Q 3000 4850 2975 5225 
L 3625 4925 
L 3375 4750 
L 3375 3750 
L 4575 3750 
L 4925 4100 
L 5425 3600 
L 3375 3600 
Q 3325 2875 3250 2325 
L 5025 2325 
L 5425 2725 
L 5975 2175 
L 3525 2175 
Q 4050 1050 4775 512 
Q 5500 -25 6075 -100 
L 6075 -200 
Q 5600 -275 5500 -550 
Q 4925 -225 4325 450 
Q 3725 1125 3400 2175 
L 3225 2175 
Q 2950 1025 2287 400 
Q 1625 -225 450 -600 
L 400 -525 
Q 1400 -100 1975 475 
Q 2550 1050 2850 2175 
L 1300 2175 
Q 975 2175 700 2100 
L 475 2325 
L 2875 2325 
Q 2975 2975 3000 3600 
L 1650 3600 
Q 1300 2925 950 2525 
z
" transform="scale(0.015625)"/>
      </defs>
      <use xlink:href="#SimSun-635f"/>
      <use xlink:href="#SimSun-5931" x="100"/>
     </g>
    </g>
   </g>
   <g id="line2d_18">
    <path d="M 288.409091 189.226132 
L 289.237583 199.479439 
L 290.400658 207.612007 
L 291.388475 212.10542 
L 291.468137 216.041099 
L 292.647145 232.6844 
L 292.80647 246.622299 
L 295.291945 252.485952 
L 296.279762 243.288594 
L 296.964861 249.305484 
L 297.076389 254.759503 
L 297.84115 257.24927 
L 298.048273 261.552306 
L 299.115753 266.132289 
L 299.243213 207.081643 
L 300.613411 212.470048 
L 301.059522 220.851783 
L 303.895513 220.668552 
L 304.724005 229.281137 
L 305.329441 237.092118 
L 306.540313 244.06044 
L 307.830848 250.337653 
L 308.707138 256.04844 
L 308.754935 261.207413 
L 308.977991 260.295422 
L 309.041721 263.520983 
L 309.806483 267.872277 
L 309.91801 271.81646 
L 310.619042 275.013355 
L 312.467216 278.057839 
L 314.681838 281.003453 
L 315.366937 282.688082 
L 315.414734 285.08067 
L 317.645289 287.295961 
L 318.28259 289.328407 
L 320.178561 291.05842 
L 321.134513 292.722808 
L 322.775564 294.21761 
L 323.779314 295.556948 
L 324.496278 296.770472 
L 325.802746 297.865682 
L 327.332269 299.731492 
L 327.348201 300.529996 
L 327.539392 301.251038 
L 328.081098 301.710568 
L 330.518775 302.310832 
L 331.395065 302.810364 
L 335.01175 303.297214 
L 336.142959 303.738381 
L 338.102661 304.136725 
L 339.202006 304.477676 
L 339.456926 304.800144 
L 340.396946 305.095587 
L 345.383828 305.350375 
L 345.415693 305.584094 
L 346.21232 305.80398 
L 348.506605 306.159259 
L 348.618133 306.309396 
L 352.043627 306.702919 
L 355.166404 306.99432 
L 356.520669 307.073695 
L 357.843069 307.018682 
L 364.024892 307.332689 
L 394.663153 307.710456 
L 438.589146 307.776218 
L 481.129008 307.701214 
L 483.550753 307.71789 
L 642.907947 307.762545 
L 643.959494 307.735578 
L 688.172273 307.785793 
L 814.055215 307.793623 
L 860.562279 307.795411 
L 913.999994 307.79136 
L 1060.690824 307.797141 
L 1060.818284 307.643646 
L 1091.854858 307.774233 
L 1132.371289 307.790479 
L 1134.458451 307.768519 
L 1188.374142 307.789406 
L 1189.648745 307.538473 
L 1225.719999 307.765333 
L 1315.754742 307.795925 
L 1556.590909 307.796047 
L 1556.590909 307.796047 
" clip-path="url(#p6173107567)" style="fill: none; stroke: #023eff; stroke-width: 1.5; stroke-linecap: round"/>
   </g>
   <g id="line2d_19">
    <path d="M 288.409091 195.512342 
L 289.237583 204.523659 
L 290.400658 212.07678 
L 291.388475 214.91946 
L 291.468137 216.329137 
L 292.647145 232.774878 
L 292.80647 246.714574 
L 295.291945 252.261571 
L 296.279762 251.445783 
L 296.964861 256.076016 
L 297.076389 260.672509 
L 297.84115 263.073048 
L 298.048273 267.110909 
L 299.115753 270.837961 
L 299.243213 175.591889 
L 300.613411 180.075506 
L 301.059522 190.171388 
L 303.895513 188.850394 
L 304.724005 200.333997 
L 305.329441 210.927228 
L 306.540313 220.161522 
L 307.830848 228.586868 
L 308.707138 236.385361 
L 308.754935 243.287876 
L 308.977991 236.413759 
L 309.041721 239.924214 
L 309.806483 246.336746 
L 309.91801 252.236349 
L 310.619042 257.059339 
L 312.467216 261.925866 
L 314.681838 266.417292 
L 315.366937 265.521104 
L 315.414734 268.966714 
L 317.645289 272.693087 
L 318.28259 276.098529 
L 320.178561 279.019243 
L 321.134513 281.842306 
L 322.775564 284.389586 
L 323.779314 286.611877 
L 324.496278 288.636578 
L 325.802746 290.406946 
L 327.332269 293.456115 
L 327.348201 294.804781 
L 327.539392 296.0346 
L 328.081098 296.415053 
L 330.518775 297.519436 
L 331.395065 298.27325 
L 335.01175 299.109739 
L 336.142959 299.753692 
L 338.102661 300.428411 
L 339.202006 301.118952 
L 339.456926 301.719957 
L 340.396946 302.294411 
L 345.415693 302.066984 
L 346.21232 302.471791 
L 347.34353 302.740142 
L 348.506605 302.879931 
L 348.618133 303.238454 
L 352.043627 303.696629 
L 353.031444 303.529384 
L 356.520669 303.909688 
L 357.843069 303.251369 
L 359.308862 303.602652 
L 359.579715 303.872223 
L 362.112988 304.234124 
L 362.240448 304.50646 
L 364.024892 304.793638 
L 369.091437 305.316819 
L 369.537548 305.50444 
L 372.899313 305.704181 
L 373.122368 305.877465 
L 378.92181 306.231304 
L 381.168297 306.464764 
L 381.279825 306.591084 
L 381.853396 306.70735 
L 383.175796 306.80806 
L 386.824346 306.917225 
L 389.325754 307.072079 
L 421.206752 307.689811 
L 445.583528 307.765277 
L 492.90315 307.756833 
L 493.890967 307.603791 
L 496.599498 307.439267 
L 504.741022 307.246548 
L 505.681042 307.283715 
L 508.947211 307.272106 
L 575.561131 307.662568 
L 1556.590909 307.787068 
L 1556.590909 307.787068 
" clip-path="url(#p6173107567)" style="fill: none; stroke: #ff7c00; stroke-width: 1.5; stroke-linecap: round"/>
   </g>
   <g id="line2d_20">
    <path d="M 288.409091 214.893704 
L 289.237583 222.769185 
L 290.400658 228.159811 
L 291.388475 229.790229 
L 292.089506 238.012439 
L 292.647145 244.592907 
L 292.80647 255.957045 
L 295.291945 260.439799 
L 296.279762 251.140619 
L 296.964861 255.89399 
L 297.076389 260.562063 
L 297.84115 261.936508 
L 298.048273 265.55438 
L 299.115753 269.506475 
L 299.243213 157.46058 
L 300.613411 161.422311 
L 301.059522 172.497781 
L 303.895513 171.568931 
L 304.724005 184.900155 
L 305.329441 197.066698 
L 306.540313 207.865998 
L 307.830848 217.647404 
L 308.707138 226.533836 
L 308.754935 234.456443 
L 309.041721 226.229256 
L 309.806483 234.204076 
L 309.91801 241.395991 
L 310.619042 247.857053 
L 312.467216 252.944983 
L 314.681838 258.300146 
L 315.366937 255.163615 
L 315.414734 257.701695 
L 317.645289 262.515049 
L 318.28259 266.929106 
L 320.178561 270.416726 
L 321.134513 274.077721 
L 322.775564 277.395457 
L 323.779314 280.358108 
L 324.496278 283.054989 
L 325.802746 285.454217 
L 327.332269 289.188379 
L 327.348201 290.97411 
L 327.539392 292.529794 
L 328.081098 292.913299 
L 331.395065 294.789624 
L 335.01175 295.864172 
L 336.142959 296.770182 
L 338.102661 297.515596 
L 339.202006 298.063467 
L 339.456926 298.675627 
L 340.396946 299.315307 
L 345.383828 298.524523 
L 345.415693 298.907855 
L 346.21232 299.623516 
L 348.506605 300.628374 
L 348.618133 301.054254 
L 350.322914 301.495847 
L 350.769025 301.970886 
L 352.043627 302.424528 
L 353.031444 302.902061 
L 354.592832 303.343034 
L 355.166404 303.722259 
L 356.520669 304.076808 
L 357.843069 302.473446 
L 359.308862 302.96695 
L 359.579715 303.406196 
L 362.112988 303.814982 
L 362.240448 304.185192 
L 364.024892 304.528569 
L 372.899313 305.412898 
L 373.122368 305.644002 
L 378.92181 306.011456 
L 380.276075 306.014619 
L 381.168297 306.187531 
L 381.279825 306.345443 
L 381.853396 306.488973 
L 383.175796 306.616941 
L 386.824346 306.595726 
L 389.325754 306.821224 
L 406.644417 307.442601 
L 407.409179 307.510355 
L 464.925622 307.782633 
L 470.836592 307.787057 
L 472.0156 307.544131 
L 481.129008 307.401817 
L 481.543254 307.3402 
L 496.599498 307.081566 
L 503.562015 306.960642 
L 521.438317 307.067396 
L 521.741035 307.094458 
L 528.161845 307.165017 
L 534.805712 307.365595 
L 544.174041 307.43104 
L 544.508624 307.459116 
L 560.138439 307.636708 
L 563.994112 307.626167 
L 589.788883 307.669158 
L 608.589271 307.708658 
L 685.001699 307.729972 
L 716.771169 307.76152 
L 806.216409 307.704767 
L 808.829344 307.613843 
L 818.946503 307.705814 
L 825.112393 307.710458 
L 828.059911 307.704508 
L 857.774085 307.729375 
L 875.761915 307.739317 
L 891.200539 307.657936 
L 967.708562 307.720351 
L 1031.725479 307.587226 
L 1078.296273 307.652534 
L 1078.598991 307.66092 
L 1104.792075 307.671701 
L 1142.488447 307.655728 
L 1149.243841 307.611022 
L 1150.056401 307.650453 
L 1168.840857 307.687896 
L 1169.749011 307.682511 
L 1217.339487 307.708058 
L 1221.561608 307.679438 
L 1228.332935 307.74095 
L 1449.986332 307.76185 
L 1450.958216 307.590648 
L 1489.738001 307.751182 
L 1500.189743 307.753254 
L 1556.590909 307.734282 
L 1556.590909 307.734282 
" clip-path="url(#p6173107567)" style="fill: none; stroke: #1ac938; stroke-width: 1.5; stroke-linecap: round"/>
   </g>
   <g id="line2d_21">
    <path d="M 288.409091 197.406173 
L 289.237583 206.052302 
L 290.400658 213.671054 
L 291.388475 215.119332 
L 291.468137 215.840285 
L 292.647145 232.388325 
L 292.80647 246.026783 
L 295.291945 251.621094 
L 296.279762 247.606828 
L 296.964861 252.669773 
L 297.076389 257.606788 
L 297.84115 259.106163 
L 298.048273 263.130174 
L 299.115753 267.291384 
L 299.243213 134.850275 
L 300.613411 136.950398 
L 301.059522 150.622935 
L 303.895513 147.699548 
L 304.724005 163.099551 
L 305.329441 177.386932 
L 306.540313 189.581675 
L 307.830848 200.94616 
L 308.707138 211.487637 
L 308.754935 221.009963 
L 308.977991 210.260005 
L 309.041721 210.899161 
L 309.806483 220.090515 
L 309.91801 228.476842 
L 310.619042 235.548279 
L 312.467216 241.640562 
L 314.681838 247.925273 
L 315.366937 243.596204 
L 315.414734 246.989537 
L 317.645289 252.805444 
L 318.28259 258.113655 
L 320.178561 262.012507 
L 321.134513 266.533449 
L 322.775564 270.575071 
L 323.779314 274.176145 
L 324.496278 277.477806 
L 325.802746 280.439526 
L 326.551575 282.455022 
L 327.332269 284.935496 
L 327.348201 287.167051 
L 327.539392 289.182252 
L 328.081098 288.267286 
L 330.518775 290.131216 
L 331.395065 289.593073 
L 335.01175 291.209899 
L 336.142959 292.622416 
L 338.102661 293.86585 
L 339.202006 295.062899 
L 339.456926 296.205274 
L 340.396946 297.097382 
L 345.383828 297.259577 
L 345.415693 297.429407 
L 346.21232 298.185527 
L 348.618133 295.69574 
L 350.322914 294.44883 
L 350.769025 295.131087 
L 352.043627 296.106624 
L 353.031444 297.098092 
L 354.592832 297.952852 
L 355.166404 298.63366 
L 356.520669 299.426345 
L 357.843069 295.517462 
L 359.308862 296.65905 
L 359.579715 297.718186 
L 362.112988 298.679114 
L 362.240448 299.523795 
L 364.024892 300.307062 
L 366.940545 300.997325 
L 369.091437 301.621885 
L 369.537548 302.159663 
L 372.899313 302.675884 
L 373.122368 303.154862 
L 378.220779 304.022032 
L 380.276075 304.389506 
L 381.168297 304.709003 
L 381.279825 304.988166 
L 381.853396 305.251613 
L 383.175796 305.487198 
L 386.521628 304.923624 
L 386.824346 305.093599 
L 389.325754 305.594555 
L 394.471962 305.924848 
L 394.663153 306.09772 
L 406.883405 306.953107 
L 407.409179 307.026359 
L 412.539454 307.214221 
L 429.188951 307.508207 
L 429.985578 307.161335 
L 430.097106 306.953836 
L 438.589146 306.622985 
L 441.966843 306.327177 
L 442.253628 306.227538 
L 445.583528 306.178139 
L 451.57416 306.179055 
L 455.382035 306.31269 
L 456.736301 306.202523 
L 464.925622 306.204033 
L 470.836592 306.10286 
L 471.473893 305.954166 
L 473.911571 306.001942 
L 475.090578 305.615438 
L 481.543254 305.691294 
L 483.550753 305.791446 
L 492.90315 305.960593 
L 496.169319 306.326562 
L 496.599498 306.475082 
L 502.892848 306.630026 
L 507.768203 306.853032 
L 524.704486 307.026275 
L 525.007204 307.077724 
L 538.900373 307.278584 
L 553.765426 307.295804 
L 573.776687 307.605428 
L 579.592061 307.602504 
L 589.788883 307.592769 
L 603.936972 307.606461 
L 620.012897 307.708851 
L 627.405593 307.619068 
L 627.485255 307.577464 
L 635.403724 307.544825 
L 635.833902 307.580694 
L 646.922945 307.53456 
L 657.247227 307.259089 
L 658.744885 307.209612 
L 662.791748 307.224541 
L 672.462796 307.033958 
L 673.848926 307.057565 
L 675.617437 306.890019 
L 704.455322 307.060236 
L 704.678377 307.118121 
L 716.771169 307.145381 
L 722.283826 306.925798 
L 727.684954 306.904639 
L 727.796482 306.4806 
L 728.083268 306.483209 
L 732.512512 306.357195 
L 733.341004 306.449827 
L 742.50221 306.613514 
L 743.585622 306.726735 
L 757.542521 306.776413 
L 759.518155 306.699143 
L 761.68498 306.72676 
L 762.991447 306.611668 
L 765.71591 306.666648 
L 765.795573 306.41831 
L 767.181703 306.315527 
L 768.488171 306.368776 
L 769.587516 306.093505 
L 777.47412 306.051963 
L 794.52193 306.442947 
L 797.851829 306.848926 
L 808.829344 306.939038 
L 809.721566 306.753551 
L 811.82466 306.548114 
L 811.952121 306.308695 
L 816.397297 306.571133 
L 818.946503 306.373819 
L 819.93432 306.53887 
L 823.566937 306.537677 
L 825.749694 306.499084 
L 826.020547 306.389484 
L 827.470408 306.501898 
L 830.019613 306.685097 
L 835.213619 306.750398 
L 835.548202 306.798619 
L 838.43199 306.775582 
L 838.989629 306.841914 
L 848.198633 306.861897 
L 851.146152 306.99218 
L 851.38514 306.924194 
L 854.507916 307.008233 
L 861.900611 306.930273 
L 880.462012 307.086238 
L 896.23522 307.087745 
L 898.991548 307.100894 
L 900.170555 306.686876 
L 900.600734 306.810332 
L 904.647597 306.903768 
L 912.884716 306.67529 
L 913.999994 306.63239 
L 920.293344 306.686873 
L 920.739455 306.553696 
L 923.591379 306.53714 
L 923.671041 306.494924 
L 925.35989 306.532935 
L 941.611073 306.697981 
L 943.427382 306.586824 
L 957.0019 306.564007 
L 957.113428 306.600187 
L 972.536119 306.478951 
L 973.157488 306.511499 
L 982.509885 306.571786 
L 983.019726 306.496859 
L 991.957877 306.711884 
L 992.069405 306.604593 
L 993.61486 306.613802 
L 999.047854 306.703312 
L 1000.386187 306.361183 
L 1004.130332 306.687299 
L 1013.355269 306.989193 
L 1018.071298 306.978295 
L 1018.628937 307.032099 
L 1022.61207 306.888496 
L 1023.902605 306.671204 
L 1031.725479 306.666981 
L 1041.364661 306.697334 
L 1041.683312 306.405114 
L 1043.531486 306.498093 
L 1045.31593 306.578533 
L 1045.889501 306.635716 
L 1047.227834 306.567615 
L 1048.422773 306.695399 
L 1053.712374 306.522809 
L 1055.640211 306.542937 
L 1056.118187 306.467058 
L 1068.147249 306.846602 
L 1072.767684 306.77429 
L 1074.026354 306.588874 
L 1077.324388 306.393186 
L 1078.598991 306.453821 
L 1084.462163 306.3686 
L 1085.258789 306.225196 
L 1086.995436 306.203917 
L 1087.473412 305.979619 
L 1088.636486 305.887699 
L 1091.854858 306.077843 
L 1092.93827 305.610369 
L 1099.964517 305.705793 
L 1102.43406 305.859228 
L 1104.792075 305.941634 
L 1105.748027 305.890755 
L 1107.261617 305.592512 
L 1112.949532 305.759073 
L 1113.140722 305.502872 
L 1116.247566 305.728261 
L 1120.007644 306.000714 
L 1121.855817 306.109974 
L 1122.397524 306.222037 
L 1126.444387 306.396862 
L 1127.097621 306.208664 
L 1130.666508 306.295192 
L 1131.192282 306.135102 
L 1132.371289 306.186769 
L 1133.629959 305.965404 
L 1133.868947 305.626169 
L 1134.458451 305.473573 
L 1139.620592 305.790283 
L 1139.843647 305.847966 
L 1143.412534 305.828772 
L 1143.651522 305.581652 
L 1149.243841 305.559538 
L 1149.482829 305.592432 
L 1150.056401 304.995808 
L 1151.936439 305.105799 
L 1153.959871 304.978145 
L 1159.106079 305.526713 
L 1159.55219 305.339228 
L 1163.025482 305.636005 
L 1163.742446 305.186525 
L 1167.104211 305.276253 
L 1168.793059 305.454308 
L 1168.840857 305.611866 
L 1169.749011 305.971936 
L 1172.600935 305.612098 
L 1172.680597 305.735927 
L 1172.808058 305.579362 
L 1177.890536 305.767404 
L 1179.420059 305.905728 
L 1181.411625 305.344905 
L 1186.000195 305.662975 
L 1188.039559 305.880641 
L 1188.374142 305.698932 
L 1189.648745 305.604901 
L 1193.026442 305.444076 
L 1193.600013 305.313082 
L 1195.878365 305.486643 
L 1196.467869 304.977968 
L 1200.052689 304.789108 
L 1200.75372 304.96158 
L 1203.366656 305.109312 
L 1203.605644 305.243871 
L 1204.14735 305.338901 
L 1213.260758 305.721258 
L 1216.526928 305.907625 
L 1217.339487 305.706192 
L 1218.837145 305.509847 
L 1221.561608 305.829277 
L 1223.7125 306.319536 
L 1223.983353 306.157054 
L 1224.381666 306.05697 
L 1231.965552 306.182993 
L 1232.714381 306.241173 
L 1236.936502 306.047907 
L 1237.701264 306.08145 
L 1237.956184 305.923481 
L 1238.43416 305.390256 
L 1239.50164 305.04406 
L 1239.724696 304.805807 
L 1241.923385 304.621065 
L 1243.819356 304.136342 
L 1245.062094 303.282757 
L 1246.54382 303.46543 
L 1246.639415 303.666528 
L 1246.989931 303.682305 
L 1248.423858 303.44126 
L 1250.033044 303.306523 
L 1251.259849 302.870427 
L 1251.70596 303.137468 
L 1253.187686 303.166707 
L 1254.382626 303.013338 
L 1255.41824 303.162359 
L 1257.569132 303.27326 
L 1259.974945 303.26782 
L 1262.890598 302.730684 
L 1264.021808 302.724506 
L 1265.567264 302.891001 
L 1265.758454 303.111494 
L 1266.204565 302.965891 
L 1266.602878 302.486523 
L 1271.526031 302.809218 
L 1277.771584 302.39765 
L 1278.18583 302.754228 
L 1279.046187 303.197612 
L 1281.675055 303.307942 
L 1283.778149 303.279241 
L 1284.399518 303.740134 
L 1290.422015 304.125703 
L 1290.868126 304.307659 
L 1291.871876 304.269594 
L 1294.994652 304.45695 
L 1297.193342 304.210325 
L 1302.132427 304.075606 
L 1302.180224 303.825287 
L 1303.932803 303.907237 
L 1304.761295 303.699902 
L 1305.271136 303.279243 
L 1307.230837 302.667225 
L 1308.983416 302.321191 
L 1309.477324 302.454444 
L 1310.178356 302.795483 
L 1311.006848 302.915979 
L 1315.563552 303.398851 
L 1315.754742 304.216942 
L 1318.367678 304.573148 
L 1321.586049 304.885737 
L 1323.179303 305.167475 
L 1323.354561 305.418056 
L 1324.214917 305.849038 
L 1327.720075 306.002992 
L 1328.930947 306.162326 
L 1329.32926 305.43602 
L 1330.5242 305.415252 
L 1331.018109 305.24934 
L 1331.352692 305.336164 
L 1331.751005 305.042168 
L 1332.930013 304.642526 
L 1333.599179 304.797246 
L 1334.650726 304.644342 
L 1336.036857 304.833572 
L 1337.805368 304.806733 
L 1338.458602 305.040515 
L 1339.924395 305.310217 
L 1340.067788 305.553057 
L 1354.391135 306.468492 
L 1355.554209 306.8282 
L 1362.771647 307.090814 
L 1363.393016 307.161731 
L 1384.121241 307.613695 
L 1385.953482 307.420142 
L 1390.032211 307.503196 
L 1405.056589 307.658221 
L 1410.378055 307.3003 
L 1412.258094 306.938754 
L 1414.647974 307.141884 
L 1443.772644 307.717476 
L 1443.884172 307.504896 
L 1455.881369 307.09067 
L 1463.226267 307.102085 
L 1463.465255 306.995657 
L 1464.214084 307.001101 
L 1466.01446 306.686206 
L 1469.838268 307.118649 
L 1493.784865 307.610093 
L 1497.497145 307.437581 
L 1500.189743 307.403036 
L 1502.085714 306.487967 
L 1506.291903 306.616192 
L 1508.586188 305.639507 
L 1509.239421 305.81874 
L 1509.335017 305.972825 
L 1509.844858 306.03362 
L 1511.199123 305.217656 
L 1513.047297 305.096385 
L 1513.158825 304.908915 
L 1513.334082 305.085691 
L 1515.70803 305.27473 
L 1517.699596 305.217972 
L 1519.707096 305.529499 
L 1520.949833 305.351623 
L 1521.87392 304.75401 
L 1522.256301 304.939987 
L 1522.654614 304.765005 
L 1522.989197 304.307261 
L 1528.007945 303.700118 
L 1528.900167 303.572635 
L 1531.959213 303.507841 
L 1532.102606 303.71544 
L 1532.62838 303.943487 
L 1533.791455 303.581811 
L 1534.699609 303.508344 
L 1543.908613 303.8309 
L 1545.661192 303.991752 
L 1545.979842 304.214498 
L 1546.489683 304.291756 
L 1548.258194 303.699593 
L 1551.333173 303.410289 
L 1551.476566 302.631223 
L 1552.432518 302.926515 
L 1553.022022 303.28186 
L 1553.069819 303.552346 
L 1553.308807 302.800859 
L 1556.288191 303.262273 
L 1556.590909 303.613569 
L 1556.590909 303.613569 
" clip-path="url(#p6173107567)" style="fill: none; stroke: #e8000b; stroke-width: 1.5; stroke-linecap: round"/>
   </g>
   <g id="line2d_22">
    <path d="M 288.409091 203.950845 
L 289.237583 212.320614 
L 290.400658 218.836951 
L 291.388475 220.270711 
L 291.468137 221.089635 
L 292.647145 236.402546 
L 292.80647 249.329227 
L 295.291945 254.276516 
L 296.279762 251.453921 
L 296.964861 255.524529 
L 297.076389 260.023589 
L 297.84115 262.147684 
L 298.048273 265.32796 
L 299.115753 269.049744 
L 299.243213 116.006447 
L 300.613411 115.422484 
L 301.059522 131.006454 
L 303.895513 125.525123 
L 304.724005 143.033832 
L 305.329441 159.338094 
L 306.540313 173.426015 
L 307.830848 186.144013 
L 308.707138 198.068643 
L 308.754935 208.813603 
L 309.041721 188.167334 
L 309.806483 199.627981 
L 309.91801 209.984747 
L 310.619042 218.629236 
L 312.467216 225.962084 
L 314.681838 233.775537 
L 315.414734 221.950864 
L 317.645289 229.941765 
L 318.28259 237.348231 
L 320.178561 242.925974 
L 321.134513 249.055168 
L 322.775564 254.681947 
L 323.779314 259.507307 
L 324.496278 264.057157 
L 325.802746 268.115414 
L 326.551575 271.007595 
L 327.332269 274.505902 
L 327.348201 277.651477 
L 327.539392 280.474644 
L 328.081098 279.598863 
L 330.518775 282.221797 
L 331.395065 279.206109 
L 335.01175 281.618646 
L 336.142959 283.648514 
L 338.102661 285.079895 
L 339.202006 286.809677 
L 339.456926 288.213466 
L 340.396946 289.776352 
L 345.383828 288.678671 
L 345.415693 288.096547 
L 346.21232 289.39786 
L 347.34353 290.186306 
L 348.506605 288.426268 
L 348.618133 288.775984 
L 350.322914 282.54826 
L 350.769025 284.580307 
L 353.031444 287.321855 
L 354.592832 288.66805 
L 355.166404 288.996335 
L 356.520669 290.517487 
L 357.843069 280.299017 
L 359.308862 282.517232 
L 359.579715 284.600916 
L 362.112988 286.689024 
L 362.240448 288.567732 
L 364.024892 290.321117 
L 366.940545 291.960471 
L 369.091437 293.414571 
L 369.537548 293.437821 
L 372.899313 294.383739 
L 373.122368 295.369884 
L 376.149549 296.400366 
L 378.220779 297.467928 
L 378.92181 298.320105 
L 380.276075 298.89597 
L 381.168297 299.737103 
L 381.279825 300.465442 
L 381.853396 301.140563 
L 383.175796 301.747456 
L 386.521628 299.567988 
L 386.824346 300.296999 
L 387.939624 301.02165 
L 389.325754 301.654808 
L 392.480396 302.229738 
L 392.942439 302.495002 
L 394.471962 303.001868 
L 394.663153 303.472801 
L 401.083963 304.591718 
L 401.737197 304.874005 
L 405.353882 305.159296 
L 406.59662 305.411557 
L 406.644417 305.643684 
L 406.883405 305.848199 
L 407.409179 306.036584 
L 411.82249 306.207806 
L 411.981816 306.356269 
L 412.539454 306.487408 
L 420.983697 306.981746 
L 421.206752 307.061957 
L 431.021193 307.368099 
L 478.516073 307.727221 
L 542.548923 307.568505 
L 546.627651 307.464999 
L 548.125309 307.197568 
L 553.765426 307.192122 
L 560.138439 306.948707 
L 563.245283 306.61268 
L 563.994112 306.585014 
L 568.518951 306.372419 
L 579.592061 306.413163 
L 581.711088 306.308468 
L 594.775765 306.374026 
L 606.310919 306.30781 
L 608.589271 306.459088 
L 611.53679 306.401669 
L 614.99415 306.337387 
L 615.344665 306.150306 
L 615.599586 306.201374 
L 627.357795 306.333981 
L 627.485255 306.520341 
L 630.655829 306.652559 
L 635.833902 306.659238 
L 645.775803 306.30632 
L 646.922945 306.034981 
L 651.638975 305.617138 
L 653.072903 305.110424 
L 657.247227 305.107425 
L 657.661473 304.87139 
L 658.744885 304.985548 
L 659.939825 304.807304 
L 660.991372 304.793582 
L 662.791748 304.379377 
L 664.862977 304.432952 
L 665.356886 303.770283 
L 669.132896 303.835575 
L 672.000752 304.118411 
L 672.462796 303.619372 
L 673.848926 303.379559 
L 674.613687 303.560664 
L 674.645553 303.781106 
L 675.250989 303.846406 
L 675.617437 303.764326 
L 678.995134 303.965122 
L 681.703665 304.436235 
L 684.475925 304.667581 
L 685.001699 304.862405 
L 686.802075 305.098366 
L 688.172273 305.106001 
L 690.084177 305.378297 
L 691.342847 304.008787 
L 692.282866 304.093719 
L 694.099175 303.93174 
L 694.338163 303.572026 
L 696.982964 303.582858 
L 698.990463 302.378387 
L 699.548101 302.466843 
L 700.727109 302.236485 
L 703.037326 302.079609 
L 703.435639 302.297028 
L 704.455322 301.921881 
L 704.678377 302.122742 
L 706.813336 302.04656 
L 708.40659 302.201591 
L 709.474069 302.468789 
L 714.684008 302.578722 
L 714.69994 302.412286 
L 715.161984 302.41997 
L 715.193849 302.541029 
L 716.771169 302.3923 
L 720.180731 302.611038 
L 720.371922 302.312351 
L 720.435652 302.56783 
L 720.451585 300.680725 
L 722.283826 300.250073 
L 725.964241 300.696976 
L 727.525629 300.716981 
L 728.083268 301.893332 
L 731.062651 302.060256 
L 733.341004 302.427102 
L 737.84991 302.449599 
L 740.829294 302.076219 
L 741.036417 302.258952 
L 742.964253 301.217579 
L 743.585622 300.25846 
L 749.305402 300.105338 
L 749.719647 300.238496 
L 750.372881 300.108096 
L 750.771195 300.174906 
L 751.026115 299.62079 
L 757.2876 298.307092 
L 757.542521 297.796149 
L 758.721528 297.932009 
L 759.518155 296.328393 
L 761.68498 295.615105 
L 762.975515 296.507941 
L 762.991447 297.291914 
L 765.71591 297.18751 
L 766.209819 297.94772 
L 767.181703 298.045686 
L 768.488171 297.878787 
L 769.587516 298.167702 
L 770.24075 298.884817 
L 773.028943 299.639094 
L 773.204201 298.740655 
L 775.46662 299.187503 
L 776.964279 298.99844 
L 777.187334 298.077479 
L 777.47412 297.999618 
L 783.321359 298.386787 
L 788.117052 299.293161 
L 788.706555 300.11929 
L 792.737486 300.877679 
L 794.52193 301.557331 
L 795.557544 302.174507 
L 795.796532 303.222512 
L 796.561294 303.653533 
L 796.704687 304.055674 
L 797.644706 304.419583 
L 797.851829 304.752816 
L 800.353237 305.051001 
L 800.87901 305.298921 
L 806.216409 305.760447 
L 808.829344 306.138773 
L 809.721566 306.294676 
L 811.82466 306.439216 
L 811.952121 306.568281 
L 816.365432 306.883228 
L 816.397297 306.971119 
L 830.019613 307.600097 
L 841.921215 307.662965 
L 851.38514 307.495077 
L 872.113365 307.731495 
L 873.53136 307.729171 
L 874.359852 306.495357 
L 874.85376 298.903603 
L 875.761915 299.766124 
L 878.088065 300.539082 
L 879.936238 300.900304 
L 880.462012 299.416605 
L 884.492943 299.906309 
L 885.034649 300.394847 
L 889.416096 299.822353 
L 891.200539 300.03676 
L 897.111509 300.209724 
L 897.350497 300.637868 
L 898.991548 300.865308 
L 900.170555 301.536361 
L 900.425476 301.323635 
L 900.600734 301.586479 
L 902.417042 301.873359 
L 903.388927 301.136819 
L 903.404859 300.749573 
L 904.328946 300.787709 
L 904.647597 300.500655 
L 906.559501 300.528598 
L 908.805988 299.706225 
L 909.188369 298.73181 
L 911.355193 296.947318 
L 912.884716 296.4005 
L 913.999994 295.704481 
L 918.524833 295.683805 
L 920.293344 294.271589 
L 920.739455 294.748345 
L 921.552014 294.651491 
L 923.591379 294.810052 
L 923.941894 290.847797 
L 925.35989 290.839767 
L 929.757269 291.1945 
L 932.816315 291.021156 
L 933.007505 291.622607 
L 935.508913 288.080336 
L 935.604508 288.593155 
L 935.668238 287.908048 
L 936.162147 288.281186 
L 936.194012 288.008478 
L 936.417067 288.020325 
L 936.512663 284.00398 
L 937.675738 284.358594 
L 941.611073 285.104495 
L 943.013136 286.087171 
L 943.427382 286.905297 
L 944.86131 287.030254 
L 945.291488 287.757378 
L 946.406766 288.275946 
L 947.490178 287.086001 
L 948.796645 282.451684 
L 949.561407 280.742103 
L 949.816328 279.418108 
L 954.851008 278.099026 
L 957.0019 271.09426 
L 957.113428 271.873016 
L 959.041264 272.275231 
L 959.423645 271.353782 
L 959.806026 273.003887 
L 962.307433 275.805649 
L 964.075945 273.392391 
L 964.36273 274.429153 
L 967.708562 273.079907 
L 969.26995 274.366127 
L 972.265266 276.329833 
L 972.536119 277.691859 
L 973.157488 276.648282 
L 980.390858 277.382358 
L 981.09189 277.95617 
L 981.649528 277.92687 
L 982.509885 279.197303 
L 983.019726 280.746845 
L 984.166868 277.965081 
L 984.597047 278.763259 
L 984.660777 280.012951 
L 985.314011 281.083105 
L 985.664527 281.242835 
L 988.38899 279.680246 
L 988.45272 267.964058 
L 988.659843 263.958928 
L 989.934445 265.097964 
L 989.998175 265.373802 
L 990.571747 266.296801 
L 991.957877 266.317636 
L 992.069405 268.769209 
L 992.770436 264.376403 
L 993.61486 262.217112 
L 998.091902 260.848492 
L 999.047854 261.820132 
L 1000.386187 262.040117 
L 1001.549262 258.412306 
L 1001.772317 248.480646 
L 1004.130332 249.64743 
L 1006.360887 244.659523 
L 1009.642988 247.07049 
L 1009.786381 251.384839 
L 1010.630806 255.166075 
L 1012.781697 257.859155 
L 1013.355269 259.604373 
L 1015.18751 261.580719 
L 1018.628937 266.078718 
L 1021.16221 266.114331 
L 1022.070364 263.878318 
L 1022.61207 264.328838 
L 1023.329034 260.580801 
L 1023.902605 260.293417 
L 1025.702982 260.291538 
L 1025.957902 260.846476 
L 1027.216572 261.641029 
L 1028.58677 249.932355 
L 1031.725479 247.846556 
L 1039.723611 251.985537 
L 1040.408709 246.505611 
L 1041.364661 249.086026 
L 1041.683312 250.824799 
L 1042.097558 246.690103 
L 1043.531486 249.398758 
L 1044.359978 249.013667 
L 1045.31593 246.757291 
L 1045.889501 246.011434 
L 1046.733925 247.414839 
L 1046.797655 246.745166 
L 1047.004778 247.886135 
L 1047.227834 241.870743 
L 1047.610214 236.485479 
L 1047.801405 241.950023 
L 1048.422773 246.022581 
L 1048.645829 245.070591 
L 1050.621463 246.398341 
L 1050.717058 239.644993 
L 1051.370292 241.569308 
L 1052.023526 249.752409 
L 1055.38529 254.464458 
L 1055.640211 258.032393 
L 1056.118187 260.237803 
L 1060.690824 264.412724 
L 1060.818284 267.852157 
L 1062.857648 271.63997 
L 1068.147249 276.726629 
L 1072.767684 273.426826 
L 1073.62804 274.366481 
L 1074.026354 275.920476 
L 1076.033853 276.522011 
L 1077.324388 274.815016 
L 1078.598991 276.408319 
L 1084.462163 252.560702 
L 1085.258789 257.695569 
L 1086.740515 260.325384 
L 1086.995436 264.229454 
L 1087.473412 262.539098 
L 1088.636486 264.644166 
L 1090.452795 266.97336 
L 1092.93827 269.140914 
L 1094.388131 267.773436 
L 1094.419996 269.507321 
L 1094.515591 241.841435 
L 1097.415312 244.251072 
L 1099.964517 243.002935 
L 1100.538088 246.195884 
L 1102.43406 249.120885 
L 1103.915785 249.176173 
L 1104.792075 246.911226 
L 1105.748027 243.789974 
L 1107.261617 244.239785 
L 1112.2485 239.679759 
L 1113.013262 234.191035 
L 1113.140722 234.56406 
L 1115.498737 236.799752 
L 1116.247566 242.413006 
L 1117.299113 248.198449 
L 1117.330978 253.442147 
L 1120.007644 258.458145 
L 1120.883933 262.986046 
L 1121.855817 258.332061 
L 1122.397524 261.938072 
L 1124.357225 264.900732 
L 1124.644011 268.1434 
L 1126.444387 271.779057 
L 1127.097621 275.170245 
L 1129.009525 278.060777 
L 1130.666508 279.957028 
L 1131.192282 277.846387 
L 1132.211964 277.080469 
L 1132.371289 276.782199 
L 1133.629959 277.241541 
L 1133.868947 277.109588 
L 1134.458451 275.742897 
L 1138.680572 269.334077 
L 1139.620592 266.503831 
L 1139.843647 264.127902 
L 1142.488447 255.283218 
L 1143.524062 244.169739 
L 1143.587792 245.490621 
L 1143.651522 239.680699 
L 1145.89801 228.337802 
L 1146.423783 230.359439 
L 1146.599041 215.000851 
L 1149.243841 212.0765 
L 1149.482829 215.615427 
L 1149.817413 213.588314 
L 1150.056401 207.411124 
L 1151.936439 208.748128 
L 1153.959871 202.068885 
L 1155.521259 195.512564 
L 1158.054532 176.662425 
L 1158.405048 171.012452 
L 1159.106079 154.756351 
L 1159.55219 166.438463 
L 1160.954253 169.409416 
L 1163.025482 151.585476 
L 1163.742446 148.674339 
L 1167.104211 151.122541 
L 1168.793059 146.747898 
L 1168.840857 127.41911 
L 1169.255103 127.482673 
L 1169.749011 112.876365 
L 1172.600935 117.283476 
L 1172.680597 118.075643 
L 1172.808058 126.567649 
L 1175.389128 136.182416 
L 1176.233552 141.507267 
L 1176.695596 150.862603 
L 1177.890536 145.45793 
L 1179.420059 152.465375 
L 1181.411625 150.707253 
L 1184.805255 154.30917 
L 1185.331028 164.907751 
L 1186.000195 165.364045 
L 1186.844619 175.145559 
L 1188.039559 161.649401 
L 1188.374142 170.281447 
L 1189.648745 181.763484 
L 1192.500668 171.775054 
L 1193.600013 186.035377 
L 1195.878365 197.780487 
L 1196.467869 183.821804 
L 1199.670308 162.225312 
L 1200.052689 168.04414 
L 1200.658125 162.259488 
L 1200.75372 169.920512 
L 1203.366656 168.925555 
L 1203.605644 172.086645 
L 1204.14735 155.538467 
L 1208.003023 160.376056 
L 1209.755601 155.058053 
L 1213.260758 160.660425 
L 1216.526928 170.913865 
L 1217.339487 160.039126 
L 1218.837145 160.396697 
L 1220.685319 172.47992 
L 1221.561608 183.37332 
L 1222.039584 191.983955 
L 1222.103314 201.988816 
L 1223.282322 210.778469 
L 1223.7125 219.891536 
L 1223.983353 220.950152 
L 1224.381666 228.229941 
L 1225.719999 233.676691 
L 1227.982419 238.592817 
L 1228.332935 247.818505 
L 1231.965552 246.373883 
L 1232.714381 248.136314 
L 1234.642218 248.416396 
L 1236.936502 197.995809 
L 1237.701264 192.496134 
L 1237.956184 187.194109 
L 1238.43416 190.588093 
L 1239.50164 189.76153 
L 1239.724696 181.098865 
L 1241.923385 159.770032 
L 1243.819356 155.738619 
L 1245.062094 119.086872 
L 1246.54382 114.946266 
L 1246.639415 116.380109 
L 1246.989931 82.893537 
L 1248.423858 90.293675 
L 1250.033044 82.622326 
L 1251.259849 71.733546 
L 1251.70596 79.441396 
L 1253.187686 82.056062 
L 1254.382626 70.570007 
L 1255.41824 57.659565 
L 1257.569132 67.660224 
L 1259.974945 55.8 
L 1261.568198 61.506425 
L 1262.890598 65.196326 
L 1264.021808 63.176851 
L 1265.567264 82.796152 
L 1265.758454 98.549602 
L 1266.204565 113.861661 
L 1266.602878 119.780063 
L 1268.132402 138.038853 
L 1270.458551 154.77264 
L 1271.526031 169.736547 
L 1277.771584 183.122361 
L 1278.18583 194.861148 
L 1279.046187 205.688897 
L 1281.675055 215.607651 
L 1283.778149 224.579132 
L 1284.272057 232.245574 
L 1284.399518 239.445208 
L 1289.481996 245.821482 
L 1290.422015 251.513119 
L 1290.868126 256.676632 
L 1291.871876 261.261255 
L 1294.994652 265.185591 
L 1297.193342 268.995844 
L 1298.308619 272.432942 
L 1298.324551 275.677597 
L 1299.662884 278.670089 
L 1301.27207 281.365196 
L 1302.132427 283.776469 
L 1302.180224 285.982847 
L 1303.932803 287.788475 
L 1304.761295 289.560013 
L 1305.271136 291.166536 
L 1307.230837 292.631316 
L 1308.712563 293.916809 
L 1308.983416 295.203059 
L 1309.477324 296.238178 
L 1310.178356 297.256682 
L 1311.006848 298.135589 
L 1315.563552 299.050192 
L 1315.754742 300.378221 
L 1318.367678 301.047517 
L 1321.586049 301.681192 
L 1323.179303 302.24317 
L 1323.354561 302.73259 
L 1324.214917 303.600428 
L 1327.258031 303.968074 
L 1328.00686 304.606961 
L 1331.751005 305.782577 
L 1338.458602 306.548572 
L 1340.067788 306.738505 
L 1382.161539 307.554301 
L 1441.271236 307.65377 
L 1441.319034 307.599303 
L 1443.884172 307.439944 
L 1450.958216 307.509246 
L 1527.322846 307.634232 
L 1534.699609 307.686016 
L 1556.590909 307.75897 
L 1556.590909 307.75897 
" clip-path="url(#p6173107567)" style="fill: none; stroke: #8b2be2; stroke-width: 1.5; stroke-linecap: round"/>
   </g>
   <g id="line2d_23"/>
   <g id="line2d_24"/>
   <g id="line2d_25"/>
   <g id="line2d_26"/>
   <g id="line2d_27"/>
   <g id="patch_3">
    <path d="M 225 320.4 
L 225 43.2 
" style="fill: none; stroke: #cccccc; stroke-width: 0.8; stroke-linejoin: miter; stroke-linecap: square"/>
   </g>
   <g id="patch_4">
    <path d="M 1620 320.4 
L 1620 43.2 
" style="fill: none; stroke: #cccccc; stroke-width: 0.8; stroke-linejoin: miter; stroke-linecap: square"/>
   </g>
   <g id="patch_5">
    <path d="M 225 320.4 
L 1620 320.4 
" style="fill: none; stroke: #cccccc; stroke-width: 0.8; stroke-linejoin: miter; stroke-linecap: square"/>
   </g>
   <g id="patch_6">
    <path d="M 225 43.2 
L 1620 43.2 
" style="fill: none; stroke: #cccccc; stroke-width: 0.8; stroke-linejoin: miter; stroke-linecap: square"/>
   </g>
   <g id="text_20">
    <!-- learning_rate = 1e-3 -->
    <g style="fill: #262626" transform="translate(868.633125 37.2)scale(0.12 -0.12)">
     <defs>
      <path id="ArialMT-6c" d="M 409 0 
L 409 4581 
L 972 4581 
L 972 0 
L 409 0 
z
" transform="scale(0.015625)"/>
      <path id="ArialMT-65" d="M 2694 1069 
L 3275 997 
Q 3138 488 2766 206 
Q 2394 -75 1816 -75 
Q 1088 -75 661 373 
Q 234 822 234 1631 
Q 234 2469 665 2931 
Q 1097 3394 1784 3394 
Q 2450 3394 2872 2941 
Q 3294 2488 3294 1666 
Q 3294 1616 3291 1516 
L 816 1516 
Q 847 969 1125 678 
Q 1403 388 1819 388 
Q 2128 388 2347 550 
Q 2566 713 2694 1069 
z
M 847 1978 
L 2700 1978 
Q 2663 2397 2488 2606 
Q 2219 2931 1791 2931 
Q 1403 2931 1139 2672 
Q 875 2413 847 1978 
z
" transform="scale(0.015625)"/>
      <path id="ArialMT-61" d="M 2588 409 
Q 2275 144 1986 34 
Q 1697 -75 1366 -75 
Q 819 -75 525 192 
Q 231 459 231 875 
Q 231 1119 342 1320 
Q 453 1522 633 1644 
Q 813 1766 1038 1828 
Q 1203 1872 1538 1913 
Q 2219 1994 2541 2106 
Q 2544 2222 2544 2253 
Q 2544 2597 2384 2738 
Q 2169 2928 1744 2928 
Q 1347 2928 1158 2789 
Q 969 2650 878 2297 
L 328 2372 
Q 403 2725 575 2942 
Q 747 3159 1072 3276 
Q 1397 3394 1825 3394 
Q 2250 3394 2515 3294 
Q 2781 3194 2906 3042 
Q 3031 2891 3081 2659 
Q 3109 2516 3109 2141 
L 3109 1391 
Q 3109 606 3145 398 
Q 3181 191 3288 0 
L 2700 0 
Q 2613 175 2588 409 
z
M 2541 1666 
Q 2234 1541 1622 1453 
Q 1275 1403 1131 1340 
Q 988 1278 909 1158 
Q 831 1038 831 891 
Q 831 666 1001 516 
Q 1172 366 1500 366 
Q 1825 366 2078 508 
Q 2331 650 2450 897 
Q 2541 1088 2541 1459 
L 2541 1666 
z
" transform="scale(0.015625)"/>
      <path id="ArialMT-72" d="M 416 0 
L 416 3319 
L 922 3319 
L 922 2816 
Q 1116 3169 1280 3281 
Q 1444 3394 1641 3394 
Q 1925 3394 2219 3213 
L 2025 2691 
Q 1819 2813 1613 2813 
Q 1428 2813 1281 2702 
Q 1134 2591 1072 2394 
Q 978 2094 978 1738 
L 978 0 
L 416 0 
z
" transform="scale(0.015625)"/>
      <path id="ArialMT-6e" d="M 422 0 
L 422 3319 
L 928 3319 
L 928 2847 
Q 1294 3394 1984 3394 
Q 2284 3394 2536 3286 
Q 2788 3178 2913 3003 
Q 3038 2828 3088 2588 
Q 3119 2431 3119 2041 
L 3119 0 
L 2556 0 
L 2556 2019 
Q 2556 2363 2490 2533 
Q 2425 2703 2258 2804 
Q 2091 2906 1866 2906 
Q 1506 2906 1245 2678 
Q 984 2450 984 1813 
L 984 0 
L 422 0 
z
" transform="scale(0.015625)"/>
      <path id="ArialMT-69" d="M 425 3934 
L 425 4581 
L 988 4581 
L 988 3934 
L 425 3934 
z
M 425 0 
L 425 3319 
L 988 3319 
L 988 0 
L 425 0 
z
" transform="scale(0.015625)"/>
      <path id="ArialMT-67" d="M 319 -275 
L 866 -356 
Q 900 -609 1056 -725 
Q 1266 -881 1628 -881 
Q 2019 -881 2231 -725 
Q 2444 -569 2519 -288 
Q 2563 -116 2559 434 
Q 2191 0 1641 0 
Q 956 0 581 494 
Q 206 988 206 1678 
Q 206 2153 378 2554 
Q 550 2956 876 3175 
Q 1203 3394 1644 3394 
Q 2231 3394 2613 2919 
L 2613 3319 
L 3131 3319 
L 3131 450 
Q 3131 -325 2973 -648 
Q 2816 -972 2473 -1159 
Q 2131 -1347 1631 -1347 
Q 1038 -1347 672 -1080 
Q 306 -813 319 -275 
z
M 784 1719 
Q 784 1066 1043 766 
Q 1303 466 1694 466 
Q 2081 466 2343 764 
Q 2606 1063 2606 1700 
Q 2606 2309 2336 2618 
Q 2066 2928 1684 2928 
Q 1309 2928 1046 2623 
Q 784 2319 784 1719 
z
" transform="scale(0.015625)"/>
      <path id="ArialMT-5f" d="M -97 -1272 
L -97 -866 
L 3631 -866 
L 3631 -1272 
L -97 -1272 
z
" transform="scale(0.015625)"/>
      <path id="ArialMT-74" d="M 1650 503 
L 1731 6 
Q 1494 -44 1306 -44 
Q 1000 -44 831 53 
Q 663 150 594 308 
Q 525 466 525 972 
L 525 2881 
L 113 2881 
L 113 3319 
L 525 3319 
L 525 4141 
L 1084 4478 
L 1084 3319 
L 1650 3319 
L 1650 2881 
L 1084 2881 
L 1084 941 
Q 1084 700 1114 631 
Q 1144 563 1211 522 
Q 1278 481 1403 481 
Q 1497 481 1650 503 
z
" transform="scale(0.015625)"/>
      <path id="ArialMT-20" transform="scale(0.015625)"/>
      <path id="ArialMT-3d" d="M 3381 2694 
L 356 2694 
L 356 3219 
L 3381 3219 
L 3381 2694 
z
M 3381 1303 
L 356 1303 
L 356 1828 
L 3381 1828 
L 3381 1303 
z
" transform="scale(0.015625)"/>
      <path id="ArialMT-2d" d="M 203 1375 
L 203 1941 
L 1931 1941 
L 1931 1375 
L 203 1375 
z
" transform="scale(0.015625)"/>
     </defs>
     <use xlink:href="#ArialMT-6c"/>
     <use xlink:href="#ArialMT-65" x="22.216797"/>
     <use xlink:href="#ArialMT-61" x="77.832031"/>
     <use xlink:href="#ArialMT-72" x="133.447266"/>
     <use xlink:href="#ArialMT-6e" x="166.748047"/>
     <use xlink:href="#ArialMT-69" x="222.363281"/>
     <use xlink:href="#ArialMT-6e" x="244.580078"/>
     <use xlink:href="#ArialMT-67" x="300.195312"/>
     <use xlink:href="#ArialMT-5f" x="355.810547"/>
     <use xlink:href="#ArialMT-72" x="411.425781"/>
     <use xlink:href="#ArialMT-61" x="444.726562"/>
     <use xlink:href="#ArialMT-74" x="500.341797"/>
     <use xlink:href="#ArialMT-65" x="528.125"/>
     <use xlink:href="#ArialMT-20" x="583.740234"/>
     <use xlink:href="#ArialMT-3d" x="611.523438"/>
     <use xlink:href="#ArialMT-20" x="669.921875"/>
     <use xlink:href="#ArialMT-31" x="697.705078"/>
     <use xlink:href="#ArialMT-65" x="753.320312"/>
     <use xlink:href="#ArialMT-2d" x="808.935547"/>
     <use xlink:href="#ArialMT-33" x="842.236328"/>
    </g>
   </g>
   <g id="legend_1">
    <g id="patch_7">
     <path d="M 1516.8 122.660937 
L 1613 122.660937 
Q 1615 122.660937 1615 120.660937 
L 1615 50.2 
Q 1615 48.2 1613 48.2 
L 1516.8 48.2 
Q 1514.8 48.2 1514.8 50.2 
L 1514.8 120.660937 
Q 1514.8 122.660937 1516.8 122.660937 
z
" style="fill: #ffffff; opacity: 0.8; stroke: #cccccc; stroke-linejoin: miter"/>
    </g>
    <g id="line2d_28">
     <path d="M 1518.8 55.8875 
L 1528.8 55.8875 
L 1538.8 55.8875 
" style="fill: none; stroke: #023eff; stroke-width: 1.5; stroke-linecap: round"/>
    </g>
    <g id="text_21">
     <!-- gamma = 0.90 -->
     <g style="fill: #262626" transform="translate(1546.8 59.3875)scale(0.1 -0.1)">
      <defs>
       <path id="ArialMT-6d" d="M 422 0 
L 422 3319 
L 925 3319 
L 925 2853 
Q 1081 3097 1340 3245 
Q 1600 3394 1931 3394 
Q 2300 3394 2536 3241 
Q 2772 3088 2869 2813 
Q 3263 3394 3894 3394 
Q 4388 3394 4653 3120 
Q 4919 2847 4919 2278 
L 4919 0 
L 4359 0 
L 4359 2091 
Q 4359 2428 4304 2576 
Q 4250 2725 4106 2815 
Q 3963 2906 3769 2906 
Q 3419 2906 3187 2673 
Q 2956 2441 2956 1928 
L 2956 0 
L 2394 0 
L 2394 2156 
Q 2394 2531 2256 2718 
Q 2119 2906 1806 2906 
Q 1569 2906 1367 2781 
Q 1166 2656 1075 2415 
Q 984 2175 984 1722 
L 984 0 
L 422 0 
z
" transform="scale(0.015625)"/>
       <path id="ArialMT-39" d="M 350 1059 
L 891 1109 
Q 959 728 1153 556 
Q 1347 384 1650 384 
Q 1909 384 2104 503 
Q 2300 622 2425 820 
Q 2550 1019 2634 1356 
Q 2719 1694 2719 2044 
Q 2719 2081 2716 2156 
Q 2547 1888 2255 1720 
Q 1963 1553 1622 1553 
Q 1053 1553 659 1965 
Q 266 2378 266 3053 
Q 266 3750 677 4175 
Q 1088 4600 1706 4600 
Q 2153 4600 2523 4359 
Q 2894 4119 3086 3673 
Q 3278 3228 3278 2384 
Q 3278 1506 3087 986 
Q 2897 466 2520 194 
Q 2144 -78 1638 -78 
Q 1100 -78 759 220 
Q 419 519 350 1059 
z
M 2653 3081 
Q 2653 3566 2395 3850 
Q 2138 4134 1775 4134 
Q 1400 4134 1122 3828 
Q 844 3522 844 3034 
Q 844 2597 1108 2323 
Q 1372 2050 1759 2050 
Q 2150 2050 2401 2323 
Q 2653 2597 2653 3081 
z
" transform="scale(0.015625)"/>
      </defs>
      <use xlink:href="#ArialMT-67"/>
      <use xlink:href="#ArialMT-61" x="55.615234"/>
      <use xlink:href="#ArialMT-6d" x="111.230469"/>
      <use xlink:href="#ArialMT-6d" x="194.53125"/>
      <use xlink:href="#ArialMT-61" x="277.832031"/>
      <use xlink:href="#ArialMT-20" x="333.447266"/>
      <use xlink:href="#ArialMT-3d" x="361.230469"/>
      <use xlink:href="#ArialMT-20" x="419.628906"/>
      <use xlink:href="#ArialMT-30" x="447.412109"/>
      <use xlink:href="#ArialMT-2e" x="503.027344"/>
      <use xlink:href="#ArialMT-39" x="530.810547"/>
      <use xlink:href="#ArialMT-30" x="586.425781"/>
     </g>
    </g>
    <g id="line2d_29">
     <path d="M 1518.8 70.179687 
L 1528.8 70.179687 
L 1538.8 70.179687 
" style="fill: none; stroke: #ff7c00; stroke-width: 1.5; stroke-linecap: round"/>
    </g>
    <g id="text_22">
     <!-- gamma = 0.93 -->
     <g style="fill: #262626" transform="translate(1546.8 73.679687)scale(0.1 -0.1)">
      <use xlink:href="#ArialMT-67"/>
      <use xlink:href="#ArialMT-61" x="55.615234"/>
      <use xlink:href="#ArialMT-6d" x="111.230469"/>
      <use xlink:href="#ArialMT-6d" x="194.53125"/>
      <use xlink:href="#ArialMT-61" x="277.832031"/>
      <use xlink:href="#ArialMT-20" x="333.447266"/>
      <use xlink:href="#ArialMT-3d" x="361.230469"/>
      <use xlink:href="#ArialMT-20" x="419.628906"/>
      <use xlink:href="#ArialMT-30" x="447.412109"/>
      <use xlink:href="#ArialMT-2e" x="503.027344"/>
      <use xlink:href="#ArialMT-39" x="530.810547"/>
      <use xlink:href="#ArialMT-33" x="586.425781"/>
     </g>
    </g>
    <g id="line2d_30">
     <path d="M 1518.8 84.471875 
L 1528.8 84.471875 
L 1538.8 84.471875 
" style="fill: none; stroke: #1ac938; stroke-width: 1.5; stroke-linecap: round"/>
    </g>
    <g id="text_23">
     <!-- gamma = 0.94 -->
     <g style="fill: #262626" transform="translate(1546.8 87.971875)scale(0.1 -0.1)">
      <use xlink:href="#ArialMT-67"/>
      <use xlink:href="#ArialMT-61" x="55.615234"/>
      <use xlink:href="#ArialMT-6d" x="111.230469"/>
      <use xlink:href="#ArialMT-6d" x="194.53125"/>
      <use xlink:href="#ArialMT-61" x="277.832031"/>
      <use xlink:href="#ArialMT-20" x="333.447266"/>
      <use xlink:href="#ArialMT-3d" x="361.230469"/>
      <use xlink:href="#ArialMT-20" x="419.628906"/>
      <use xlink:href="#ArialMT-30" x="447.412109"/>
      <use xlink:href="#ArialMT-2e" x="503.027344"/>
      <use xlink:href="#ArialMT-39" x="530.810547"/>
      <use xlink:href="#ArialMT-34" x="586.425781"/>
     </g>
    </g>
    <g id="line2d_31">
     <path d="M 1518.8 98.764062 
L 1528.8 98.764062 
L 1538.8 98.764062 
" style="fill: none; stroke: #e8000b; stroke-width: 1.5; stroke-linecap: round"/>
    </g>
    <g id="text_24">
     <!-- gamma = 0.95 -->
     <g style="fill: #262626" transform="translate(1546.8 102.264062)scale(0.1 -0.1)">
      <use xlink:href="#ArialMT-67"/>
      <use xlink:href="#ArialMT-61" x="55.615234"/>
      <use xlink:href="#ArialMT-6d" x="111.230469"/>
      <use xlink:href="#ArialMT-6d" x="194.53125"/>
      <use xlink:href="#ArialMT-61" x="277.832031"/>
      <use xlink:href="#ArialMT-20" x="333.447266"/>
      <use xlink:href="#ArialMT-3d" x="361.230469"/>
      <use xlink:href="#ArialMT-20" x="419.628906"/>
      <use xlink:href="#ArialMT-30" x="447.412109"/>
      <use xlink:href="#ArialMT-2e" x="503.027344"/>
      <use xlink:href="#ArialMT-39" x="530.810547"/>
      <use xlink:href="#ArialMT-35" x="586.425781"/>
     </g>
    </g>
    <g id="line2d_32">
     <path d="M 1518.8 113.05625 
L 1528.8 113.05625 
L 1538.8 113.05625 
" style="fill: none; stroke: #8b2be2; stroke-width: 1.5; stroke-linecap: round"/>
    </g>
    <g id="text_25">
     <!-- gamma = 0.96 -->
     <g style="fill: #262626" transform="translate(1546.8 116.55625)scale(0.1 -0.1)">
      <use xlink:href="#ArialMT-67"/>
      <use xlink:href="#ArialMT-61" x="55.615234"/>
      <use xlink:href="#ArialMT-6d" x="111.230469"/>
      <use xlink:href="#ArialMT-6d" x="194.53125"/>
      <use xlink:href="#ArialMT-61" x="277.832031"/>
      <use xlink:href="#ArialMT-20" x="333.447266"/>
      <use xlink:href="#ArialMT-3d" x="361.230469"/>
      <use xlink:href="#ArialMT-20" x="419.628906"/>
      <use xlink:href="#ArialMT-30" x="447.412109"/>
      <use xlink:href="#ArialMT-2e" x="503.027344"/>
      <use xlink:href="#ArialMT-39" x="530.810547"/>
      <use xlink:href="#ArialMT-36" x="586.425781"/>
     </g>
    </g>
   </g>
  </g>
 </g>
 <defs>
  <clipPath id="p6173107567">
   <rect x="225" y="43.2" width="1395" height="277.2"/>
  </clipPath>
 </defs>
</svg>
