<?xml version="1.0" encoding="utf-8" standalone="no"?>
<!DOCTYPE svg PUBLIC "-//W3C//DTD SVG 1.1//EN"
  "http://www.w3.org/Graphics/SVG/1.1/DTD/svg11.dtd">
<svg xmlns:xlink="http://www.w3.org/1999/xlink" width="1800pt" height="360pt" viewBox="0 0 1800 360" xmlns="http://www.w3.org/2000/svg" version="1.1">
 <metadata>
  <rdf:RDF xmlns:dc="http://purl.org/dc/elements/1.1/" xmlns:cc="http://creativecommons.org/ns#" xmlns:rdf="http://www.w3.org/1999/02/22-rdf-syntax-ns#">
   <cc:Work>
    <dc:type rdf:resource="http://purl.org/dc/dcmitype/StillImage"/>
    <dc:date>2022-04-28T15:20:33.398463</dc:date>
    <dc:format>image/svg+xml</dc:format>
    <dc:creator>
     <cc:Agent>
      <dc:title>Matplotlib v3.5.1, https://matplotlib.org/</dc:title>
     </cc:Agent>
    </dc:creator>
   </cc:Work>
  </rdf:RDF>
 </metadata>
 <defs>
  <style type="text/css">*{stroke-linejoin: round; stroke-linecap: butt}</style>
 </defs>
 <g id="figure_1">
  <g id="patch_1">
   <path d="M 0 360 
L 1800 360 
L 1800 0 
L 0 0 
z
" style="fill: #ffffff"/>
  </g>
  <g id="axes_1">
   <g id="patch_2">
    <path d="M 225 320.4 
L 1620 320.4 
L 1620 43.2 
L 225 43.2 
z
" style="fill: #ffffff"/>
   </g>
   <g id="matplotlib.axis_1">
    <g id="xtick_1">
     <g id="line2d_1">
      <path d="M 287.739925 320.4 
L 287.739925 43.2 
" clip-path="url(#pfc614fda9b)" style="fill: none; stroke: #cccccc; stroke-width: 0.8; stroke-linecap: round"/>
     </g>
     <g id="text_1">
      <!-- 0 -->
      <g style="fill: #262626" transform="translate(284.959456 334.557813)scale(0.1 -0.1)">
       <defs>
        <path id="ArialMT-30" d="M 266 2259 
Q 266 3072 433 3567 
Q 600 4063 929 4331 
Q 1259 4600 1759 4600 
Q 2128 4600 2406 4451 
Q 2684 4303 2865 4023 
Q 3047 3744 3150 3342 
Q 3253 2941 3253 2259 
Q 3253 1453 3087 958 
Q 2922 463 2592 192 
Q 2263 -78 1759 -78 
Q 1097 -78 719 397 
Q 266 969 266 2259 
z
M 844 2259 
Q 844 1131 1108 757 
Q 1372 384 1759 384 
Q 2147 384 2411 759 
Q 2675 1134 2675 2259 
Q 2675 3391 2411 3762 
Q 2147 4134 1753 4134 
Q 1366 4134 1134 3806 
Q 844 3388 844 2259 
z
" transform="scale(0.015625)"/>
       </defs>
       <use xlink:href="#ArialMT-30"/>
      </g>
     </g>
    </g>
    <g id="xtick_2">
     <g id="line2d_2">
      <path d="M 447.065253 320.4 
L 447.065253 43.2 
" clip-path="url(#pfc614fda9b)" style="fill: none; stroke: #cccccc; stroke-width: 0.8; stroke-linecap: round"/>
     </g>
     <g id="text_2">
      <!-- 10000 -->
      <g style="fill: #262626" transform="translate(433.162909 334.557813)scale(0.1 -0.1)">
       <defs>
        <path id="ArialMT-31" d="M 2384 0 
L 1822 0 
L 1822 3584 
Q 1619 3391 1289 3197 
Q 959 3003 697 2906 
L 697 3450 
Q 1169 3672 1522 3987 
Q 1875 4303 2022 4600 
L 2384 4600 
L 2384 0 
z
" transform="scale(0.015625)"/>
       </defs>
       <use xlink:href="#ArialMT-31"/>
       <use xlink:href="#ArialMT-30" x="55.615234"/>
       <use xlink:href="#ArialMT-30" x="111.230469"/>
       <use xlink:href="#ArialMT-30" x="166.845703"/>
       <use xlink:href="#ArialMT-30" x="222.460938"/>
      </g>
     </g>
    </g>
    <g id="xtick_3">
     <g id="line2d_3">
      <path d="M 606.390582 320.4 
L 606.390582 43.2 
" clip-path="url(#pfc614fda9b)" style="fill: none; stroke: #cccccc; stroke-width: 0.8; stroke-linecap: round"/>
     </g>
     <g id="text_3">
      <!-- 20000 -->
      <g style="fill: #262626" transform="translate(592.488238 334.557813)scale(0.1 -0.1)">
       <defs>
        <path id="ArialMT-32" d="M 3222 541 
L 3222 0 
L 194 0 
Q 188 203 259 391 
Q 375 700 629 1000 
Q 884 1300 1366 1694 
Q 2113 2306 2375 2664 
Q 2638 3022 2638 3341 
Q 2638 3675 2398 3904 
Q 2159 4134 1775 4134 
Q 1369 4134 1125 3890 
Q 881 3647 878 3216 
L 300 3275 
Q 359 3922 746 4261 
Q 1134 4600 1788 4600 
Q 2447 4600 2831 4234 
Q 3216 3869 3216 3328 
Q 3216 3053 3103 2787 
Q 2991 2522 2730 2228 
Q 2469 1934 1863 1422 
Q 1356 997 1212 845 
Q 1069 694 975 541 
L 3222 541 
z
" transform="scale(0.015625)"/>
       </defs>
       <use xlink:href="#ArialMT-32"/>
       <use xlink:href="#ArialMT-30" x="55.615234"/>
       <use xlink:href="#ArialMT-30" x="111.230469"/>
       <use xlink:href="#ArialMT-30" x="166.845703"/>
       <use xlink:href="#ArialMT-30" x="222.460938"/>
      </g>
     </g>
    </g>
    <g id="xtick_4">
     <g id="line2d_4">
      <path d="M 765.71591 320.4 
L 765.71591 43.2 
" clip-path="url(#pfc614fda9b)" style="fill: none; stroke: #cccccc; stroke-width: 0.8; stroke-linecap: round"/>
     </g>
     <g id="text_4">
      <!-- 30000 -->
      <g style="fill: #262626" transform="translate(751.813567 334.557813)scale(0.1 -0.1)">
       <defs>
        <path id="ArialMT-33" d="M 269 1209 
L 831 1284 
Q 928 806 1161 595 
Q 1394 384 1728 384 
Q 2125 384 2398 659 
Q 2672 934 2672 1341 
Q 2672 1728 2419 1979 
Q 2166 2231 1775 2231 
Q 1616 2231 1378 2169 
L 1441 2663 
Q 1497 2656 1531 2656 
Q 1891 2656 2178 2843 
Q 2466 3031 2466 3422 
Q 2466 3731 2256 3934 
Q 2047 4138 1716 4138 
Q 1388 4138 1169 3931 
Q 950 3725 888 3313 
L 325 3413 
Q 428 3978 793 4289 
Q 1159 4600 1703 4600 
Q 2078 4600 2393 4439 
Q 2709 4278 2876 4000 
Q 3044 3722 3044 3409 
Q 3044 3113 2884 2869 
Q 2725 2625 2413 2481 
Q 2819 2388 3044 2092 
Q 3269 1797 3269 1353 
Q 3269 753 2831 336 
Q 2394 -81 1725 -81 
Q 1122 -81 723 278 
Q 325 638 269 1209 
z
" transform="scale(0.015625)"/>
       </defs>
       <use xlink:href="#ArialMT-33"/>
       <use xlink:href="#ArialMT-30" x="55.615234"/>
       <use xlink:href="#ArialMT-30" x="111.230469"/>
       <use xlink:href="#ArialMT-30" x="166.845703"/>
       <use xlink:href="#ArialMT-30" x="222.460938"/>
      </g>
     </g>
    </g>
    <g id="xtick_5">
     <g id="line2d_5">
      <path d="M 925.041239 320.4 
L 925.041239 43.2 
" clip-path="url(#pfc614fda9b)" style="fill: none; stroke: #cccccc; stroke-width: 0.8; stroke-linecap: round"/>
     </g>
     <g id="text_5">
      <!-- 40000 -->
      <g style="fill: #262626" transform="translate(911.138895 334.557813)scale(0.1 -0.1)">
       <defs>
        <path id="ArialMT-34" d="M 2069 0 
L 2069 1097 
L 81 1097 
L 81 1613 
L 2172 4581 
L 2631 4581 
L 2631 1613 
L 3250 1613 
L 3250 1097 
L 2631 1097 
L 2631 0 
L 2069 0 
z
M 2069 1613 
L 2069 3678 
L 634 1613 
L 2069 1613 
z
" transform="scale(0.015625)"/>
       </defs>
       <use xlink:href="#ArialMT-34"/>
       <use xlink:href="#ArialMT-30" x="55.615234"/>
       <use xlink:href="#ArialMT-30" x="111.230469"/>
       <use xlink:href="#ArialMT-30" x="166.845703"/>
       <use xlink:href="#ArialMT-30" x="222.460938"/>
      </g>
     </g>
    </g>
    <g id="xtick_6">
     <g id="line2d_6">
      <path d="M 1084.366568 320.4 
L 1084.366568 43.2 
" clip-path="url(#pfc614fda9b)" style="fill: none; stroke: #cccccc; stroke-width: 0.8; stroke-linecap: round"/>
     </g>
     <g id="text_6">
      <!-- 50000 -->
      <g style="fill: #262626" transform="translate(1070.464224 334.557813)scale(0.1 -0.1)">
       <defs>
        <path id="ArialMT-35" d="M 266 1200 
L 856 1250 
Q 922 819 1161 601 
Q 1400 384 1738 384 
Q 2144 384 2425 690 
Q 2706 997 2706 1503 
Q 2706 1984 2436 2262 
Q 2166 2541 1728 2541 
Q 1456 2541 1237 2417 
Q 1019 2294 894 2097 
L 366 2166 
L 809 4519 
L 3088 4519 
L 3088 3981 
L 1259 3981 
L 1013 2750 
Q 1425 3038 1878 3038 
Q 2478 3038 2890 2622 
Q 3303 2206 3303 1553 
Q 3303 931 2941 478 
Q 2500 -78 1738 -78 
Q 1113 -78 717 272 
Q 322 622 266 1200 
z
" transform="scale(0.015625)"/>
       </defs>
       <use xlink:href="#ArialMT-35"/>
       <use xlink:href="#ArialMT-30" x="55.615234"/>
       <use xlink:href="#ArialMT-30" x="111.230469"/>
       <use xlink:href="#ArialMT-30" x="166.845703"/>
       <use xlink:href="#ArialMT-30" x="222.460938"/>
      </g>
     </g>
    </g>
    <g id="xtick_7">
     <g id="line2d_7">
      <path d="M 1243.691896 320.4 
L 1243.691896 43.2 
" clip-path="url(#pfc614fda9b)" style="fill: none; stroke: #cccccc; stroke-width: 0.8; stroke-linecap: round"/>
     </g>
     <g id="text_7">
      <!-- 60000 -->
      <g style="fill: #262626" transform="translate(1229.789552 334.557813)scale(0.1 -0.1)">
       <defs>
        <path id="ArialMT-36" d="M 3184 3459 
L 2625 3416 
Q 2550 3747 2413 3897 
Q 2184 4138 1850 4138 
Q 1581 4138 1378 3988 
Q 1113 3794 959 3422 
Q 806 3050 800 2363 
Q 1003 2672 1297 2822 
Q 1591 2972 1913 2972 
Q 2475 2972 2870 2558 
Q 3266 2144 3266 1488 
Q 3266 1056 3080 686 
Q 2894 316 2569 119 
Q 2244 -78 1831 -78 
Q 1128 -78 684 439 
Q 241 956 241 2144 
Q 241 3472 731 4075 
Q 1159 4600 1884 4600 
Q 2425 4600 2770 4297 
Q 3116 3994 3184 3459 
z
M 888 1484 
Q 888 1194 1011 928 
Q 1134 663 1356 523 
Q 1578 384 1822 384 
Q 2178 384 2434 671 
Q 2691 959 2691 1453 
Q 2691 1928 2437 2201 
Q 2184 2475 1800 2475 
Q 1419 2475 1153 2201 
Q 888 1928 888 1484 
z
" transform="scale(0.015625)"/>
       </defs>
       <use xlink:href="#ArialMT-36"/>
       <use xlink:href="#ArialMT-30" x="55.615234"/>
       <use xlink:href="#ArialMT-30" x="111.230469"/>
       <use xlink:href="#ArialMT-30" x="166.845703"/>
       <use xlink:href="#ArialMT-30" x="222.460938"/>
      </g>
     </g>
    </g>
    <g id="xtick_8">
     <g id="line2d_8">
      <path d="M 1403.017225 320.4 
L 1403.017225 43.2 
" clip-path="url(#pfc614fda9b)" style="fill: none; stroke: #cccccc; stroke-width: 0.8; stroke-linecap: round"/>
     </g>
     <g id="text_8">
      <!-- 70000 -->
      <g style="fill: #262626" transform="translate(1389.114881 334.557813)scale(0.1 -0.1)">
       <defs>
        <path id="ArialMT-37" d="M 303 3981 
L 303 4522 
L 3269 4522 
L 3269 4084 
Q 2831 3619 2401 2847 
Q 1972 2075 1738 1259 
Q 1569 684 1522 0 
L 944 0 
Q 953 541 1156 1306 
Q 1359 2072 1739 2783 
Q 2119 3494 2547 3981 
L 303 3981 
z
" transform="scale(0.015625)"/>
       </defs>
       <use xlink:href="#ArialMT-37"/>
       <use xlink:href="#ArialMT-30" x="55.615234"/>
       <use xlink:href="#ArialMT-30" x="111.230469"/>
       <use xlink:href="#ArialMT-30" x="166.845703"/>
       <use xlink:href="#ArialMT-30" x="222.460938"/>
      </g>
     </g>
    </g>
    <g id="xtick_9">
     <g id="line2d_9">
      <path d="M 1562.342553 320.4 
L 1562.342553 43.2 
" clip-path="url(#pfc614fda9b)" style="fill: none; stroke: #cccccc; stroke-width: 0.8; stroke-linecap: round"/>
     </g>
     <g id="text_9">
      <!-- 80000 -->
      <g style="fill: #262626" transform="translate(1548.44021 334.557813)scale(0.1 -0.1)">
       <defs>
        <path id="ArialMT-38" d="M 1131 2484 
Q 781 2613 612 2850 
Q 444 3088 444 3419 
Q 444 3919 803 4259 
Q 1163 4600 1759 4600 
Q 2359 4600 2725 4251 
Q 3091 3903 3091 3403 
Q 3091 3084 2923 2848 
Q 2756 2613 2416 2484 
Q 2838 2347 3058 2040 
Q 3278 1734 3278 1309 
Q 3278 722 2862 322 
Q 2447 -78 1769 -78 
Q 1091 -78 675 323 
Q 259 725 259 1325 
Q 259 1772 486 2073 
Q 713 2375 1131 2484 
z
M 1019 3438 
Q 1019 3113 1228 2906 
Q 1438 2700 1772 2700 
Q 2097 2700 2305 2904 
Q 2513 3109 2513 3406 
Q 2513 3716 2298 3927 
Q 2084 4138 1766 4138 
Q 1444 4138 1231 3931 
Q 1019 3725 1019 3438 
z
M 838 1322 
Q 838 1081 952 856 
Q 1066 631 1291 507 
Q 1516 384 1775 384 
Q 2178 384 2440 643 
Q 2703 903 2703 1303 
Q 2703 1709 2433 1975 
Q 2163 2241 1756 2241 
Q 1359 2241 1098 1978 
Q 838 1716 838 1322 
z
" transform="scale(0.015625)"/>
       </defs>
       <use xlink:href="#ArialMT-38"/>
       <use xlink:href="#ArialMT-30" x="55.615234"/>
       <use xlink:href="#ArialMT-30" x="111.230469"/>
       <use xlink:href="#ArialMT-30" x="166.845703"/>
       <use xlink:href="#ArialMT-30" x="222.460938"/>
      </g>
     </g>
    </g>
    <g id="text_10">
     <!-- 训练周期 -->
     <g style="fill: #262626" transform="translate(898.5 350.014063)scale(0.12 -0.12)">
      <defs>
       <path id="SimSun-8bad" d="M 3925 4575 
L 4475 4350 
L 4275 4200 
L 4275 1050 
Q 4275 825 4300 275 
L 3925 75 
Q 3950 1050 3950 2362 
Q 3950 3675 3925 4575 
z
M 5150 5025 
L 5700 4800 
L 5500 4625 
L 5500 725 
Q 5500 225 5525 -350 
L 5150 -550 
Q 5175 -75 5175 500 
L 5175 4125 
Q 5175 4400 5150 5025 
z
M 950 4875 
L 1000 4925 
Q 1500 4675 1662 4525 
Q 1825 4375 1800 4200 
Q 1775 4025 1700 3950 
Q 1625 3875 1575 3875 
Q 1500 3875 1425 4100 
Q 1325 4400 950 4875 
z
M 1625 700 
L 2400 1525 
L 2450 1475 
Q 1750 525 1525 0 
L 1200 400 
Q 1325 525 1300 725 
L 1300 2850 
L 1025 2850 
Q 825 2850 550 2775 
L 325 3000 
L 1275 3000 
L 1450 3250 
L 1825 2925 
L 1625 2775 
L 1625 700 
z
M 2775 5000 
L 3350 4750 
L 3150 4550 
Q 3150 3125 3137 2300 
Q 3125 1475 2812 750 
Q 2500 25 1575 -625 
L 1500 -575 
Q 2300 175 2550 900 
Q 2800 1625 2800 2650 
Q 2800 3675 2775 5000 
z
" transform="scale(0.015625)"/>
       <path id="SimSun-7ec3" d="M 700 3175 
L 1775 3250 
Q 1950 3525 2125 3925 
L 2600 3550 
L 2375 3475 
Q 1575 2500 775 1650 
Q 1425 1725 2350 1900 
L 2375 1800 
Q 875 1400 650 1125 
L 325 1650 
Q 550 1725 800 1987 
Q 1050 2250 1675 3100 
Q 1375 3075 1087 2987 
Q 800 2900 625 2725 
L 325 3225 
Q 550 3275 887 3900 
Q 1225 4525 1425 5225 
L 1975 4900 
L 1700 4750 
Q 1225 3975 700 3175 
z
M 300 375 
Q 1250 625 2425 1000 
L 2450 900 
Q 1550 500 750 75 
L 600 -100 
L 300 375 
z
M 2700 2250 
Q 2900 2550 3100 3075 
Q 2975 3075 2700 3000 
L 2475 3225 
L 3150 3225 
L 3500 4125 
L 3125 4125 
Q 2800 4125 2525 4050 
L 2300 4275 
L 3550 4275 
Q 3775 5000 3800 5250 
L 4325 4950 
L 4100 4825 
Q 4025 4650 3875 4275 
L 5125 4275 
L 5450 4600 
L 5900 4125 
L 3825 4125 
L 3475 3225 
L 4250 3225 
L 4425 3450 
L 4825 3150 
L 4625 3000 
L 4625 2100 
L 5300 2100 
L 5600 2400 
L 6050 1950 
L 4625 1950 
L 4625 150 
Q 4650 -450 4025 -600 
Q 4025 -225 3300 -50 
L 3300 50 
Q 3900 0 4100 0 
Q 4300 0 4300 275 
L 4300 1950 
L 2975 1950 
L 2800 1775 
L 2475 2125 
L 2700 2250 
z
M 3450 1025 
Q 2650 0 1900 -500 
L 1825 -425 
Q 2275 0 2600 450 
Q 2925 900 3175 1475 
L 3675 1100 
L 3450 1025 
z
M 4900 1375 
Q 5775 825 5937 637 
Q 6100 450 6100 275 
Q 6100 125 6025 -37 
Q 5950 -200 5900 -200 
Q 5825 -200 5700 125 
Q 5525 575 4850 1300 
L 4900 1375 
z
M 3425 3075 
Q 3225 2625 2950 2100 
L 4300 2100 
L 4300 3075 
L 3425 3075 
z
" transform="scale(0.015625)"/>
       <path id="SimSun-5468" d="M 275 -500 
Q 800 275 1000 1025 
Q 1200 1775 1200 2925 
Q 1200 4075 1175 5100 
L 1550 4875 
L 5025 4875 
L 5225 5125 
L 5650 4825 
L 5425 4625 
L 5425 275 
Q 5475 -300 4875 -525 
Q 4875 -225 4125 -25 
L 4125 100 
Q 4650 25 4875 37 
Q 5100 50 5100 350 
L 5100 4725 
L 1550 4725 
Q 1550 3000 1525 2300 
Q 1500 1600 1250 862 
Q 1000 125 350 -550 
L 275 -500 
z
M 3100 3650 
Q 3100 4225 3075 4575 
L 3625 4325 
L 3425 4175 
L 3425 3650 
L 3950 3650 
L 4225 3925 
L 4650 3500 
L 3425 3500 
L 3425 2750 
L 4200 2750 
L 4500 3050 
L 4950 2600 
L 2475 2600 
Q 2150 2600 1875 2525 
L 1650 2750 
L 3100 2750 
L 3100 3500 
L 2800 3500 
Q 2475 3500 2200 3425 
L 1975 3650 
L 3100 3650 
z
M 2250 200 
Q 2275 600 2275 1212 
Q 2275 1825 2250 2250 
L 2625 2025 
L 3975 2025 
L 4150 2275 
L 4525 1950 
L 4325 1800 
Q 4325 850 4350 450 
L 4000 300 
L 4000 700 
L 2600 700 
L 2600 350 
L 2250 200 
z
M 2600 1875 
L 2600 850 
L 4000 850 
L 4000 1875 
L 2600 1875 
z
" transform="scale(0.015625)"/>
       <path id="SimSun-671f" d="M 1575 3975 
L 1575 3325 
L 2600 3325 
L 2600 3975 
L 1575 3975 
z
M 1575 3175 
L 1575 2425 
L 2600 2425 
L 2600 3175 
L 1575 3175 
z
M 1575 2275 
L 1575 1500 
L 2600 1500 
L 2600 2275 
L 1575 2275 
z
M 1225 4125 
Q 1225 4750 1200 5175 
L 1775 4850 
L 1575 4700 
L 1575 4125 
L 2600 4125 
Q 2600 4575 2575 5175 
L 3150 4875 
L 2950 4725 
L 2950 4125 
L 3025 4125 
L 3300 4400 
L 3725 3975 
L 2950 3975 
L 2950 1500 
L 2975 1500 
L 3250 1775 
L 3675 1350 
L 950 1350 
L 600 1300 
L 400 1500 
L 1225 1500 
L 1225 3975 
L 1000 3975 
L 650 3925 
L 450 4125 
L 1225 4125 
z
M 1550 1250 
L 2000 850 
L 1775 775 
Q 1100 -25 375 -475 
L 325 -400 
Q 700 -50 1012 350 
Q 1325 750 1550 1250 
z
M 2375 1150 
Q 2975 825 3075 700 
Q 3175 575 3175 475 
Q 3175 350 3100 225 
Q 3025 100 2975 100 
Q 2900 100 2825 300 
Q 2700 625 2325 1100 
L 2375 1150 
z
M 4225 4550 
L 4225 3300 
L 5450 3300 
L 5450 4550 
L 4225 4550 
z
M 4225 3150 
Q 4225 2450 4200 1875 
L 5450 1875 
L 5450 3150 
L 4225 3150 
z
M 4550 50 
Q 5025 -25 5237 -37 
Q 5450 -50 5450 225 
L 5450 1725 
L 4200 1725 
Q 4150 850 3737 300 
Q 3325 -250 2700 -625 
L 2650 -550 
Q 3075 -200 3350 212 
Q 3625 625 3750 1175 
Q 3875 1725 3875 3000 
Q 3875 4275 3850 4925 
L 4225 4700 
L 5400 4700 
L 5575 4950 
L 5975 4650 
L 5800 4475 
L 5800 125 
Q 5825 -375 5250 -575 
Q 5250 -250 4550 -50 
L 4550 50 
z
" transform="scale(0.015625)"/>
      </defs>
      <use xlink:href="#SimSun-8bad"/>
      <use xlink:href="#SimSun-7ec3" x="100"/>
      <use xlink:href="#SimSun-5468" x="200"/>
      <use xlink:href="#SimSun-671f" x="300"/>
     </g>
    </g>
   </g>
   <g id="matplotlib.axis_2">
    <g id="ytick_1">
     <g id="line2d_10">
      <path d="M 225 307.8 
L 1620 307.8 
" clip-path="url(#pfc614fda9b)" style="fill: none; stroke: #cccccc; stroke-width: 0.8; stroke-linecap: round"/>
     </g>
     <g id="text_11">
      <!-- 0 -->
      <g style="fill: #262626" transform="translate(212.439063 311.378906)scale(0.1 -0.1)">
       <use xlink:href="#ArialMT-30"/>
      </g>
     </g>
    </g>
    <g id="ytick_2">
     <g id="line2d_11">
      <path d="M 225 268.950465 
L 1620 268.950465 
" clip-path="url(#pfc614fda9b)" style="fill: none; stroke: #cccccc; stroke-width: 0.8; stroke-linecap: round"/>
     </g>
     <g id="text_12">
      <!-- 5000 -->
      <g style="fill: #262626" transform="translate(195.75625 272.529371)scale(0.1 -0.1)">
       <use xlink:href="#ArialMT-35"/>
       <use xlink:href="#ArialMT-30" x="55.615234"/>
       <use xlink:href="#ArialMT-30" x="111.230469"/>
       <use xlink:href="#ArialMT-30" x="166.845703"/>
      </g>
     </g>
    </g>
    <g id="ytick_3">
     <g id="line2d_12">
      <path d="M 225 230.100929 
L 1620 230.100929 
" clip-path="url(#pfc614fda9b)" style="fill: none; stroke: #cccccc; stroke-width: 0.8; stroke-linecap: round"/>
     </g>
     <g id="text_13">
      <!-- 10000 -->
      <g style="fill: #262626" transform="translate(190.195312 233.679835)scale(0.1 -0.1)">
       <use xlink:href="#ArialMT-31"/>
       <use xlink:href="#ArialMT-30" x="55.615234"/>
       <use xlink:href="#ArialMT-30" x="111.230469"/>
       <use xlink:href="#ArialMT-30" x="166.845703"/>
       <use xlink:href="#ArialMT-30" x="222.460938"/>
      </g>
     </g>
    </g>
    <g id="ytick_4">
     <g id="line2d_13">
      <path d="M 225 191.251394 
L 1620 191.251394 
" clip-path="url(#pfc614fda9b)" style="fill: none; stroke: #cccccc; stroke-width: 0.8; stroke-linecap: round"/>
     </g>
     <g id="text_14">
      <!-- 15000 -->
      <g style="fill: #262626" transform="translate(190.195312 194.8303)scale(0.1 -0.1)">
       <use xlink:href="#ArialMT-31"/>
       <use xlink:href="#ArialMT-35" x="55.615234"/>
       <use xlink:href="#ArialMT-30" x="111.230469"/>
       <use xlink:href="#ArialMT-30" x="166.845703"/>
       <use xlink:href="#ArialMT-30" x="222.460938"/>
      </g>
     </g>
    </g>
    <g id="ytick_5">
     <g id="line2d_14">
      <path d="M 225 152.401858 
L 1620 152.401858 
" clip-path="url(#pfc614fda9b)" style="fill: none; stroke: #cccccc; stroke-width: 0.8; stroke-linecap: round"/>
     </g>
     <g id="text_15">
      <!-- 20000 -->
      <g style="fill: #262626" transform="translate(190.195312 155.980764)scale(0.1 -0.1)">
       <use xlink:href="#ArialMT-32"/>
       <use xlink:href="#ArialMT-30" x="55.615234"/>
       <use xlink:href="#ArialMT-30" x="111.230469"/>
       <use xlink:href="#ArialMT-30" x="166.845703"/>
       <use xlink:href="#ArialMT-30" x="222.460938"/>
      </g>
     </g>
    </g>
    <g id="ytick_6">
     <g id="line2d_15">
      <path d="M 225 113.552323 
L 1620 113.552323 
" clip-path="url(#pfc614fda9b)" style="fill: none; stroke: #cccccc; stroke-width: 0.8; stroke-linecap: round"/>
     </g>
     <g id="text_16">
      <!-- 25000 -->
      <g style="fill: #262626" transform="translate(190.195312 117.131229)scale(0.1 -0.1)">
       <use xlink:href="#ArialMT-32"/>
       <use xlink:href="#ArialMT-35" x="55.615234"/>
       <use xlink:href="#ArialMT-30" x="111.230469"/>
       <use xlink:href="#ArialMT-30" x="166.845703"/>
       <use xlink:href="#ArialMT-30" x="222.460938"/>
      </g>
     </g>
    </g>
    <g id="ytick_7">
     <g id="line2d_16">
      <path d="M 225 74.702787 
L 1620 74.702787 
" clip-path="url(#pfc614fda9b)" style="fill: none; stroke: #cccccc; stroke-width: 0.8; stroke-linecap: round"/>
     </g>
     <g id="text_17">
      <!-- 30000 -->
      <g style="fill: #262626" transform="translate(190.195312 78.281693)scale(0.1 -0.1)">
       <use xlink:href="#ArialMT-33"/>
       <use xlink:href="#ArialMT-30" x="55.615234"/>
       <use xlink:href="#ArialMT-30" x="111.230469"/>
       <use xlink:href="#ArialMT-30" x="166.845703"/>
       <use xlink:href="#ArialMT-30" x="222.460938"/>
      </g>
     </g>
    </g>
    <g id="text_18">
     <!-- 损失 -->
     <g style="fill: #262626" transform="translate(184.648438 193.8)rotate(-90)scale(0.12 -0.12)">
      <defs>
       <path id="SimSun-635f" d="M 1450 3725 
Q 1450 4700 1425 5175 
L 2050 4900 
L 1800 4725 
L 1800 3725 
L 2050 3725 
L 2325 4000 
L 2750 3575 
L 1800 3575 
L 1800 2625 
L 2525 3050 
L 2575 2975 
L 1800 2400 
L 1800 50 
Q 1800 -325 1275 -550 
Q 1325 -225 575 -25 
L 575 75 
Q 1050 25 1262 12 
Q 1475 0 1450 375 
L 1450 2150 
Q 725 1650 625 1425 
L 250 1850 
Q 525 1925 1450 2475 
L 1450 3575 
L 750 3575 
L 475 3525 
L 275 3725 
L 1450 3725 
z
M 3050 3275 
Q 3075 3700 3075 4087 
Q 3075 4475 3050 4925 
L 3400 4725 
L 4975 4725 
L 5150 4925 
L 5525 4650 
L 5325 4500 
Q 5325 3850 5350 3475 
L 5000 3325 
L 5000 3550 
L 3400 3550 
L 3400 3400 
L 3050 3275 
z
M 3400 4575 
L 3400 3700 
L 5000 3700 
L 5000 4575 
L 3400 4575 
z
M 5575 2575 
Q 5575 1300 5600 825 
L 5250 700 
L 5250 2650 
L 3150 2650 
L 3150 725 
L 2800 575 
Q 2825 1175 2825 1862 
Q 2825 2550 2800 3000 
L 3150 2800 
L 5200 2800 
L 5375 3050 
L 5800 2750 
L 5575 2575 
z
M 3925 2375 
L 4500 2100 
L 4300 1950 
Q 4200 825 3650 237 
Q 3100 -350 1875 -600 
L 1850 -525 
Q 2700 -250 3175 162 
Q 3650 575 3787 1150 
Q 3925 1725 3925 2375 
z
M 4175 700 
Q 5175 375 5525 200 
Q 5875 25 5875 -187 
Q 5875 -400 5825 -475 
Q 5775 -550 5750 -550 
Q 5675 -550 5525 -375 
Q 5325 -125 4975 125 
Q 4625 375 4150 625 
L 4175 700 
z
" transform="scale(0.015625)"/>
       <path id="SimSun-5931" d="M 950 2525 
L 875 2575 
Q 1425 3600 1550 4675 
L 2125 4375 
Q 1900 4275 1700 3750 
L 3000 3750 
L 3000 4550 
Q 3000 4850 2975 5225 
L 3625 4925 
L 3375 4750 
L 3375 3750 
L 4575 3750 
L 4925 4100 
L 5425 3600 
L 3375 3600 
Q 3325 2875 3250 2325 
L 5025 2325 
L 5425 2725 
L 5975 2175 
L 3525 2175 
Q 4050 1050 4775 512 
Q 5500 -25 6075 -100 
L 6075 -200 
Q 5600 -275 5500 -550 
Q 4925 -225 4325 450 
Q 3725 1125 3400 2175 
L 3225 2175 
Q 2950 1025 2287 400 
Q 1625 -225 450 -600 
L 400 -525 
Q 1400 -100 1975 475 
Q 2550 1050 2850 2175 
L 1300 2175 
Q 975 2175 700 2100 
L 475 2325 
L 2875 2325 
Q 2975 2975 3000 3600 
L 1650 3600 
Q 1300 2925 950 2525 
z
" transform="scale(0.015625)"/>
      </defs>
      <use xlink:href="#SimSun-635f"/>
      <use xlink:href="#SimSun-5931" x="100"/>
     </g>
    </g>
   </g>
   <g id="line2d_17">
    <path d="M 288.409091 307.799722 
L 1556.590909 307.8 
L 1556.590909 307.8 
" clip-path="url(#pfc614fda9b)" style="fill: none; stroke: #023eff; stroke-width: 1.5; stroke-linecap: round"/>
   </g>
   <g id="line2d_18">
    <path d="M 288.409091 307.799736 
L 1556.590909 307.8 
L 1556.590909 307.8 
" clip-path="url(#pfc614fda9b)" style="fill: none; stroke: #ff7c00; stroke-width: 1.5; stroke-linecap: round"/>
   </g>
   <g id="line2d_19">
    <path d="M 288.409091 307.799741 
L 1556.590909 307.79999 
L 1556.590909 307.79999 
" clip-path="url(#pfc614fda9b)" style="fill: none; stroke: #1ac938; stroke-width: 1.5; stroke-linecap: round"/>
   </g>
   <g id="line2d_20">
    <path d="M 288.409091 307.799745 
L 857.662558 307.710867 
L 857.774085 307.687005 
L 949.561407 307.113469 
L 949.816328 306.99592 
L 962.307433 306.857185 
L 964.36273 306.723364 
L 969.26995 306.789131 
L 972.265266 306.722885 
L 972.536119 306.536515 
L 973.157488 306.409176 
L 981.09189 306.304322 
L 982.509885 305.955877 
L 983.019726 306.114391 
L 984.166868 306.144526 
L 984.660777 306.030703 
L 988.38899 306.132327 
L 988.45272 306.1833 
L 988.659843 306.113636 
L 989.998175 306.108849 
L 990.571747 305.937286 
L 999.047854 306.130236 
L 1001.549262 305.809441 
L 1001.772317 305.650603 
L 1004.130332 305.585878 
L 1006.360887 305.327385 
L 1009.642988 305.235576 
L 1009.786381 305.455813 
L 1010.630806 305.483926 
L 1012.781697 305.206011 
L 1013.355269 305.354903 
L 1015.18751 305.23942 
L 1018.628937 305.563405 
L 1021.16221 305.163451 
L 1022.070364 305.139255 
L 1022.61207 304.826471 
L 1023.329034 304.804372 
L 1023.902605 304.347292 
L 1025.702982 304.436371 
L 1025.957902 304.662814 
L 1027.216572 304.390251 
L 1028.58677 303.946276 
L 1031.725479 303.863849 
L 1039.723611 303.871699 
L 1040.408709 303.735195 
L 1041.683312 303.375724 
L 1042.097558 303.024007 
L 1043.531486 302.386808 
L 1044.359978 302.753881 
L 1045.31593 302.275221 
L 1045.889501 302.531937 
L 1046.733925 302.647914 
L 1046.797655 302.948277 
L 1047.227834 303.424929 
L 1047.610214 303.505137 
L 1047.801405 303.376577 
L 1048.422773 303.371913 
L 1048.645829 303.485283 
L 1050.717058 303.473443 
L 1051.657078 303.122681 
L 1052.023526 302.829363 
L 1053.712374 302.769411 
L 1055.38529 302.983584 
L 1055.640211 302.179601 
L 1056.118187 302.034982 
L 1060.818284 301.314132 
L 1065.94856 301.285264 
L 1068.147249 301.58696 
L 1072.767684 301.486239 
L 1073.62804 301.859472 
L 1074.026354 302.22252 
L 1076.033853 302.428632 
L 1077.324388 301.738622 
L 1078.296273 301.547407 
L 1078.598991 300.906315 
L 1085.258789 299.541614 
L 1086.740515 299.542501 
L 1087.473412 300.028545 
L 1088.636486 300.382411 
L 1090.452795 300.719905 
L 1091.854858 300.796781 
L 1092.93827 300.701827 
L 1094.419996 299.19535 
L 1094.515591 299.420428 
L 1097.415312 298.999863 
L 1100.538088 299.241828 
L 1102.43406 298.692567 
L 1103.915785 297.984943 
L 1104.792075 298.212152 
L 1105.748027 298.725184 
L 1107.261617 298.794419 
L 1112.2485 299.303626 
L 1112.949532 299.119261 
L 1113.140722 300.227739 
L 1115.498737 299.627039 
L 1116.247566 299.566862 
L 1117.299113 299.625216 
L 1117.330978 299.478283 
L 1120.007644 299.628084 
L 1120.883933 299.368007 
L 1121.855817 299.766589 
L 1122.397524 299.370661 
L 1124.357225 299.116319 
L 1124.644011 299.237885 
L 1126.444387 298.690768 
L 1127.097621 299.175721 
L 1129.009525 298.609395 
L 1130.666508 297.763632 
L 1131.192282 297.095705 
L 1132.211964 297.228061 
L 1132.371289 297.847906 
L 1133.629959 298.088175 
L 1133.868947 298.009774 
L 1134.458451 297.101841 
L 1138.553112 297.224523 
L 1138.680572 296.031117 
L 1139.843647 297.050675 
L 1142.488447 295.838239 
L 1143.524062 296.492713 
L 1143.651522 293.661905 
L 1145.89801 294.291478 
L 1146.423783 294.75571 
L 1146.599041 292.550036 
L 1149.243841 291.546432 
L 1149.482829 291.899 
L 1150.056401 293.973157 
L 1151.936439 293.524237 
L 1153.959871 294.264322 
L 1155.521259 291.808868 
L 1158.054532 290.827854 
L 1159.106079 288.07769 
L 1159.55219 289.460397 
L 1160.954253 288.786963 
L 1163.025482 289.750458 
L 1167.104211 290.362327 
L 1168.793059 290.381573 
L 1168.840857 289.996396 
L 1169.255103 290.469967 
L 1169.749011 291.937122 
L 1172.600935 291.345861 
L 1172.808058 293.083369 
L 1175.389128 293.745441 
L 1176.695596 290.990619 
L 1177.890536 289.798189 
L 1179.420059 290.5059 
L 1181.411625 289.971697 
L 1184.805255 288.326455 
L 1186.000195 286.854435 
L 1186.844619 286.951758 
L 1188.039559 287.508528 
L 1188.262614 287.851823 
L 1188.374142 287.523567 
L 1189.648745 286.551481 
L 1192.500668 286.609632 
L 1193.026442 285.483733 
L 1193.600013 286.735722 
L 1195.878365 288.203139 
L 1196.467869 287.636192 
L 1199.670308 288.883403 
L 1200.052689 287.435221 
L 1200.658125 285.600124 
L 1200.75372 286.090112 
L 1203.366656 286.50427 
L 1203.605644 287.311358 
L 1204.14735 287.946447 
L 1208.003023 288.78777 
L 1209.755601 288.452136 
L 1213.260758 286.504808 
L 1216.526928 287.403164 
L 1217.339487 282.851751 
L 1218.837145 283.776989 
L 1220.685319 285.44702 
L 1221.561608 286.721542 
L 1222.039584 285.374236 
L 1222.103314 282.902707 
L 1223.282322 277.685284 
L 1223.7125 277.681193 
L 1223.983353 278.784371 
L 1224.381666 279.014357 
L 1227.982419 279.212295 
L 1228.332935 281.495925 
L 1231.965552 283.077154 
L 1232.714381 281.559263 
L 1234.642218 282.757411 
L 1236.936502 283.479713 
L 1237.701264 278.659477 
L 1237.956184 275.386439 
L 1238.43416 274.542112 
L 1239.50164 274.12254 
L 1239.724696 270.441479 
L 1241.923385 271.599195 
L 1245.062094 272.732499 
L 1246.54382 275.318674 
L 1246.639415 273.867262 
L 1246.989931 274.725782 
L 1250.033044 277.307652 
L 1251.259849 275.094509 
L 1251.70596 275.972486 
L 1254.382626 279.327749 
L 1255.41824 280.744235 
L 1257.569132 279.845246 
L 1259.974945 281.490371 
L 1261.568198 282.026894 
L 1262.890598 277.262825 
L 1264.021808 274.455766 
L 1265.567264 275.178683 
L 1265.758454 275.714601 
L 1266.204565 273.784003 
L 1266.602878 268.425756 
L 1268.132402 268.998442 
L 1270.458551 267.854771 
L 1271.526031 269.961432 
L 1277.771584 269.575742 
L 1278.18583 270.980293 
L 1279.046187 267.715449 
L 1281.675055 267.452271 
L 1283.778149 266.486063 
L 1284.399518 262.387897 
L 1289.481996 262.603178 
L 1290.422015 264.70009 
L 1290.868126 267.446902 
L 1291.871876 269.268624 
L 1294.994652 261.396611 
L 1298.308619 255.003042 
L 1298.324551 255.575924 
L 1299.662884 258.03584 
L 1301.27207 261.639296 
L 1302.132427 264.734963 
L 1302.180224 265.376933 
L 1303.932803 265.365981 
L 1304.761295 265.533024 
L 1305.271136 266.292733 
L 1307.230837 266.454679 
L 1308.712563 265.45352 
L 1308.983416 268.208969 
L 1309.477324 263.890888 
L 1310.178356 264.483528 
L 1311.006848 264.309399 
L 1315.563552 254.293132 
L 1315.722877 255.723124 
L 1315.754742 254.287899 
L 1318.367678 250.820872 
L 1321.586049 250.523406 
L 1323.354561 253.276471 
L 1323.800671 255.243764 
L 1324.214917 250.395672 
L 1327.258031 251.658626 
L 1327.720075 253.514036 
L 1328.00686 251.732602 
L 1328.930947 252.794163 
L 1329.32926 251.071891 
L 1330.5242 252.443064 
L 1331.018109 252.003238 
L 1331.352692 253.397476 
L 1331.751005 253.254569 
L 1332.930013 254.061735 
L 1333.599179 254.821374 
L 1334.650726 254.989366 
L 1336.036857 257.772006 
L 1337.805368 259.658852 
L 1338.458602 259.015534 
L 1339.924395 260.330856 
L 1340.067788 252.248168 
L 1344.034988 253.464337 
L 1347.795066 246.051457 
L 1349.595442 247.20251 
L 1351.825997 243.684405 
L 1354.391135 247.136679 
L 1354.837245 247.432244 
L 1354.964706 245.926298 
L 1355.554209 245.496635 
L 1359.505478 238.308708 
L 1362.229941 240.087373 
L 1362.771647 234.205228 
L 1363.393016 235.847871 
L 1366.547657 237.427461 
L 1372.347099 237.230972 
L 1375.342415 240.497005 
L 1375.358348 230.950074 
L 1375.629201 228.061252 
L 1376.56922 230.865326 
L 1377.174657 235.050543 
L 1377.987216 238.661933 
L 1379.309616 238.63021 
L 1380.552354 226.915495 
L 1382.161539 225.354639 
L 1384.121241 224.469538 
L 1385.953482 219.494893 
L 1386.893502 222.42671 
L 1389.809155 225.947104 
L 1389.825088 228.539305 
L 1390.032211 227.210704 
L 1392.278698 227.158072 
L 1393.075324 230.755031 
L 1394.333994 232.556715 
L 1396.978795 223.98273 
L 1398.062207 228.347101 
L 1398.540183 132.687794 
L 1399.798853 146.534124 
L 1401.264646 156.095704 
L 1401.66296 160.196401 
L 1405.056589 161.849144 
L 1409.836349 166.081947 
L 1410.314325 168.293414 
L 1410.378055 175.381452 
L 1410.760436 184.233607 
L 1410.871964 192.164902 
L 1411.445535 187.958138 
L 1412.258094 192.778521 
L 1413.006923 201.263708 
L 1413.468966 192.793605 
L 1414.647974 193.092416 
L 1417.595492 195.292484 
L 1418.886028 187.299516 
L 1423.283407 189.922442 
L 1423.952573 192.359365 
L 1425.768882 196.351067 
L 1426.390251 194.800558 
L 1427.776381 194.791589 
L 1428.190627 186.171218 
L 1430.038801 180.125728 
L 1431.201875 175.680316 
L 1432.492411 174.584949 
L 1433.384632 180.796806 
L 1433.703283 187.796569 
L 1434.197192 185.001918 
L 1434.547707 179.517488 
L 1435.073481 178.619893 
L 1435.471794 176.920232 
L 1435.519592 183.016527 
L 1438.021 181.71288 
L 1439.263737 163.819334 
L 1439.59832 156.166505 
L 1439.614253 164.936559 
L 1439.646118 163.773362 
L 1441.271236 173.167112 
L 1441.319034 162.638093 
L 1441.956335 166.398555 
L 1443.772644 169.027574 
L 1443.884172 156.288909 
L 1446.401512 160.442176 
L 1448.791392 166.013918 
L 1449.986332 160.836009 
L 1450.958216 163.730562 
L 1453.666747 168.782751 
L 1455.881369 151.616126 
L 1462.732358 156.980236 
L 1463.226267 164.856427 
L 1463.465255 175.203185 
L 1464.214084 174.536991 
L 1465.042575 153.725625 
L 1465.170036 154.468948 
L 1465.536484 160.164063 
L 1466.01446 141.278296 
L 1466.922614 148.466296 
L 1467.448388 160.86368 
L 1468.866383 160.299324 
L 1469.72674 167.84454 
L 1469.838268 172.38234 
L 1473.1841 169.781593 
L 1479.41372 178.778966 
L 1480.528997 183.243824 
L 1481.102568 186.46528 
L 1482.679889 192.016539 
L 1484.910444 196.947035 
L 1485.404352 189.452209 
L 1489.738001 183.684993 
L 1490.439033 158.018895 
L 1491.713635 143.920353 
L 1492.701452 131.520982 
L 1493.784865 137.14778 
L 1497.082899 145.959849 
L 1497.46528 150.070669 
L 1497.497145 154.328165 
L 1498.102581 147.502887 
L 1499.504644 151.74147 
L 1500.189743 140.459624 
L 1502.085714 145.811985 
L 1505.479344 147.124892 
L 1506.291903 134.384264 
L 1508.586188 136.68841 
L 1509.239421 145.877288 
L 1509.335017 150.581658 
L 1509.844858 154.779909 
L 1511.199123 141.938207 
L 1513.047297 120.54678 
L 1513.158825 132.821244 
L 1513.334082 128.906615 
L 1515.70803 136.683069 
L 1517.699596 144.050909 
L 1518.942334 150.922514 
L 1519.707096 137.564553 
L 1520.949833 134.591608 
L 1521.87392 121.232738 
L 1522.256301 132.05942 
L 1522.654614 137.041836 
L 1522.989197 146.037045 
L 1524.789573 133.113936 
L 1527.322846 121.501911 
L 1528.007945 126.662331 
L 1528.900167 85.289944 
L 1531.959213 92.492534 
L 1532.102606 79.091666 
L 1532.62838 55.8 
L 1533.791455 71.017629 
L 1534.699609 70.74815 
L 1542.825201 60.375439 
L 1543.908613 75.949561 
L 1545.135418 83.00943 
L 1545.358473 88.56717 
L 1545.661192 86.939143 
L 1545.979842 98.815942 
L 1546.489683 106.504664 
L 1548.258194 113.97405 
L 1551.333173 120.236579 
L 1551.476566 113.40754 
L 1552.432518 116.317368 
L 1553.022022 117.459833 
L 1553.069819 107.21419 
L 1553.308807 99.838616 
L 1555.921743 112.525483 
L 1556.288191 75.80336 
L 1556.590909 66.123205 
L 1556.590909 66.123205 
" clip-path="url(#pfc614fda9b)" style="fill: none; stroke: #e8000b; stroke-width: 1.5; stroke-linecap: round"/>
   </g>
   <g id="line2d_21">
    <path d="M 288.409091 307.799726 
L 969.26995 307.707562 
L 1072.767684 307.552578 
L 1084.462163 307.598009 
L 1259.974945 307.450855 
L 1268.132402 307.292584 
L 1289.481996 307.331386 
L 1297.193342 307.263183 
L 1302.180224 307.245208 
L 1318.367678 307.187014 
L 1327.720075 307.173705 
L 1329.32926 307.177208 
L 1339.924395 307.105919 
L 1340.067788 307.117088 
L 1351.825997 307.093423 
L 1355.554209 307.039626 
L 1375.342415 306.960795 
L 1375.358348 306.876678 
L 1376.56922 306.907697 
L 1377.987216 306.91356 
L 1382.161539 306.85507 
L 1394.668578 306.821458 
L 1409.836349 306.730205 
L 1410.760436 306.733942 
L 1410.871964 306.700288 
L 1412.258094 306.79863 
L 1413.006923 306.643527 
L 1414.647974 306.684345 
L 1423.283407 306.577363 
L 1423.952573 306.605782 
L 1428.190627 306.60975 
L 1430.038801 306.658518 
L 1432.492411 306.525029 
L 1433.703283 306.558668 
L 1435.519592 306.306903 
L 1441.956335 306.381797 
L 1446.401512 306.356138 
L 1450.958216 306.452236 
L 1462.732358 306.379635 
L 1463.465255 306.320111 
L 1466.01446 306.183595 
L 1467.448388 306.268879 
L 1473.1841 306.137439 
L 1481.102568 306.007698 
L 1482.679889 305.971956 
L 1485.404352 305.707787 
L 1497.497145 305.648882 
L 1498.102581 305.782378 
L 1499.504644 305.832934 
L 1499.823295 305.678792 
L 1500.189743 305.626051 
L 1502.085714 305.585893 
L 1509.239421 305.736278 
L 1509.335017 305.553253 
L 1509.844858 305.582202 
L 1511.199123 305.476064 
L 1522.989197 305.695374 
L 1528.900167 305.506988 
L 1532.102606 305.536655 
L 1532.62838 305.386998 
L 1533.791455 305.25482 
L 1534.699609 305.342479 
L 1543.908613 305.517399 
L 1545.358473 305.504344 
L 1545.661192 305.451948 
L 1545.979842 305.532538 
L 1546.489683 305.486533 
L 1548.258194 305.151718 
L 1552.432518 305.314754 
L 1553.022022 305.14326 
L 1553.069819 305.263517 
L 1553.308807 305.007472 
L 1556.288191 305.079334 
L 1556.590909 305.274012 
L 1556.590909 305.274012 
" clip-path="url(#pfc614fda9b)" style="fill: none; stroke: #8b2be2; stroke-width: 1.5; stroke-linecap: round"/>
   </g>
   <g id="line2d_22"/>
   <g id="line2d_23"/>
   <g id="line2d_24"/>
   <g id="line2d_25"/>
   <g id="line2d_26"/>
   <g id="patch_3">
    <path d="M 225 320.4 
L 225 43.2 
" style="fill: none; stroke: #cccccc; stroke-width: 0.8; stroke-linejoin: miter; stroke-linecap: square"/>
   </g>
   <g id="patch_4">
    <path d="M 1620 320.4 
L 1620 43.2 
" style="fill: none; stroke: #cccccc; stroke-width: 0.8; stroke-linejoin: miter; stroke-linecap: square"/>
   </g>
   <g id="patch_5">
    <path d="M 225 320.4 
L 1620 320.4 
" style="fill: none; stroke: #cccccc; stroke-width: 0.8; stroke-linejoin: miter; stroke-linecap: square"/>
   </g>
   <g id="patch_6">
    <path d="M 225 43.2 
L 1620 43.2 
" style="fill: none; stroke: #cccccc; stroke-width: 0.8; stroke-linejoin: miter; stroke-linecap: square"/>
   </g>
   <g id="text_19">
    <!-- learning_rate = 1e-3 -->
    <g style="fill: #262626" transform="translate(868.633125 37.2)scale(0.12 -0.12)">
     <defs>
      <path id="ArialMT-6c" d="M 409 0 
L 409 4581 
L 972 4581 
L 972 0 
L 409 0 
z
" transform="scale(0.015625)"/>
      <path id="ArialMT-65" d="M 2694 1069 
L 3275 997 
Q 3138 488 2766 206 
Q 2394 -75 1816 -75 
Q 1088 -75 661 373 
Q 234 822 234 1631 
Q 234 2469 665 2931 
Q 1097 3394 1784 3394 
Q 2450 3394 2872 2941 
Q 3294 2488 3294 1666 
Q 3294 1616 3291 1516 
L 816 1516 
Q 847 969 1125 678 
Q 1403 388 1819 388 
Q 2128 388 2347 550 
Q 2566 713 2694 1069 
z
M 847 1978 
L 2700 1978 
Q 2663 2397 2488 2606 
Q 2219 2931 1791 2931 
Q 1403 2931 1139 2672 
Q 875 2413 847 1978 
z
" transform="scale(0.015625)"/>
      <path id="ArialMT-61" d="M 2588 409 
Q 2275 144 1986 34 
Q 1697 -75 1366 -75 
Q 819 -75 525 192 
Q 231 459 231 875 
Q 231 1119 342 1320 
Q 453 1522 633 1644 
Q 813 1766 1038 1828 
Q 1203 1872 1538 1913 
Q 2219 1994 2541 2106 
Q 2544 2222 2544 2253 
Q 2544 2597 2384 2738 
Q 2169 2928 1744 2928 
Q 1347 2928 1158 2789 
Q 969 2650 878 2297 
L 328 2372 
Q 403 2725 575 2942 
Q 747 3159 1072 3276 
Q 1397 3394 1825 3394 
Q 2250 3394 2515 3294 
Q 2781 3194 2906 3042 
Q 3031 2891 3081 2659 
Q 3109 2516 3109 2141 
L 3109 1391 
Q 3109 606 3145 398 
Q 3181 191 3288 0 
L 2700 0 
Q 2613 175 2588 409 
z
M 2541 1666 
Q 2234 1541 1622 1453 
Q 1275 1403 1131 1340 
Q 988 1278 909 1158 
Q 831 1038 831 891 
Q 831 666 1001 516 
Q 1172 366 1500 366 
Q 1825 366 2078 508 
Q 2331 650 2450 897 
Q 2541 1088 2541 1459 
L 2541 1666 
z
" transform="scale(0.015625)"/>
      <path id="ArialMT-72" d="M 416 0 
L 416 3319 
L 922 3319 
L 922 2816 
Q 1116 3169 1280 3281 
Q 1444 3394 1641 3394 
Q 1925 3394 2219 3213 
L 2025 2691 
Q 1819 2813 1613 2813 
Q 1428 2813 1281 2702 
Q 1134 2591 1072 2394 
Q 978 2094 978 1738 
L 978 0 
L 416 0 
z
" transform="scale(0.015625)"/>
      <path id="ArialMT-6e" d="M 422 0 
L 422 3319 
L 928 3319 
L 928 2847 
Q 1294 3394 1984 3394 
Q 2284 3394 2536 3286 
Q 2788 3178 2913 3003 
Q 3038 2828 3088 2588 
Q 3119 2431 3119 2041 
L 3119 0 
L 2556 0 
L 2556 2019 
Q 2556 2363 2490 2533 
Q 2425 2703 2258 2804 
Q 2091 2906 1866 2906 
Q 1506 2906 1245 2678 
Q 984 2450 984 1813 
L 984 0 
L 422 0 
z
" transform="scale(0.015625)"/>
      <path id="ArialMT-69" d="M 425 3934 
L 425 4581 
L 988 4581 
L 988 3934 
L 425 3934 
z
M 425 0 
L 425 3319 
L 988 3319 
L 988 0 
L 425 0 
z
" transform="scale(0.015625)"/>
      <path id="ArialMT-67" d="M 319 -275 
L 866 -356 
Q 900 -609 1056 -725 
Q 1266 -881 1628 -881 
Q 2019 -881 2231 -725 
Q 2444 -569 2519 -288 
Q 2563 -116 2559 434 
Q 2191 0 1641 0 
Q 956 0 581 494 
Q 206 988 206 1678 
Q 206 2153 378 2554 
Q 550 2956 876 3175 
Q 1203 3394 1644 3394 
Q 2231 3394 2613 2919 
L 2613 3319 
L 3131 3319 
L 3131 450 
Q 3131 -325 2973 -648 
Q 2816 -972 2473 -1159 
Q 2131 -1347 1631 -1347 
Q 1038 -1347 672 -1080 
Q 306 -813 319 -275 
z
M 784 1719 
Q 784 1066 1043 766 
Q 1303 466 1694 466 
Q 2081 466 2343 764 
Q 2606 1063 2606 1700 
Q 2606 2309 2336 2618 
Q 2066 2928 1684 2928 
Q 1309 2928 1046 2623 
Q 784 2319 784 1719 
z
" transform="scale(0.015625)"/>
      <path id="ArialMT-5f" d="M -97 -1272 
L -97 -866 
L 3631 -866 
L 3631 -1272 
L -97 -1272 
z
" transform="scale(0.015625)"/>
      <path id="ArialMT-74" d="M 1650 503 
L 1731 6 
Q 1494 -44 1306 -44 
Q 1000 -44 831 53 
Q 663 150 594 308 
Q 525 466 525 972 
L 525 2881 
L 113 2881 
L 113 3319 
L 525 3319 
L 525 4141 
L 1084 4478 
L 1084 3319 
L 1650 3319 
L 1650 2881 
L 1084 2881 
L 1084 941 
Q 1084 700 1114 631 
Q 1144 563 1211 522 
Q 1278 481 1403 481 
Q 1497 481 1650 503 
z
" transform="scale(0.015625)"/>
      <path id="ArialMT-20" transform="scale(0.015625)"/>
      <path id="ArialMT-3d" d="M 3381 2694 
L 356 2694 
L 356 3219 
L 3381 3219 
L 3381 2694 
z
M 3381 1303 
L 356 1303 
L 356 1828 
L 3381 1828 
L 3381 1303 
z
" transform="scale(0.015625)"/>
      <path id="ArialMT-2d" d="M 203 1375 
L 203 1941 
L 1931 1941 
L 1931 1375 
L 203 1375 
z
" transform="scale(0.015625)"/>
     </defs>
     <use xlink:href="#ArialMT-6c"/>
     <use xlink:href="#ArialMT-65" x="22.216797"/>
     <use xlink:href="#ArialMT-61" x="77.832031"/>
     <use xlink:href="#ArialMT-72" x="133.447266"/>
     <use xlink:href="#ArialMT-6e" x="166.748047"/>
     <use xlink:href="#ArialMT-69" x="222.363281"/>
     <use xlink:href="#ArialMT-6e" x="244.580078"/>
     <use xlink:href="#ArialMT-67" x="300.195312"/>
     <use xlink:href="#ArialMT-5f" x="355.810547"/>
     <use xlink:href="#ArialMT-72" x="411.425781"/>
     <use xlink:href="#ArialMT-61" x="444.726562"/>
     <use xlink:href="#ArialMT-74" x="500.341797"/>
     <use xlink:href="#ArialMT-65" x="528.125"/>
     <use xlink:href="#ArialMT-20" x="583.740234"/>
     <use xlink:href="#ArialMT-3d" x="611.523438"/>
     <use xlink:href="#ArialMT-20" x="669.921875"/>
     <use xlink:href="#ArialMT-31" x="697.705078"/>
     <use xlink:href="#ArialMT-65" x="753.320312"/>
     <use xlink:href="#ArialMT-2d" x="808.935547"/>
     <use xlink:href="#ArialMT-33" x="842.236328"/>
    </g>
   </g>
   <g id="legend_1">
    <g id="patch_7">
     <path d="M 232 122.660937 
L 328.2 122.660937 
Q 330.2 122.660937 330.2 120.660937 
L 330.2 50.2 
Q 330.2 48.2 328.2 48.2 
L 232 48.2 
Q 230 48.2 230 50.2 
L 230 120.660937 
Q 230 122.660937 232 122.660937 
z
" style="fill: #ffffff; opacity: 0.8; stroke: #cccccc; stroke-linejoin: miter"/>
    </g>
    <g id="line2d_27">
     <path d="M 234 55.8875 
L 244 55.8875 
L 254 55.8875 
" style="fill: none; stroke: #023eff; stroke-width: 1.5; stroke-linecap: round"/>
    </g>
    <g id="text_20">
     <!-- gamma = 0.90 -->
     <g style="fill: #262626" transform="translate(262 59.3875)scale(0.1 -0.1)">
      <defs>
       <path id="ArialMT-6d" d="M 422 0 
L 422 3319 
L 925 3319 
L 925 2853 
Q 1081 3097 1340 3245 
Q 1600 3394 1931 3394 
Q 2300 3394 2536 3241 
Q 2772 3088 2869 2813 
Q 3263 3394 3894 3394 
Q 4388 3394 4653 3120 
Q 4919 2847 4919 2278 
L 4919 0 
L 4359 0 
L 4359 2091 
Q 4359 2428 4304 2576 
Q 4250 2725 4106 2815 
Q 3963 2906 3769 2906 
Q 3419 2906 3187 2673 
Q 2956 2441 2956 1928 
L 2956 0 
L 2394 0 
L 2394 2156 
Q 2394 2531 2256 2718 
Q 2119 2906 1806 2906 
Q 1569 2906 1367 2781 
Q 1166 2656 1075 2415 
Q 984 2175 984 1722 
L 984 0 
L 422 0 
z
" transform="scale(0.015625)"/>
       <path id="ArialMT-2e" d="M 581 0 
L 581 641 
L 1222 641 
L 1222 0 
L 581 0 
z
" transform="scale(0.015625)"/>
       <path id="ArialMT-39" d="M 350 1059 
L 891 1109 
Q 959 728 1153 556 
Q 1347 384 1650 384 
Q 1909 384 2104 503 
Q 2300 622 2425 820 
Q 2550 1019 2634 1356 
Q 2719 1694 2719 2044 
Q 2719 2081 2716 2156 
Q 2547 1888 2255 1720 
Q 1963 1553 1622 1553 
Q 1053 1553 659 1965 
Q 266 2378 266 3053 
Q 266 3750 677 4175 
Q 1088 4600 1706 4600 
Q 2153 4600 2523 4359 
Q 2894 4119 3086 3673 
Q 3278 3228 3278 2384 
Q 3278 1506 3087 986 
Q 2897 466 2520 194 
Q 2144 -78 1638 -78 
Q 1100 -78 759 220 
Q 419 519 350 1059 
z
M 2653 3081 
Q 2653 3566 2395 3850 
Q 2138 4134 1775 4134 
Q 1400 4134 1122 3828 
Q 844 3522 844 3034 
Q 844 2597 1108 2323 
Q 1372 2050 1759 2050 
Q 2150 2050 2401 2323 
Q 2653 2597 2653 3081 
z
" transform="scale(0.015625)"/>
      </defs>
      <use xlink:href="#ArialMT-67"/>
      <use xlink:href="#ArialMT-61" x="55.615234"/>
      <use xlink:href="#ArialMT-6d" x="111.230469"/>
      <use xlink:href="#ArialMT-6d" x="194.53125"/>
      <use xlink:href="#ArialMT-61" x="277.832031"/>
      <use xlink:href="#ArialMT-20" x="333.447266"/>
      <use xlink:href="#ArialMT-3d" x="361.230469"/>
      <use xlink:href="#ArialMT-20" x="419.628906"/>
      <use xlink:href="#ArialMT-30" x="447.412109"/>
      <use xlink:href="#ArialMT-2e" x="503.027344"/>
      <use xlink:href="#ArialMT-39" x="530.810547"/>
      <use xlink:href="#ArialMT-30" x="586.425781"/>
     </g>
    </g>
    <g id="line2d_28">
     <path d="M 234 70.179687 
L 244 70.179687 
L 254 70.179687 
" style="fill: none; stroke: #ff7c00; stroke-width: 1.5; stroke-linecap: round"/>
    </g>
    <g id="text_21">
     <!-- gamma = 0.93 -->
     <g style="fill: #262626" transform="translate(262 73.679687)scale(0.1 -0.1)">
      <use xlink:href="#ArialMT-67"/>
      <use xlink:href="#ArialMT-61" x="55.615234"/>
      <use xlink:href="#ArialMT-6d" x="111.230469"/>
      <use xlink:href="#ArialMT-6d" x="194.53125"/>
      <use xlink:href="#ArialMT-61" x="277.832031"/>
      <use xlink:href="#ArialMT-20" x="333.447266"/>
      <use xlink:href="#ArialMT-3d" x="361.230469"/>
      <use xlink:href="#ArialMT-20" x="419.628906"/>
      <use xlink:href="#ArialMT-30" x="447.412109"/>
      <use xlink:href="#ArialMT-2e" x="503.027344"/>
      <use xlink:href="#ArialMT-39" x="530.810547"/>
      <use xlink:href="#ArialMT-33" x="586.425781"/>
     </g>
    </g>
    <g id="line2d_29">
     <path d="M 234 84.471875 
L 244 84.471875 
L 254 84.471875 
" style="fill: none; stroke: #1ac938; stroke-width: 1.5; stroke-linecap: round"/>
    </g>
    <g id="text_22">
     <!-- gamma = 0.95 -->
     <g style="fill: #262626" transform="translate(262 87.971875)scale(0.1 -0.1)">
      <use xlink:href="#ArialMT-67"/>
      <use xlink:href="#ArialMT-61" x="55.615234"/>
      <use xlink:href="#ArialMT-6d" x="111.230469"/>
      <use xlink:href="#ArialMT-6d" x="194.53125"/>
      <use xlink:href="#ArialMT-61" x="277.832031"/>
      <use xlink:href="#ArialMT-20" x="333.447266"/>
      <use xlink:href="#ArialMT-3d" x="361.230469"/>
      <use xlink:href="#ArialMT-20" x="419.628906"/>
      <use xlink:href="#ArialMT-30" x="447.412109"/>
      <use xlink:href="#ArialMT-2e" x="503.027344"/>
      <use xlink:href="#ArialMT-39" x="530.810547"/>
      <use xlink:href="#ArialMT-35" x="586.425781"/>
     </g>
    </g>
    <g id="line2d_30">
     <path d="M 234 98.764062 
L 244 98.764062 
L 254 98.764062 
" style="fill: none; stroke: #e8000b; stroke-width: 1.5; stroke-linecap: round"/>
    </g>
    <g id="text_23">
     <!-- gamma = 0.97 -->
     <g style="fill: #262626" transform="translate(262 102.264062)scale(0.1 -0.1)">
      <use xlink:href="#ArialMT-67"/>
      <use xlink:href="#ArialMT-61" x="55.615234"/>
      <use xlink:href="#ArialMT-6d" x="111.230469"/>
      <use xlink:href="#ArialMT-6d" x="194.53125"/>
      <use xlink:href="#ArialMT-61" x="277.832031"/>
      <use xlink:href="#ArialMT-20" x="333.447266"/>
      <use xlink:href="#ArialMT-3d" x="361.230469"/>
      <use xlink:href="#ArialMT-20" x="419.628906"/>
      <use xlink:href="#ArialMT-30" x="447.412109"/>
      <use xlink:href="#ArialMT-2e" x="503.027344"/>
      <use xlink:href="#ArialMT-39" x="530.810547"/>
      <use xlink:href="#ArialMT-37" x="586.425781"/>
     </g>
    </g>
    <g id="line2d_31">
     <path d="M 234 113.05625 
L 244 113.05625 
L 254 113.05625 
" style="fill: none; stroke: #8b2be2; stroke-width: 1.5; stroke-linecap: round"/>
    </g>
    <g id="text_24">
     <!-- gamma = 0.99 -->
     <g style="fill: #262626" transform="translate(262 116.55625)scale(0.1 -0.1)">
      <use xlink:href="#ArialMT-67"/>
      <use xlink:href="#ArialMT-61" x="55.615234"/>
      <use xlink:href="#ArialMT-6d" x="111.230469"/>
      <use xlink:href="#ArialMT-6d" x="194.53125"/>
      <use xlink:href="#ArialMT-61" x="277.832031"/>
      <use xlink:href="#ArialMT-20" x="333.447266"/>
      <use xlink:href="#ArialMT-3d" x="361.230469"/>
      <use xlink:href="#ArialMT-20" x="419.628906"/>
      <use xlink:href="#ArialMT-30" x="447.412109"/>
      <use xlink:href="#ArialMT-2e" x="503.027344"/>
      <use xlink:href="#ArialMT-39" x="530.810547"/>
      <use xlink:href="#ArialMT-39" x="586.425781"/>
     </g>
    </g>
   </g>
  </g>
 </g>
 <defs>
  <clipPath id="pfc614fda9b">
   <rect x="225" y="43.2" width="1395" height="277.2"/>
  </clipPath>
 </defs>
</svg>
