<?xml version="1.0" encoding="utf-8" standalone="no"?>
<!DOCTYPE svg PUBLIC "-//W3C//DTD SVG 1.1//EN"
  "http://www.w3.org/Graphics/SVG/1.1/DTD/svg11.dtd">
<svg xmlns:xlink="http://www.w3.org/1999/xlink" width="1800pt" height="360pt" viewBox="0 0 1800 360" xmlns="http://www.w3.org/2000/svg" version="1.1">
 <metadata>
  <rdf:RDF xmlns:dc="http://purl.org/dc/elements/1.1/" xmlns:cc="http://creativecommons.org/ns#" xmlns:rdf="http://www.w3.org/1999/02/22-rdf-syntax-ns#">
   <cc:Work>
    <dc:type rdf:resource="http://purl.org/dc/dcmitype/StillImage"/>
    <dc:date>2022-04-28T14:46:08.623563</dc:date>
    <dc:format>image/svg+xml</dc:format>
    <dc:creator>
     <cc:Agent>
      <dc:title>Matplotlib v3.5.1, https://matplotlib.org/</dc:title>
     </cc:Agent>
    </dc:creator>
   </cc:Work>
  </rdf:RDF>
 </metadata>
 <defs>
  <style type="text/css">*{stroke-linejoin: round; stroke-linecap: butt}</style>
 </defs>
 <g id="figure_1">
  <g id="patch_1">
   <path d="M 0 360 
L 1800 360 
L 1800 0 
L 0 0 
z
" style="fill: #ffffff"/>
  </g>
  <g id="axes_1">
   <g id="patch_2">
    <path d="M 225 320.4 
L 1620 320.4 
L 1620 43.2 
L 225 43.2 
z
" style="fill: #ffffff"/>
   </g>
   <g id="matplotlib.axis_1">
    <g id="xtick_1">
     <g id="line2d_1">
      <path d="M 287.739925 320.4 
L 287.739925 43.2 
" clip-path="url(#pc1c9e77984)" style="fill: none; stroke: #cccccc; stroke-width: 0.8; stroke-linecap: round"/>
     </g>
     <g id="text_1">
      <!-- 0 -->
      <g style="fill: #262626" transform="translate(284.959456 334.557813)scale(0.1 -0.1)">
       <defs>
        <path id="ArialMT-30" d="M 266 2259 
Q 266 3072 433 3567 
Q 600 4063 929 4331 
Q 1259 4600 1759 4600 
Q 2128 4600 2406 4451 
Q 2684 4303 2865 4023 
Q 3047 3744 3150 3342 
Q 3253 2941 3253 2259 
Q 3253 1453 3087 958 
Q 2922 463 2592 192 
Q 2263 -78 1759 -78 
Q 1097 -78 719 397 
Q 266 969 266 2259 
z
M 844 2259 
Q 844 1131 1108 757 
Q 1372 384 1759 384 
Q 2147 384 2411 759 
Q 2675 1134 2675 2259 
Q 2675 3391 2411 3762 
Q 2147 4134 1753 4134 
Q 1366 4134 1134 3806 
Q 844 3388 844 2259 
z
" transform="scale(0.015625)"/>
       </defs>
       <use xlink:href="#ArialMT-30"/>
      </g>
     </g>
    </g>
    <g id="xtick_2">
     <g id="line2d_2">
      <path d="M 447.065253 320.4 
L 447.065253 43.2 
" clip-path="url(#pc1c9e77984)" style="fill: none; stroke: #cccccc; stroke-width: 0.8; stroke-linecap: round"/>
     </g>
     <g id="text_2">
      <!-- 10000 -->
      <g style="fill: #262626" transform="translate(433.162909 334.557813)scale(0.1 -0.1)">
       <defs>
        <path id="ArialMT-31" d="M 2384 0 
L 1822 0 
L 1822 3584 
Q 1619 3391 1289 3197 
Q 959 3003 697 2906 
L 697 3450 
Q 1169 3672 1522 3987 
Q 1875 4303 2022 4600 
L 2384 4600 
L 2384 0 
z
" transform="scale(0.015625)"/>
       </defs>
       <use xlink:href="#ArialMT-31"/>
       <use xlink:href="#ArialMT-30" x="55.615234"/>
       <use xlink:href="#ArialMT-30" x="111.230469"/>
       <use xlink:href="#ArialMT-30" x="166.845703"/>
       <use xlink:href="#ArialMT-30" x="222.460938"/>
      </g>
     </g>
    </g>
    <g id="xtick_3">
     <g id="line2d_3">
      <path d="M 606.390582 320.4 
L 606.390582 43.2 
" clip-path="url(#pc1c9e77984)" style="fill: none; stroke: #cccccc; stroke-width: 0.8; stroke-linecap: round"/>
     </g>
     <g id="text_3">
      <!-- 20000 -->
      <g style="fill: #262626" transform="translate(592.488238 334.557813)scale(0.1 -0.1)">
       <defs>
        <path id="ArialMT-32" d="M 3222 541 
L 3222 0 
L 194 0 
Q 188 203 259 391 
Q 375 700 629 1000 
Q 884 1300 1366 1694 
Q 2113 2306 2375 2664 
Q 2638 3022 2638 3341 
Q 2638 3675 2398 3904 
Q 2159 4134 1775 4134 
Q 1369 4134 1125 3890 
Q 881 3647 878 3216 
L 300 3275 
Q 359 3922 746 4261 
Q 1134 4600 1788 4600 
Q 2447 4600 2831 4234 
Q 3216 3869 3216 3328 
Q 3216 3053 3103 2787 
Q 2991 2522 2730 2228 
Q 2469 1934 1863 1422 
Q 1356 997 1212 845 
Q 1069 694 975 541 
L 3222 541 
z
" transform="scale(0.015625)"/>
       </defs>
       <use xlink:href="#ArialMT-32"/>
       <use xlink:href="#ArialMT-30" x="55.615234"/>
       <use xlink:href="#ArialMT-30" x="111.230469"/>
       <use xlink:href="#ArialMT-30" x="166.845703"/>
       <use xlink:href="#ArialMT-30" x="222.460938"/>
      </g>
     </g>
    </g>
    <g id="xtick_4">
     <g id="line2d_4">
      <path d="M 765.71591 320.4 
L 765.71591 43.2 
" clip-path="url(#pc1c9e77984)" style="fill: none; stroke: #cccccc; stroke-width: 0.8; stroke-linecap: round"/>
     </g>
     <g id="text_4">
      <!-- 30000 -->
      <g style="fill: #262626" transform="translate(751.813567 334.557813)scale(0.1 -0.1)">
       <defs>
        <path id="ArialMT-33" d="M 269 1209 
L 831 1284 
Q 928 806 1161 595 
Q 1394 384 1728 384 
Q 2125 384 2398 659 
Q 2672 934 2672 1341 
Q 2672 1728 2419 1979 
Q 2166 2231 1775 2231 
Q 1616 2231 1378 2169 
L 1441 2663 
Q 1497 2656 1531 2656 
Q 1891 2656 2178 2843 
Q 2466 3031 2466 3422 
Q 2466 3731 2256 3934 
Q 2047 4138 1716 4138 
Q 1388 4138 1169 3931 
Q 950 3725 888 3313 
L 325 3413 
Q 428 3978 793 4289 
Q 1159 4600 1703 4600 
Q 2078 4600 2393 4439 
Q 2709 4278 2876 4000 
Q 3044 3722 3044 3409 
Q 3044 3113 2884 2869 
Q 2725 2625 2413 2481 
Q 2819 2388 3044 2092 
Q 3269 1797 3269 1353 
Q 3269 753 2831 336 
Q 2394 -81 1725 -81 
Q 1122 -81 723 278 
Q 325 638 269 1209 
z
" transform="scale(0.015625)"/>
       </defs>
       <use xlink:href="#ArialMT-33"/>
       <use xlink:href="#ArialMT-30" x="55.615234"/>
       <use xlink:href="#ArialMT-30" x="111.230469"/>
       <use xlink:href="#ArialMT-30" x="166.845703"/>
       <use xlink:href="#ArialMT-30" x="222.460938"/>
      </g>
     </g>
    </g>
    <g id="xtick_5">
     <g id="line2d_5">
      <path d="M 925.041239 320.4 
L 925.041239 43.2 
" clip-path="url(#pc1c9e77984)" style="fill: none; stroke: #cccccc; stroke-width: 0.8; stroke-linecap: round"/>
     </g>
     <g id="text_5">
      <!-- 40000 -->
      <g style="fill: #262626" transform="translate(911.138895 334.557813)scale(0.1 -0.1)">
       <defs>
        <path id="ArialMT-34" d="M 2069 0 
L 2069 1097 
L 81 1097 
L 81 1613 
L 2172 4581 
L 2631 4581 
L 2631 1613 
L 3250 1613 
L 3250 1097 
L 2631 1097 
L 2631 0 
L 2069 0 
z
M 2069 1613 
L 2069 3678 
L 634 1613 
L 2069 1613 
z
" transform="scale(0.015625)"/>
       </defs>
       <use xlink:href="#ArialMT-34"/>
       <use xlink:href="#ArialMT-30" x="55.615234"/>
       <use xlink:href="#ArialMT-30" x="111.230469"/>
       <use xlink:href="#ArialMT-30" x="166.845703"/>
       <use xlink:href="#ArialMT-30" x="222.460938"/>
      </g>
     </g>
    </g>
    <g id="xtick_6">
     <g id="line2d_6">
      <path d="M 1084.366568 320.4 
L 1084.366568 43.2 
" clip-path="url(#pc1c9e77984)" style="fill: none; stroke: #cccccc; stroke-width: 0.8; stroke-linecap: round"/>
     </g>
     <g id="text_6">
      <!-- 50000 -->
      <g style="fill: #262626" transform="translate(1070.464224 334.557813)scale(0.1 -0.1)">
       <defs>
        <path id="ArialMT-35" d="M 266 1200 
L 856 1250 
Q 922 819 1161 601 
Q 1400 384 1738 384 
Q 2144 384 2425 690 
Q 2706 997 2706 1503 
Q 2706 1984 2436 2262 
Q 2166 2541 1728 2541 
Q 1456 2541 1237 2417 
Q 1019 2294 894 2097 
L 366 2166 
L 809 4519 
L 3088 4519 
L 3088 3981 
L 1259 3981 
L 1013 2750 
Q 1425 3038 1878 3038 
Q 2478 3038 2890 2622 
Q 3303 2206 3303 1553 
Q 3303 931 2941 478 
Q 2500 -78 1738 -78 
Q 1113 -78 717 272 
Q 322 622 266 1200 
z
" transform="scale(0.015625)"/>
       </defs>
       <use xlink:href="#ArialMT-35"/>
       <use xlink:href="#ArialMT-30" x="55.615234"/>
       <use xlink:href="#ArialMT-30" x="111.230469"/>
       <use xlink:href="#ArialMT-30" x="166.845703"/>
       <use xlink:href="#ArialMT-30" x="222.460938"/>
      </g>
     </g>
    </g>
    <g id="xtick_7">
     <g id="line2d_7">
      <path d="M 1243.691896 320.4 
L 1243.691896 43.2 
" clip-path="url(#pc1c9e77984)" style="fill: none; stroke: #cccccc; stroke-width: 0.8; stroke-linecap: round"/>
     </g>
     <g id="text_7">
      <!-- 60000 -->
      <g style="fill: #262626" transform="translate(1229.789552 334.557813)scale(0.1 -0.1)">
       <defs>
        <path id="ArialMT-36" d="M 3184 3459 
L 2625 3416 
Q 2550 3747 2413 3897 
Q 2184 4138 1850 4138 
Q 1581 4138 1378 3988 
Q 1113 3794 959 3422 
Q 806 3050 800 2363 
Q 1003 2672 1297 2822 
Q 1591 2972 1913 2972 
Q 2475 2972 2870 2558 
Q 3266 2144 3266 1488 
Q 3266 1056 3080 686 
Q 2894 316 2569 119 
Q 2244 -78 1831 -78 
Q 1128 -78 684 439 
Q 241 956 241 2144 
Q 241 3472 731 4075 
Q 1159 4600 1884 4600 
Q 2425 4600 2770 4297 
Q 3116 3994 3184 3459 
z
M 888 1484 
Q 888 1194 1011 928 
Q 1134 663 1356 523 
Q 1578 384 1822 384 
Q 2178 384 2434 671 
Q 2691 959 2691 1453 
Q 2691 1928 2437 2201 
Q 2184 2475 1800 2475 
Q 1419 2475 1153 2201 
Q 888 1928 888 1484 
z
" transform="scale(0.015625)"/>
       </defs>
       <use xlink:href="#ArialMT-36"/>
       <use xlink:href="#ArialMT-30" x="55.615234"/>
       <use xlink:href="#ArialMT-30" x="111.230469"/>
       <use xlink:href="#ArialMT-30" x="166.845703"/>
       <use xlink:href="#ArialMT-30" x="222.460938"/>
      </g>
     </g>
    </g>
    <g id="xtick_8">
     <g id="line2d_8">
      <path d="M 1403.017225 320.4 
L 1403.017225 43.2 
" clip-path="url(#pc1c9e77984)" style="fill: none; stroke: #cccccc; stroke-width: 0.8; stroke-linecap: round"/>
     </g>
     <g id="text_8">
      <!-- 70000 -->
      <g style="fill: #262626" transform="translate(1389.114881 334.557813)scale(0.1 -0.1)">
       <defs>
        <path id="ArialMT-37" d="M 303 3981 
L 303 4522 
L 3269 4522 
L 3269 4084 
Q 2831 3619 2401 2847 
Q 1972 2075 1738 1259 
Q 1569 684 1522 0 
L 944 0 
Q 953 541 1156 1306 
Q 1359 2072 1739 2783 
Q 2119 3494 2547 3981 
L 303 3981 
z
" transform="scale(0.015625)"/>
       </defs>
       <use xlink:href="#ArialMT-37"/>
       <use xlink:href="#ArialMT-30" x="55.615234"/>
       <use xlink:href="#ArialMT-30" x="111.230469"/>
       <use xlink:href="#ArialMT-30" x="166.845703"/>
       <use xlink:href="#ArialMT-30" x="222.460938"/>
      </g>
     </g>
    </g>
    <g id="xtick_9">
     <g id="line2d_9">
      <path d="M 1562.342553 320.4 
L 1562.342553 43.2 
" clip-path="url(#pc1c9e77984)" style="fill: none; stroke: #cccccc; stroke-width: 0.8; stroke-linecap: round"/>
     </g>
     <g id="text_9">
      <!-- 80000 -->
      <g style="fill: #262626" transform="translate(1548.44021 334.557813)scale(0.1 -0.1)">
       <defs>
        <path id="ArialMT-38" d="M 1131 2484 
Q 781 2613 612 2850 
Q 444 3088 444 3419 
Q 444 3919 803 4259 
Q 1163 4600 1759 4600 
Q 2359 4600 2725 4251 
Q 3091 3903 3091 3403 
Q 3091 3084 2923 2848 
Q 2756 2613 2416 2484 
Q 2838 2347 3058 2040 
Q 3278 1734 3278 1309 
Q 3278 722 2862 322 
Q 2447 -78 1769 -78 
Q 1091 -78 675 323 
Q 259 725 259 1325 
Q 259 1772 486 2073 
Q 713 2375 1131 2484 
z
M 1019 3438 
Q 1019 3113 1228 2906 
Q 1438 2700 1772 2700 
Q 2097 2700 2305 2904 
Q 2513 3109 2513 3406 
Q 2513 3716 2298 3927 
Q 2084 4138 1766 4138 
Q 1444 4138 1231 3931 
Q 1019 3725 1019 3438 
z
M 838 1322 
Q 838 1081 952 856 
Q 1066 631 1291 507 
Q 1516 384 1775 384 
Q 2178 384 2440 643 
Q 2703 903 2703 1303 
Q 2703 1709 2433 1975 
Q 2163 2241 1756 2241 
Q 1359 2241 1098 1978 
Q 838 1716 838 1322 
z
" transform="scale(0.015625)"/>
       </defs>
       <use xlink:href="#ArialMT-38"/>
       <use xlink:href="#ArialMT-30" x="55.615234"/>
       <use xlink:href="#ArialMT-30" x="111.230469"/>
       <use xlink:href="#ArialMT-30" x="166.845703"/>
       <use xlink:href="#ArialMT-30" x="222.460938"/>
      </g>
     </g>
    </g>
    <g id="text_10">
     <!-- 训练周期 -->
     <g style="fill: #262626" transform="translate(898.5 350.014063)scale(0.12 -0.12)">
      <defs>
       <path id="SimSun-8bad" d="M 3925 4575 
L 4475 4350 
L 4275 4200 
L 4275 1050 
Q 4275 825 4300 275 
L 3925 75 
Q 3950 1050 3950 2362 
Q 3950 3675 3925 4575 
z
M 5150 5025 
L 5700 4800 
L 5500 4625 
L 5500 725 
Q 5500 225 5525 -350 
L 5150 -550 
Q 5175 -75 5175 500 
L 5175 4125 
Q 5175 4400 5150 5025 
z
M 950 4875 
L 1000 4925 
Q 1500 4675 1662 4525 
Q 1825 4375 1800 4200 
Q 1775 4025 1700 3950 
Q 1625 3875 1575 3875 
Q 1500 3875 1425 4100 
Q 1325 4400 950 4875 
z
M 1625 700 
L 2400 1525 
L 2450 1475 
Q 1750 525 1525 0 
L 1200 400 
Q 1325 525 1300 725 
L 1300 2850 
L 1025 2850 
Q 825 2850 550 2775 
L 325 3000 
L 1275 3000 
L 1450 3250 
L 1825 2925 
L 1625 2775 
L 1625 700 
z
M 2775 5000 
L 3350 4750 
L 3150 4550 
Q 3150 3125 3137 2300 
Q 3125 1475 2812 750 
Q 2500 25 1575 -625 
L 1500 -575 
Q 2300 175 2550 900 
Q 2800 1625 2800 2650 
Q 2800 3675 2775 5000 
z
" transform="scale(0.015625)"/>
       <path id="SimSun-7ec3" d="M 700 3175 
L 1775 3250 
Q 1950 3525 2125 3925 
L 2600 3550 
L 2375 3475 
Q 1575 2500 775 1650 
Q 1425 1725 2350 1900 
L 2375 1800 
Q 875 1400 650 1125 
L 325 1650 
Q 550 1725 800 1987 
Q 1050 2250 1675 3100 
Q 1375 3075 1087 2987 
Q 800 2900 625 2725 
L 325 3225 
Q 550 3275 887 3900 
Q 1225 4525 1425 5225 
L 1975 4900 
L 1700 4750 
Q 1225 3975 700 3175 
z
M 300 375 
Q 1250 625 2425 1000 
L 2450 900 
Q 1550 500 750 75 
L 600 -100 
L 300 375 
z
M 2700 2250 
Q 2900 2550 3100 3075 
Q 2975 3075 2700 3000 
L 2475 3225 
L 3150 3225 
L 3500 4125 
L 3125 4125 
Q 2800 4125 2525 4050 
L 2300 4275 
L 3550 4275 
Q 3775 5000 3800 5250 
L 4325 4950 
L 4100 4825 
Q 4025 4650 3875 4275 
L 5125 4275 
L 5450 4600 
L 5900 4125 
L 3825 4125 
L 3475 3225 
L 4250 3225 
L 4425 3450 
L 4825 3150 
L 4625 3000 
L 4625 2100 
L 5300 2100 
L 5600 2400 
L 6050 1950 
L 4625 1950 
L 4625 150 
Q 4650 -450 4025 -600 
Q 4025 -225 3300 -50 
L 3300 50 
Q 3900 0 4100 0 
Q 4300 0 4300 275 
L 4300 1950 
L 2975 1950 
L 2800 1775 
L 2475 2125 
L 2700 2250 
z
M 3450 1025 
Q 2650 0 1900 -500 
L 1825 -425 
Q 2275 0 2600 450 
Q 2925 900 3175 1475 
L 3675 1100 
L 3450 1025 
z
M 4900 1375 
Q 5775 825 5937 637 
Q 6100 450 6100 275 
Q 6100 125 6025 -37 
Q 5950 -200 5900 -200 
Q 5825 -200 5700 125 
Q 5525 575 4850 1300 
L 4900 1375 
z
M 3425 3075 
Q 3225 2625 2950 2100 
L 4300 2100 
L 4300 3075 
L 3425 3075 
z
" transform="scale(0.015625)"/>
       <path id="SimSun-5468" d="M 275 -500 
Q 800 275 1000 1025 
Q 1200 1775 1200 2925 
Q 1200 4075 1175 5100 
L 1550 4875 
L 5025 4875 
L 5225 5125 
L 5650 4825 
L 5425 4625 
L 5425 275 
Q 5475 -300 4875 -525 
Q 4875 -225 4125 -25 
L 4125 100 
Q 4650 25 4875 37 
Q 5100 50 5100 350 
L 5100 4725 
L 1550 4725 
Q 1550 3000 1525 2300 
Q 1500 1600 1250 862 
Q 1000 125 350 -550 
L 275 -500 
z
M 3100 3650 
Q 3100 4225 3075 4575 
L 3625 4325 
L 3425 4175 
L 3425 3650 
L 3950 3650 
L 4225 3925 
L 4650 3500 
L 3425 3500 
L 3425 2750 
L 4200 2750 
L 4500 3050 
L 4950 2600 
L 2475 2600 
Q 2150 2600 1875 2525 
L 1650 2750 
L 3100 2750 
L 3100 3500 
L 2800 3500 
Q 2475 3500 2200 3425 
L 1975 3650 
L 3100 3650 
z
M 2250 200 
Q 2275 600 2275 1212 
Q 2275 1825 2250 2250 
L 2625 2025 
L 3975 2025 
L 4150 2275 
L 4525 1950 
L 4325 1800 
Q 4325 850 4350 450 
L 4000 300 
L 4000 700 
L 2600 700 
L 2600 350 
L 2250 200 
z
M 2600 1875 
L 2600 850 
L 4000 850 
L 4000 1875 
L 2600 1875 
z
" transform="scale(0.015625)"/>
       <path id="SimSun-671f" d="M 1575 3975 
L 1575 3325 
L 2600 3325 
L 2600 3975 
L 1575 3975 
z
M 1575 3175 
L 1575 2425 
L 2600 2425 
L 2600 3175 
L 1575 3175 
z
M 1575 2275 
L 1575 1500 
L 2600 1500 
L 2600 2275 
L 1575 2275 
z
M 1225 4125 
Q 1225 4750 1200 5175 
L 1775 4850 
L 1575 4700 
L 1575 4125 
L 2600 4125 
Q 2600 4575 2575 5175 
L 3150 4875 
L 2950 4725 
L 2950 4125 
L 3025 4125 
L 3300 4400 
L 3725 3975 
L 2950 3975 
L 2950 1500 
L 2975 1500 
L 3250 1775 
L 3675 1350 
L 950 1350 
L 600 1300 
L 400 1500 
L 1225 1500 
L 1225 3975 
L 1000 3975 
L 650 3925 
L 450 4125 
L 1225 4125 
z
M 1550 1250 
L 2000 850 
L 1775 775 
Q 1100 -25 375 -475 
L 325 -400 
Q 700 -50 1012 350 
Q 1325 750 1550 1250 
z
M 2375 1150 
Q 2975 825 3075 700 
Q 3175 575 3175 475 
Q 3175 350 3100 225 
Q 3025 100 2975 100 
Q 2900 100 2825 300 
Q 2700 625 2325 1100 
L 2375 1150 
z
M 4225 4550 
L 4225 3300 
L 5450 3300 
L 5450 4550 
L 4225 4550 
z
M 4225 3150 
Q 4225 2450 4200 1875 
L 5450 1875 
L 5450 3150 
L 4225 3150 
z
M 4550 50 
Q 5025 -25 5237 -37 
Q 5450 -50 5450 225 
L 5450 1725 
L 4200 1725 
Q 4150 850 3737 300 
Q 3325 -250 2700 -625 
L 2650 -550 
Q 3075 -200 3350 212 
Q 3625 625 3750 1175 
Q 3875 1725 3875 3000 
Q 3875 4275 3850 4925 
L 4225 4700 
L 5400 4700 
L 5575 4950 
L 5975 4650 
L 5800 4475 
L 5800 125 
Q 5825 -375 5250 -575 
Q 5250 -250 4550 -50 
L 4550 50 
z
" transform="scale(0.015625)"/>
      </defs>
      <use xlink:href="#SimSun-8bad"/>
      <use xlink:href="#SimSun-7ec3" x="100"/>
      <use xlink:href="#SimSun-5468" x="200"/>
      <use xlink:href="#SimSun-671f" x="300"/>
     </g>
    </g>
   </g>
   <g id="matplotlib.axis_2">
    <g id="ytick_1">
     <g id="line2d_10">
      <path d="M 225 307.8 
L 1620 307.8 
" clip-path="url(#pc1c9e77984)" style="fill: none; stroke: #cccccc; stroke-width: 0.8; stroke-linecap: round"/>
     </g>
     <g id="text_11">
      <!-- 0 -->
      <g style="fill: #262626" transform="translate(212.439063 311.378906)scale(0.1 -0.1)">
       <use xlink:href="#ArialMT-30"/>
      </g>
     </g>
    </g>
    <g id="ytick_2">
     <g id="line2d_11">
      <path d="M 225 271.622284 
L 1620 271.622284 
" clip-path="url(#pc1c9e77984)" style="fill: none; stroke: #cccccc; stroke-width: 0.8; stroke-linecap: round"/>
     </g>
     <g id="text_12">
      <!-- 20000 -->
      <g style="fill: #262626" transform="translate(190.195312 275.20119)scale(0.1 -0.1)">
       <use xlink:href="#ArialMT-32"/>
       <use xlink:href="#ArialMT-30" x="55.615234"/>
       <use xlink:href="#ArialMT-30" x="111.230469"/>
       <use xlink:href="#ArialMT-30" x="166.845703"/>
       <use xlink:href="#ArialMT-30" x="222.460938"/>
      </g>
     </g>
    </g>
    <g id="ytick_3">
     <g id="line2d_12">
      <path d="M 225 235.444568 
L 1620 235.444568 
" clip-path="url(#pc1c9e77984)" style="fill: none; stroke: #cccccc; stroke-width: 0.8; stroke-linecap: round"/>
     </g>
     <g id="text_13">
      <!-- 40000 -->
      <g style="fill: #262626" transform="translate(190.195312 239.023474)scale(0.1 -0.1)">
       <use xlink:href="#ArialMT-34"/>
       <use xlink:href="#ArialMT-30" x="55.615234"/>
       <use xlink:href="#ArialMT-30" x="111.230469"/>
       <use xlink:href="#ArialMT-30" x="166.845703"/>
       <use xlink:href="#ArialMT-30" x="222.460938"/>
      </g>
     </g>
    </g>
    <g id="ytick_4">
     <g id="line2d_13">
      <path d="M 225 199.266851 
L 1620 199.266851 
" clip-path="url(#pc1c9e77984)" style="fill: none; stroke: #cccccc; stroke-width: 0.8; stroke-linecap: round"/>
     </g>
     <g id="text_14">
      <!-- 60000 -->
      <g style="fill: #262626" transform="translate(190.195312 202.845758)scale(0.1 -0.1)">
       <use xlink:href="#ArialMT-36"/>
       <use xlink:href="#ArialMT-30" x="55.615234"/>
       <use xlink:href="#ArialMT-30" x="111.230469"/>
       <use xlink:href="#ArialMT-30" x="166.845703"/>
       <use xlink:href="#ArialMT-30" x="222.460938"/>
      </g>
     </g>
    </g>
    <g id="ytick_5">
     <g id="line2d_14">
      <path d="M 225 163.089135 
L 1620 163.089135 
" clip-path="url(#pc1c9e77984)" style="fill: none; stroke: #cccccc; stroke-width: 0.8; stroke-linecap: round"/>
     </g>
     <g id="text_15">
      <!-- 80000 -->
      <g style="fill: #262626" transform="translate(190.195312 166.668041)scale(0.1 -0.1)">
       <use xlink:href="#ArialMT-38"/>
       <use xlink:href="#ArialMT-30" x="55.615234"/>
       <use xlink:href="#ArialMT-30" x="111.230469"/>
       <use xlink:href="#ArialMT-30" x="166.845703"/>
       <use xlink:href="#ArialMT-30" x="222.460938"/>
      </g>
     </g>
    </g>
    <g id="ytick_6">
     <g id="line2d_15">
      <path d="M 225 126.911419 
L 1620 126.911419 
" clip-path="url(#pc1c9e77984)" style="fill: none; stroke: #cccccc; stroke-width: 0.8; stroke-linecap: round"/>
     </g>
     <g id="text_16">
      <!-- 100000 -->
      <g style="fill: #262626" transform="translate(184.634375 130.490325)scale(0.1 -0.1)">
       <use xlink:href="#ArialMT-31"/>
       <use xlink:href="#ArialMT-30" x="55.615234"/>
       <use xlink:href="#ArialMT-30" x="111.230469"/>
       <use xlink:href="#ArialMT-30" x="166.845703"/>
       <use xlink:href="#ArialMT-30" x="222.460938"/>
       <use xlink:href="#ArialMT-30" x="278.076172"/>
      </g>
     </g>
    </g>
    <g id="ytick_7">
     <g id="line2d_16">
      <path d="M 225 90.733703 
L 1620 90.733703 
" clip-path="url(#pc1c9e77984)" style="fill: none; stroke: #cccccc; stroke-width: 0.8; stroke-linecap: round"/>
     </g>
     <g id="text_17">
      <!-- 120000 -->
      <g style="fill: #262626" transform="translate(184.634375 94.312609)scale(0.1 -0.1)">
       <use xlink:href="#ArialMT-31"/>
       <use xlink:href="#ArialMT-32" x="55.615234"/>
       <use xlink:href="#ArialMT-30" x="111.230469"/>
       <use xlink:href="#ArialMT-30" x="166.845703"/>
       <use xlink:href="#ArialMT-30" x="222.460938"/>
       <use xlink:href="#ArialMT-30" x="278.076172"/>
      </g>
     </g>
    </g>
    <g id="ytick_8">
     <g id="line2d_17">
      <path d="M 225 54.555986 
L 1620 54.555986 
" clip-path="url(#pc1c9e77984)" style="fill: none; stroke: #cccccc; stroke-width: 0.8; stroke-linecap: round"/>
     </g>
     <g id="text_18">
      <!-- 140000 -->
      <g style="fill: #262626" transform="translate(184.634375 58.134893)scale(0.1 -0.1)">
       <use xlink:href="#ArialMT-31"/>
       <use xlink:href="#ArialMT-34" x="55.615234"/>
       <use xlink:href="#ArialMT-30" x="111.230469"/>
       <use xlink:href="#ArialMT-30" x="166.845703"/>
       <use xlink:href="#ArialMT-30" x="222.460938"/>
       <use xlink:href="#ArialMT-30" x="278.076172"/>
      </g>
     </g>
    </g>
    <g id="text_19">
     <!-- 损失 -->
     <g style="fill: #262626" transform="translate(179.0875 193.8)rotate(-90)scale(0.12 -0.12)">
      <defs>
       <path id="SimSun-635f" d="M 1450 3725 
Q 1450 4700 1425 5175 
L 2050 4900 
L 1800 4725 
L 1800 3725 
L 2050 3725 
L 2325 4000 
L 2750 3575 
L 1800 3575 
L 1800 2625 
L 2525 3050 
L 2575 2975 
L 1800 2400 
L 1800 50 
Q 1800 -325 1275 -550 
Q 1325 -225 575 -25 
L 575 75 
Q 1050 25 1262 12 
Q 1475 0 1450 375 
L 1450 2150 
Q 725 1650 625 1425 
L 250 1850 
Q 525 1925 1450 2475 
L 1450 3575 
L 750 3575 
L 475 3525 
L 275 3725 
L 1450 3725 
z
M 3050 3275 
Q 3075 3700 3075 4087 
Q 3075 4475 3050 4925 
L 3400 4725 
L 4975 4725 
L 5150 4925 
L 5525 4650 
L 5325 4500 
Q 5325 3850 5350 3475 
L 5000 3325 
L 5000 3550 
L 3400 3550 
L 3400 3400 
L 3050 3275 
z
M 3400 4575 
L 3400 3700 
L 5000 3700 
L 5000 4575 
L 3400 4575 
z
M 5575 2575 
Q 5575 1300 5600 825 
L 5250 700 
L 5250 2650 
L 3150 2650 
L 3150 725 
L 2800 575 
Q 2825 1175 2825 1862 
Q 2825 2550 2800 3000 
L 3150 2800 
L 5200 2800 
L 5375 3050 
L 5800 2750 
L 5575 2575 
z
M 3925 2375 
L 4500 2100 
L 4300 1950 
Q 4200 825 3650 237 
Q 3100 -350 1875 -600 
L 1850 -525 
Q 2700 -250 3175 162 
Q 3650 575 3787 1150 
Q 3925 1725 3925 2375 
z
M 4175 700 
Q 5175 375 5525 200 
Q 5875 25 5875 -187 
Q 5875 -400 5825 -475 
Q 5775 -550 5750 -550 
Q 5675 -550 5525 -375 
Q 5325 -125 4975 125 
Q 4625 375 4150 625 
L 4175 700 
z
" transform="scale(0.015625)"/>
       <path id="SimSun-5931" d="M 950 2525 
L 875 2575 
Q 1425 3600 1550 4675 
L 2125 4375 
Q 1900 4275 1700 3750 
L 3000 3750 
L 3000 4550 
Q 3000 4850 2975 5225 
L 3625 4925 
L 3375 4750 
L 3375 3750 
L 4575 3750 
L 4925 4100 
L 5425 3600 
L 3375 3600 
Q 3325 2875 3250 2325 
L 5025 2325 
L 5425 2725 
L 5975 2175 
L 3525 2175 
Q 4050 1050 4775 512 
Q 5500 -25 6075 -100 
L 6075 -200 
Q 5600 -275 5500 -550 
Q 4925 -225 4325 450 
Q 3725 1125 3400 2175 
L 3225 2175 
Q 2950 1025 2287 400 
Q 1625 -225 450 -600 
L 400 -525 
Q 1400 -100 1975 475 
Q 2550 1050 2850 2175 
L 1300 2175 
Q 975 2175 700 2100 
L 475 2325 
L 2875 2325 
Q 2975 2975 3000 3600 
L 1650 3600 
Q 1300 2925 950 2525 
z
" transform="scale(0.015625)"/>
      </defs>
      <use xlink:href="#SimSun-635f"/>
      <use xlink:href="#SimSun-5931" x="100"/>
     </g>
    </g>
   </g>
   <g id="line2d_18">
    <path d="M 288.409091 307.799496 
L 1556.590909 307.792789 
L 1556.590909 307.792789 
" clip-path="url(#pc1c9e77984)" style="fill: none; stroke: #023eff; stroke-width: 1.5; stroke-linecap: round"/>
   </g>
   <g id="line2d_19">
    <path d="M 288.409091 307.799942 
L 906.559501 307.711895 
L 918.524833 307.66618 
L 937.675738 307.578067 
L 981.649528 307.300073 
L 983.019726 307.218179 
L 985.664527 307.049654 
L 988.659843 307.028228 
L 992.770436 306.944394 
L 993.61486 306.987056 
L 1000.386187 306.950988 
L 1001.549262 306.922641 
L 1001.772317 306.784568 
L 1006.360887 306.834809 
L 1015.18751 306.689509 
L 1018.628937 306.667805 
L 1022.070364 306.629553 
L 1022.61207 306.434818 
L 1025.702982 306.456202 
L 1025.957902 306.322258 
L 1028.58677 306.289415 
L 1040.408709 305.998152 
L 1041.364661 306.113274 
L 1042.097558 305.891062 
L 1045.889501 306.196797 
L 1048.645829 305.929124 
L 1050.621463 305.975717 
L 1050.717058 305.850651 
L 1051.370292 305.894574 
L 1051.657078 305.4629 
L 1052.023526 305.606702 
L 1055.38529 305.54619 
L 1055.640211 305.698454 
L 1056.118187 305.756118 
L 1060.690824 305.784064 
L 1060.818284 305.581898 
L 1062.857648 305.605189 
L 1068.147249 305.128505 
L 1076.033853 305.300624 
L 1077.324388 304.911535 
L 1078.598991 305.058276 
L 1085.258789 304.707885 
L 1086.740515 304.878738 
L 1086.995436 304.755869 
L 1087.473412 304.737354 
L 1088.636486 304.805252 
L 1090.452795 304.274603 
L 1092.93827 304.25047 
L 1094.515591 304.047905 
L 1097.415312 304.038992 
L 1099.964517 304.228574 
L 1100.538088 303.793015 
L 1102.43406 303.932652 
L 1104.792075 303.666816 
L 1107.261617 303.668281 
L 1112.2485 303.20847 
L 1113.013262 303.276172 
L 1113.140722 303.190777 
L 1115.498737 303.27938 
L 1116.247566 302.844117 
L 1117.299113 302.540139 
L 1117.330978 302.156204 
L 1120.883933 302.371767 
L 1121.855817 302.286947 
L 1122.397524 302.545098 
L 1124.357225 302.841873 
L 1124.644011 302.751773 
L 1126.444387 302.789502 
L 1127.097621 303.076752 
L 1131.192282 302.315082 
L 1132.211964 301.903076 
L 1132.371289 301.716523 
L 1133.629959 301.75802 
L 1133.868947 301.628782 
L 1134.458451 301.5597 
L 1138.553112 301.768479 
L 1138.680572 301.421217 
L 1139.620592 301.690961 
L 1139.843647 301.541563 
L 1142.488447 301.403302 
L 1143.412534 301.012908 
L 1143.651522 300.094129 
L 1145.89801 300.263192 
L 1146.423783 299.671464 
L 1146.599041 299.974468 
L 1149.243841 299.849568 
L 1149.482829 300.437165 
L 1150.056401 300.682487 
L 1151.936439 300.272213 
L 1153.959871 300.306016 
L 1155.521259 300.717216 
L 1158.054532 300.960795 
L 1159.106079 301.654737 
L 1159.55219 302.183235 
L 1160.954253 301.738742 
L 1163.025482 301.327179 
L 1163.742446 301.589081 
L 1167.104211 301.084732 
L 1168.793059 301.182178 
L 1168.840857 301.32965 
L 1169.255103 301.109484 
L 1169.749011 301.642302 
L 1172.680597 301.81578 
L 1172.808058 302.175906 
L 1175.389128 301.944886 
L 1176.233552 302.098274 
L 1176.695596 301.516928 
L 1177.890536 300.906853 
L 1179.420059 300.780157 
L 1181.411625 300.802711 
L 1184.805255 300.148608 
L 1185.331028 299.355779 
L 1186.000195 298.879173 
L 1188.039559 299.46733 
L 1188.374142 299.115843 
L 1189.648745 298.622582 
L 1192.500668 297.879351 
L 1193.026442 297.549016 
L 1193.600013 297.603266 
L 1196.467869 298.415333 
L 1200.052689 297.382742 
L 1200.75372 297.563471 
L 1203.366656 297.140289 
L 1203.605644 296.505958 
L 1204.14735 296.331 
L 1208.003023 296.936982 
L 1209.755601 296.364409 
L 1213.260758 296.164071 
L 1216.526928 296.238107 
L 1217.339487 295.918982 
L 1218.837145 295.778961 
L 1220.685319 295.914609 
L 1221.561608 294.805588 
L 1222.103314 294.616206 
L 1223.7125 296.002001 
L 1223.983353 295.213644 
L 1224.381666 295.520026 
L 1225.719999 295.376901 
L 1227.982419 295.794532 
L 1228.237339 293.945395 
L 1228.332935 294.241697 
L 1232.714381 294.008801 
L 1234.642218 293.381189 
L 1236.936502 293.420949 
L 1237.701264 292.966473 
L 1237.956184 292.534708 
L 1238.43416 292.92247 
L 1239.50164 292.751592 
L 1239.724696 292.989101 
L 1241.923385 293.37533 
L 1245.062094 294.168308 
L 1246.54382 294.908676 
L 1246.639415 294.178282 
L 1246.989931 294.125166 
L 1248.423858 294.585969 
L 1250.033044 293.67783 
L 1251.259849 293.417124 
L 1251.70596 293.869151 
L 1253.187686 293.924679 
L 1254.382626 293.581931 
L 1255.41824 293.71227 
L 1257.569132 293.638154 
L 1259.974945 293.998217 
L 1261.568198 294.564716 
L 1262.890598 293.293273 
L 1264.021808 294.07469 
L 1265.567264 293.039558 
L 1265.758454 293.543101 
L 1266.602878 294.91052 
L 1268.132402 295.22505 
L 1270.458551 294.876042 
L 1271.526031 295.221937 
L 1277.771584 295.417257 
L 1278.18583 294.537481 
L 1279.046187 293.309722 
L 1281.675055 292.318458 
L 1283.778149 292.783324 
L 1284.272057 290.077334 
L 1284.399518 290.581565 
L 1289.481996 290.766854 
L 1290.422015 290.987996 
L 1290.868126 290.741904 
L 1291.871876 291.047273 
L 1294.994652 290.742674 
L 1297.193342 288.740336 
L 1298.308619 288.506251 
L 1298.324551 288.755164 
L 1301.27207 288.513232 
L 1302.132427 288.345284 
L 1302.180224 288.128571 
L 1303.932803 287.340235 
L 1304.761295 287.680783 
L 1305.271136 288.159373 
L 1307.230837 288.762533 
L 1308.983416 284.94657 
L 1309.477324 285.395649 
L 1310.178356 286.405178 
L 1311.006848 283.499687 
L 1315.563552 282.944735 
L 1315.754742 284.820121 
L 1321.586049 285.911089 
L 1323.179303 286.552851 
L 1323.354561 287.429852 
L 1323.800671 287.804661 
L 1324.214917 288.668945 
L 1327.720075 286.888687 
L 1328.00686 287.1016 
L 1328.930947 287.138908 
L 1329.32926 283.329583 
L 1330.5242 284.801818 
L 1331.018109 280.35087 
L 1331.352692 279.749869 
L 1332.930013 280.807153 
L 1333.599179 281.572413 
L 1334.650726 280.875539 
L 1336.036857 281.179844 
L 1337.805368 281.812065 
L 1338.458602 278.746589 
L 1339.924395 277.211998 
L 1340.067788 277.972858 
L 1344.034988 277.772484 
L 1347.795066 279.139358 
L 1349.595442 278.344942 
L 1351.825997 274.242128 
L 1354.391135 275.866989 
L 1354.837245 277.361632 
L 1354.964706 278.558367 
L 1355.554209 280.142801 
L 1359.505478 280.333471 
L 1362.229941 279.227317 
L 1362.771647 280.434317 
L 1363.393016 279.770137 
L 1366.547657 279.928678 
L 1372.347099 279.667483 
L 1375.342415 279.853331 
L 1375.358348 276.192744 
L 1375.629201 274.016608 
L 1376.56922 273.785683 
L 1377.174657 273.208881 
L 1377.987216 272.049216 
L 1380.552354 272.348434 
L 1382.161539 269.490411 
L 1384.121241 268.249772 
L 1385.953482 269.955462 
L 1386.893502 269.968042 
L 1389.809155 270.731179 
L 1389.825088 269.399417 
L 1390.032211 269.720273 
L 1392.278698 267.998706 
L 1394.333994 265.155372 
L 1394.668578 266.69262 
L 1396.978795 265.539729 
L 1397.632029 263.492813 
L 1398.062207 263.490703 
L 1398.540183 265.675374 
L 1399.798853 259.4747 
L 1401.264646 258.621649 
L 1401.66296 259.099986 
L 1405.056589 259.462445 
L 1409.836349 259.858317 
L 1410.314325 258.922689 
L 1410.378055 254.13335 
L 1410.760436 254.174169 
L 1410.871964 247.318915 
L 1411.445535 250.315609 
L 1412.258094 247.694002 
L 1413.006923 247.634776 
L 1413.468966 249.961322 
L 1414.647974 252.489667 
L 1417.595492 254.009796 
L 1418.886028 249.926581 
L 1423.283407 249.786325 
L 1423.952573 251.028214 
L 1425.768882 251.108092 
L 1426.390251 246.87076 
L 1427.776381 249.905731 
L 1428.190627 253.094627 
L 1430.038801 254.177576 
L 1431.201875 251.973964 
L 1432.492411 246.835948 
L 1433.703283 251.767075 
L 1434.197192 244.328267 
L 1434.547707 241.11578 
L 1435.073481 241.95012 
L 1435.471794 237.752081 
L 1435.519592 238.213432 
L 1438.021 241.688896 
L 1439.263737 240.477887 
L 1439.59832 243.289091 
L 1439.614253 244.814696 
L 1439.646118 239.155431 
L 1441.271236 236.651843 
L 1441.319034 237.666029 
L 1443.772644 242.882003 
L 1443.884172 244.991286 
L 1446.401512 246.390245 
L 1448.791392 246.621177 
L 1449.986332 246.34339 
L 1450.958216 243.410268 
L 1453.666747 241.755591 
L 1455.881369 246.353031 
L 1462.732358 239.779215 
L 1463.226267 240.507985 
L 1463.385592 236.459568 
L 1463.465255 240.269715 
L 1464.214084 238.955872 
L 1465.042575 241.244518 
L 1465.170036 243.234953 
L 1465.536484 243.189349 
L 1466.01446 240.514066 
L 1466.922614 236.478478 
L 1467.448388 240.728694 
L 1468.866383 239.232394 
L 1469.72674 237.38665 
L 1469.838268 239.065787 
L 1473.1841 237.785004 
L 1479.41372 240.006371 
L 1480.528997 239.346325 
L 1481.102568 240.640429 
L 1482.679889 239.138971 
L 1484.910444 236.672278 
L 1485.404352 239.288823 
L 1489.738001 242.351049 
L 1490.152247 240.266038 
L 1490.439033 239.63785 
L 1491.713635 240.950372 
L 1492.701452 240.478355 
L 1493.784865 241.118182 
L 1497.082899 233.677171 
L 1497.46528 228.862087 
L 1497.497145 229.424123 
L 1498.102581 231.943775 
L 1499.504644 229.121118 
L 1499.823295 225.008727 
L 1500.189743 229.420222 
L 1502.085714 228.891334 
L 1505.479344 221.506482 
L 1506.291903 225.574265 
L 1508.586188 224.135421 
L 1509.239421 223.970519 
L 1509.335017 226.997584 
L 1509.844858 221.303017 
L 1511.199123 219.157175 
L 1513.047297 223.321765 
L 1513.334082 228.380637 
L 1515.70803 229.923033 
L 1517.699596 232.231191 
L 1518.942334 234.493745 
L 1519.707096 238.08537 
L 1520.949833 232.426611 
L 1521.87392 232.809403 
L 1522.256301 227.204376 
L 1522.654614 224.891467 
L 1522.989197 230.059729 
L 1524.789573 227.522449 
L 1527.322846 225.228044 
L 1528.007945 228.396889 
L 1528.900167 230.28686 
L 1531.959213 229.815895 
L 1532.102606 229.087356 
L 1532.62838 231.382743 
L 1533.791455 224.099041 
L 1534.699609 221.40257 
L 1542.825201 223.465805 
L 1543.908613 227.561263 
L 1545.135418 221.223262 
L 1545.358473 221.77805 
L 1546.489683 187.551222 
L 1548.258194 188.703403 
L 1551.333173 191.971121 
L 1551.476566 185.471017 
L 1552.432518 183.669211 
L 1553.022022 177.867598 
L 1553.069819 176.116144 
L 1553.308807 179.362275 
L 1555.921743 188.289673 
L 1556.288191 192.917211 
L 1556.590909 200.270203 
L 1556.590909 200.270203 
" clip-path="url(#pc1c9e77984)" style="fill: none; stroke: #ff7c00; stroke-width: 1.5; stroke-linecap: round"/>
   </g>
   <g id="line2d_20">
    <path d="M 288.409091 307.79998 
L 741.036417 307.693359 
L 743.585622 307.638998 
L 762.991447 307.578473 
L 777.47412 307.49124 
L 826.880904 307.02784 
L 827.072094 306.955242 
L 829.716895 307.021266 
L 830.019613 306.952593 
L 838.43199 306.882892 
L 838.989629 306.810242 
L 841.921215 306.775581 
L 847.210816 306.827749 
L 848.198633 306.70397 
L 849.425438 306.761754 
L 853.073988 306.530087 
L 857.662558 306.241517 
L 857.774085 306.352283 
L 858.905295 306.40158 
L 861.900611 306.392593 
L 865.692554 306.3385 
L 866.664439 306.26408 
L 871.332671 306.338103 
L 872.113365 305.960969 
L 874.85376 306.071707 
L 875.761915 305.901545 
L 878.088065 305.854308 
L 880.462012 305.505892 
L 885.034649 305.621969 
L 896.23522 305.343326 
L 897.111509 305.024948 
L 897.350497 305.099714 
L 898.991548 304.919248 
L 900.170555 305.120449 
L 900.425476 305.026982 
L 900.600734 305.162152 
L 904.647597 305.590385 
L 906.559501 305.587097 
L 908.805988 305.703801 
L 909.188369 305.35364 
L 912.884716 305.072798 
L 913.824736 305.249116 
L 913.999994 305.057087 
L 920.293344 305.089913 
L 920.739455 304.723134 
L 921.552014 304.7389 
L 923.591379 304.091111 
L 923.941894 303.832663 
L 925.35989 303.808588 
L 929.757269 303.982448 
L 932.816315 303.573954 
L 933.007505 303.841783 
L 935.508913 303.673839 
L 935.604508 303.727656 
L 935.668238 303.369543 
L 937.675738 303.819304 
L 941.611073 303.405248 
L 943.427382 302.969515 
L 944.86131 303.0255 
L 945.291488 302.918729 
L 946.406766 302.892356 
L 947.490178 303.22013 
L 948.796645 303.087815 
L 949.561407 302.367344 
L 949.816328 302.665315 
L 954.851008 302.917627 
L 959.041264 302.216566 
L 959.423645 302.371344 
L 959.806026 302.052794 
L 962.307433 302.290734 
L 964.075945 302.192534 
L 964.36273 302.035332 
L 972.265266 302.461334 
L 973.157488 301.921631 
L 977.268082 301.844146 
L 980.390858 302.007271 
L 981.09189 302.365324 
L 981.649528 302.496779 
L 982.509885 301.957524 
L 983.019726 302.413132 
L 984.166868 301.807353 
L 984.597047 301.391495 
L 984.660777 301.464414 
L 985.314011 301.151981 
L 985.664527 301.422719 
L 988.38899 301.467657 
L 988.45272 301.651384 
L 988.659843 301.739212 
L 989.934445 301.477428 
L 989.998175 301.631028 
L 990.571747 301.52708 
L 991.957877 300.836253 
L 992.069405 300.464845 
L 992.770436 300.011754 
L 993.61486 299.909406 
L 998.091902 299.94197 
L 999.047854 300.120413 
L 1000.386187 299.950129 
L 1001.549262 299.510484 
L 1001.772317 299.244301 
L 1004.130332 298.745225 
L 1006.360887 298.815496 
L 1009.642988 299.347621 
L 1009.786381 300.05326 
L 1010.630806 299.236191 
L 1013.355269 298.651598 
L 1015.18751 298.237851 
L 1018.071298 298.757417 
L 1018.628937 298.598931 
L 1022.070364 298.626979 
L 1022.61207 298.993849 
L 1023.329034 298.891132 
L 1023.902605 299.04039 
L 1027.216572 299.061468 
L 1028.58677 298.946657 
L 1031.725479 298.918453 
L 1039.723611 298.266544 
L 1040.408709 298.544137 
L 1041.364661 297.711513 
L 1042.097558 296.27759 
L 1043.531486 295.154348 
L 1044.359978 293.966073 
L 1046.733925 295.528191 
L 1046.797655 295.046816 
L 1047.004778 295.816014 
L 1047.227834 294.931407 
L 1047.610214 294.662137 
L 1047.801405 294.337695 
L 1048.422773 294.342644 
L 1048.645829 293.045441 
L 1050.621463 293.223649 
L 1050.717058 293.370233 
L 1051.370292 292.617653 
L 1051.657078 293.399584 
L 1052.023526 291.813873 
L 1053.712374 290.749712 
L 1055.38529 290.635732 
L 1055.640211 291.522816 
L 1056.118187 291.229986 
L 1060.818284 291.672681 
L 1062.857648 292.381867 
L 1065.94856 292.919125 
L 1068.147249 293.498727 
L 1072.767684 292.853565 
L 1073.62804 292.606435 
L 1074.026354 292.128956 
L 1076.033853 292.930331 
L 1077.324388 292.010949 
L 1078.598991 291.85148 
L 1084.462163 292.643999 
L 1085.258789 291.937859 
L 1086.740515 291.065328 
L 1086.995436 290.566048 
L 1087.473412 291.406818 
L 1088.636486 287.541457 
L 1090.452795 288.096714 
L 1091.854858 289.252601 
L 1092.93827 288.922755 
L 1094.388131 288.300779 
L 1094.515591 288.989631 
L 1097.415312 289.469228 
L 1099.964517 288.261904 
L 1100.538088 288.185125 
L 1102.43406 287.644347 
L 1103.915785 287.748534 
L 1104.792075 288.133423 
L 1107.261617 289.731833 
L 1112.2485 288.870953 
L 1113.013262 289.030696 
L 1113.140722 288.248649 
L 1115.498737 288.647857 
L 1116.247566 287.81278 
L 1117.299113 288.283421 
L 1117.330978 286.23525 
L 1120.007644 285.969975 
L 1120.883933 287.447806 
L 1121.855817 283.904933 
L 1122.397524 285.148147 
L 1124.357225 284.953822 
L 1124.644011 285.772447 
L 1126.444387 286.427708 
L 1127.097621 284.826399 
L 1129.009525 283.357657 
L 1131.192282 284.476753 
L 1132.211964 283.437774 
L 1132.371289 283.003231 
L 1133.629959 283.909554 
L 1133.868947 281.222992 
L 1134.458451 281.118532 
L 1138.680572 281.990439 
L 1139.620592 282.505167 
L 1139.843647 283.761935 
L 1142.488447 283.989934 
L 1143.412534 280.631309 
L 1143.524062 281.54357 
L 1143.651522 279.336606 
L 1145.89801 280.086211 
L 1146.423783 279.136264 
L 1146.599041 279.414905 
L 1149.243841 281.335129 
L 1150.056401 276.15835 
L 1151.936439 276.778181 
L 1153.959871 277.292909 
L 1155.521259 274.346113 
L 1158.054532 271.258582 
L 1158.405048 273.921119 
L 1159.106079 273.168876 
L 1159.55219 263.387732 
L 1160.954253 258.486188 
L 1163.025482 260.319096 
L 1163.742446 262.317366 
L 1167.104211 265.63143 
L 1168.793059 267.834931 
L 1168.840857 265.223488 
L 1169.255103 265.693888 
L 1169.749011 268.52226 
L 1172.600935 267.524918 
L 1172.680597 266.713701 
L 1172.808058 268.868451 
L 1175.389128 268.142105 
L 1176.233552 269.602969 
L 1176.695596 269.102632 
L 1177.890536 270.470194 
L 1179.420059 272.493658 
L 1181.411625 271.605792 
L 1184.805255 270.969823 
L 1185.331028 273.055344 
L 1186.000195 272.726679 
L 1186.844619 268.292889 
L 1188.039559 268.02099 
L 1188.374142 270.384884 
L 1189.648745 266.920733 
L 1192.500668 261.305889 
L 1193.026442 260.619707 
L 1193.600013 260.67249 
L 1195.878365 201.395261 
L 1196.467869 209.28618 
L 1199.670308 213.377245 
L 1200.052689 214.976244 
L 1200.75372 224.624352 
L 1203.366656 230.725189 
L 1203.605644 235.851702 
L 1204.14735 239.772498 
L 1208.003023 244.148285 
L 1213.260758 246.075198 
L 1216.526928 245.145102 
L 1217.339487 248.201578 
L 1218.837145 251.101167 
L 1220.685319 252.113945 
L 1221.561608 251.383866 
L 1222.039584 253.059693 
L 1222.103314 252.949894 
L 1223.282322 256.381714 
L 1223.7125 253.66976 
L 1223.983353 253.906936 
L 1224.381666 253.102921 
L 1225.719999 251.890213 
L 1227.982419 255.498991 
L 1228.237339 257.092364 
L 1228.332935 255.491806 
L 1231.965552 252.344279 
L 1232.714381 254.259953 
L 1234.642218 254.399784 
L 1236.936502 251.274397 
L 1237.701264 253.668142 
L 1237.956184 252.142377 
L 1238.43416 255.373227 
L 1239.50164 256.381515 
L 1239.724696 254.261608 
L 1241.923385 253.93913 
L 1243.819356 254.878869 
L 1245.062094 252.385686 
L 1246.54382 248.794603 
L 1246.639415 250.218818 
L 1246.989931 250.196387 
L 1248.423858 253.778444 
L 1250.033044 252.804137 
L 1251.259849 249.460781 
L 1251.70596 250.437593 
L 1253.187686 248.89337 
L 1254.382626 247.225614 
L 1255.41824 246.011204 
L 1257.569132 249.044448 
L 1259.974945 247.528267 
L 1261.568198 246.003019 
L 1262.890598 250.121655 
L 1264.021808 248.55393 
L 1265.567264 252.146904 
L 1265.758454 250.55048 
L 1266.204565 249.949493 
L 1266.602878 252.825847 
L 1268.132402 250.72955 
L 1270.458551 242.340702 
L 1271.526031 241.606221 
L 1277.771584 235.563815 
L 1278.18583 237.039812 
L 1279.046187 238.705744 
L 1281.675055 241.2038 
L 1283.778149 239.786882 
L 1284.272057 242.016443 
L 1284.399518 240.375848 
L 1289.481996 239.005387 
L 1290.422015 236.24101 
L 1290.868126 237.948996 
L 1291.871876 239.685261 
L 1294.994652 238.640977 
L 1297.193342 237.648427 
L 1298.308619 239.771889 
L 1298.324551 239.053661 
L 1299.662884 236.182678 
L 1301.27207 237.685495 
L 1302.132427 235.029397 
L 1302.180224 229.609664 
L 1303.932803 231.994501 
L 1304.761295 230.068439 
L 1305.271136 228.582804 
L 1307.230837 225.580594 
L 1308.712563 227.192992 
L 1308.983416 221.413958 
L 1311.006848 229.07518 
L 1315.563552 230.636039 
L 1315.754742 238.52356 
L 1318.367678 233.350663 
L 1321.586049 232.126068 
L 1323.179303 232.431524 
L 1323.354561 234.88959 
L 1323.800671 234.041125 
L 1324.214917 229.947174 
L 1327.258031 233.532978 
L 1327.720075 231.491344 
L 1328.00686 231.295419 
L 1328.930947 231.188238 
L 1329.32926 227.615078 
L 1330.5242 223.994002 
L 1331.018109 228.358518 
L 1331.751005 232.017239 
L 1332.930013 226.449884 
L 1333.599179 223.953739 
L 1334.650726 227.114894 
L 1336.036857 225.883923 
L 1337.805368 228.139572 
L 1338.458602 228.004426 
L 1339.924395 231.617915 
L 1340.067788 224.406762 
L 1344.034988 211.419989 
L 1347.795066 213.882498 
L 1349.595442 216.944342 
L 1351.825997 218.045061 
L 1354.391135 222.44343 
L 1354.837245 215.813583 
L 1354.964706 217.024222 
L 1355.554209 215.613112 
L 1359.505478 220.067554 
L 1362.229941 214.72603 
L 1362.771647 217.578141 
L 1363.393016 222.414404 
L 1366.547657 223.402046 
L 1372.347099 214.0327 
L 1375.342415 213.512512 
L 1375.358348 211.026931 
L 1375.629201 212.627173 
L 1376.56922 205.208895 
L 1377.174657 207.725988 
L 1377.987216 201.429333 
L 1379.309616 204.471283 
L 1380.552354 198.031172 
L 1382.161539 199.64291 
L 1384.121241 197.960623 
L 1385.953482 198.408146 
L 1386.893502 205.507132 
L 1389.809155 208.861921 
L 1389.825088 212.394474 
L 1390.032211 208.056073 
L 1392.278698 214.205521 
L 1393.075324 213.437288 
L 1394.333994 210.13999 
L 1394.668578 213.134629 
L 1396.978795 218.448181 
L 1397.632029 222.753031 
L 1398.062207 224.722394 
L 1398.540183 228.348571 
L 1399.798853 228.911015 
L 1401.264646 232.318358 
L 1401.66296 230.636459 
L 1405.056589 233.367011 
L 1409.836349 230.743756 
L 1410.314325 226.153397 
L 1410.378055 222.873857 
L 1410.760436 213.840396 
L 1410.871964 214.153763 
L 1411.445535 219.37992 
L 1412.258094 221.08813 
L 1413.006923 217.925707 
L 1413.468966 214.403894 
L 1414.647974 215.453395 
L 1417.595492 206.425918 
L 1418.886028 206.014528 
L 1423.283407 205.437972 
L 1423.952573 208.473671 
L 1425.768882 202.93905 
L 1426.390251 194.902489 
L 1427.776381 179.549958 
L 1428.190627 181.09553 
L 1430.038801 173.427696 
L 1431.201875 174.336125 
L 1432.492411 174.388682 
L 1433.384632 169.58043 
L 1433.703283 172.166456 
L 1434.197192 168.757316 
L 1434.547707 161.676612 
L 1435.073481 159.605576 
L 1435.471794 160.606107 
L 1435.519592 152.107238 
L 1438.021 148.366388 
L 1439.263737 153.402541 
L 1439.59832 159.851875 
L 1439.614253 165.709897 
L 1439.646118 160.733745 
L 1441.271236 150.577801 
L 1441.319034 155.502246 
L 1441.956335 159.894521 
L 1443.772644 160.802628 
L 1443.884172 160.37333 
L 1446.401512 171.311166 
L 1448.791392 161.789546 
L 1449.986332 151.268551 
L 1450.958216 158.415505 
L 1453.666747 157.64189 
L 1455.881369 165.46349 
L 1462.732358 159.050538 
L 1463.385592 172.685297 
L 1463.465255 170.651045 
L 1464.214084 164.051459 
L 1465.042575 170.71963 
L 1465.170036 179.222712 
L 1465.536484 185.09921 
L 1466.922614 174.304967 
L 1467.448388 175.087595 
L 1468.866383 167.984278 
L 1469.72674 170.318662 
L 1469.838268 174.051439 
L 1473.1841 162.787422 
L 1479.41372 165.847296 
L 1480.528997 163.739495 
L 1481.102568 149.653927 
L 1482.679889 155.359741 
L 1484.910444 158.061802 
L 1485.404352 157.701745 
L 1489.738001 160.283654 
L 1490.439033 154.723321 
L 1491.713635 162.110397 
L 1492.701452 169.368154 
L 1493.784865 165.140072 
L 1497.082899 171.851325 
L 1497.497145 152.788208 
L 1498.102581 155.625214 
L 1499.504644 155.504676 
L 1500.189743 159.276281 
L 1502.085714 151.519172 
L 1505.479344 152.676782 
L 1506.291903 156.847358 
L 1508.586188 143.685395 
L 1509.239421 148.441644 
L 1509.335017 154.997873 
L 1509.844858 149.171839 
L 1511.199123 155.269648 
L 1513.047297 144.395812 
L 1513.158825 154.803452 
L 1513.334082 153.893777 
L 1515.70803 153.501751 
L 1517.699596 150.207581 
L 1518.942334 154.687035 
L 1519.707096 159.135566 
L 1520.949833 160.983617 
L 1521.87392 153.801785 
L 1522.256301 152.239929 
L 1522.654614 154.179073 
L 1522.989197 156.783428 
L 1524.789573 165.904232 
L 1527.322846 163.054936 
L 1528.007945 164.458541 
L 1528.900167 164.416547 
L 1531.959213 166.655732 
L 1532.102606 175.072146 
L 1532.62838 179.404457 
L 1534.699609 155.830608 
L 1542.825201 160.978378 
L 1543.908613 153.084221 
L 1545.135418 124.202088 
L 1545.661192 96.491409 
L 1545.979842 99.641581 
L 1546.489683 108.139805 
L 1548.258194 119.64704 
L 1551.333173 115.155941 
L 1551.476566 121.84047 
L 1552.432518 125.946207 
L 1553.022022 92.441352 
L 1553.069819 102.390575 
L 1553.308807 108.245355 
L 1555.921743 105.462703 
L 1556.288191 117.076841 
L 1556.590909 132.208199 
L 1556.590909 132.208199 
" clip-path="url(#pc1c9e77984)" style="fill: none; stroke: #1ac938; stroke-width: 1.5; stroke-linecap: round"/>
   </g>
   <g id="line2d_21">
    <path d="M 288.409091 307.799976 
L 827.470408 307.693856 
L 838.989629 307.677266 
L 908.805988 307.265448 
L 913.999994 307.149287 
L 921.552014 307.112975 
L 925.35989 307.042727 
L 929.757269 307.067222 
L 932.816315 306.938365 
L 933.007505 306.799255 
L 935.508913 306.756107 
L 935.668238 306.535064 
L 936.417067 306.501707 
L 936.512663 306.426335 
L 937.675738 306.238453 
L 941.611073 306.231877 
L 943.013136 306.084271 
L 943.427382 306.189747 
L 947.490178 306.041727 
L 948.796645 305.853173 
L 949.816328 305.87975 
L 957.0019 305.59247 
L 957.113428 305.517273 
L 959.423645 305.274761 
L 959.806026 305.395608 
L 960.793843 305.22529 
L 962.307433 305.368336 
L 964.075945 305.228695 
L 964.36273 305.028834 
L 972.265266 305.210107 
L 972.536119 305.352719 
L 973.157488 305.403464 
L 977.268082 305.51521 
L 980.390858 305.185178 
L 981.09189 305.303965 
L 982.509885 305.054391 
L 983.019726 305.289354 
L 984.660777 304.979933 
L 985.314011 305.126693 
L 985.664527 304.79292 
L 988.45272 304.743631 
L 988.659843 304.905994 
L 990.571747 304.972097 
L 991.957877 304.837181 
L 992.069405 304.631931 
L 992.770436 304.759629 
L 993.61486 304.353767 
L 998.091902 304.461159 
L 999.047854 304.331628 
L 1001.549262 304.44257 
L 1001.772317 304.172556 
L 1004.130332 304.090047 
L 1006.360887 304.204241 
L 1009.642988 303.753067 
L 1009.786381 304.017989 
L 1010.630806 303.492041 
L 1012.781697 303.278659 
L 1013.355269 302.806882 
L 1015.18751 303.035706 
L 1018.071298 303.281493 
L 1018.628937 303.191748 
L 1022.070364 302.355288 
L 1022.61207 302.37765 
L 1023.902605 301.300196 
L 1025.702982 300.954197 
L 1025.957902 301.0352 
L 1027.216572 300.903189 
L 1028.58677 300.97663 
L 1031.725479 301.265503 
L 1039.723611 301.166733 
L 1040.408709 300.955193 
L 1041.364661 300.986637 
L 1041.683312 300.776967 
L 1042.097558 300.134296 
L 1043.531486 300.019873 
L 1044.359978 298.552156 
L 1045.31593 299.04793 
L 1045.889501 298.870463 
L 1046.733925 299.145859 
L 1046.797655 299.60935 
L 1047.004778 298.419686 
L 1047.227834 298.693706 
L 1047.610214 298.78153 
L 1047.801405 298.450782 
L 1048.422773 298.880826 
L 1048.645829 298.788288 
L 1050.621463 298.730514 
L 1050.717058 298.08943 
L 1051.370292 298.090252 
L 1052.023526 297.556916 
L 1053.712374 298.027173 
L 1055.38529 297.205714 
L 1055.640211 298.000398 
L 1056.118187 298.463924 
L 1060.818284 297.610693 
L 1062.857648 296.047304 
L 1068.147249 296.498062 
L 1072.767684 296.097959 
L 1073.62804 296.652118 
L 1074.026354 295.924116 
L 1076.033853 296.240526 
L 1077.324388 295.154129 
L 1078.296273 293.974787 
L 1078.598991 294.414204 
L 1084.462163 294.52454 
L 1085.258789 293.985727 
L 1086.740515 294.521843 
L 1086.995436 293.772183 
L 1087.473412 293.524605 
L 1090.452795 295.009191 
L 1091.854858 295.038809 
L 1092.93827 293.917045 
L 1094.388131 294.399853 
L 1094.419996 295.080428 
L 1094.515591 294.383758 
L 1097.415312 293.99198 
L 1100.538088 290.678717 
L 1102.43406 290.921531 
L 1103.915785 290.880087 
L 1105.748027 292.339877 
L 1107.261617 292.879996 
L 1112.2485 293.114211 
L 1112.949532 291.002934 
L 1113.140722 289.42438 
L 1115.498737 289.939516 
L 1116.247566 286.330822 
L 1117.299113 283.908295 
L 1117.330978 284.781414 
L 1120.007644 284.704794 
L 1120.883933 286.281749 
L 1121.855817 284.861465 
L 1122.397524 283.769986 
L 1124.357225 284.179543 
L 1124.644011 283.285174 
L 1126.444387 283.834143 
L 1127.097621 284.287127 
L 1130.666508 284.46159 
L 1131.192282 285.20752 
L 1132.211964 285.654402 
L 1132.371289 282.847051 
L 1133.629959 281.458552 
L 1133.868947 282.189667 
L 1134.458451 282.851154 
L 1138.553112 282.072843 
L 1138.680572 280.513998 
L 1139.843647 278.55813 
L 1142.488447 277.290059 
L 1143.412534 279.623748 
L 1143.524062 279.59763 
L 1143.587792 279.718356 
L 1143.651522 281.230055 
L 1145.89801 279.467261 
L 1146.423783 280.347764 
L 1146.599041 281.469182 
L 1149.243841 279.653801 
L 1149.482829 278.848185 
L 1150.056401 282.519184 
L 1151.936439 283.848205 
L 1153.959871 283.623032 
L 1158.054532 280.352504 
L 1158.405048 279.340586 
L 1159.106079 280.103099 
L 1159.55219 282.448624 
L 1160.954253 283.025638 
L 1163.025482 280.89827 
L 1163.742446 281.963506 
L 1167.104211 282.21765 
L 1168.793059 282.1172 
L 1168.840857 281.722609 
L 1169.255103 283.289966 
L 1169.749011 280.410894 
L 1172.600935 280.258724 
L 1172.808058 278.324586 
L 1175.389128 277.916093 
L 1176.233552 277.603543 
L 1176.695596 277.648518 
L 1177.890536 278.435972 
L 1179.420059 279.100943 
L 1181.411625 276.660154 
L 1184.805255 276.101389 
L 1185.331028 276.161836 
L 1186.000195 277.942414 
L 1186.844619 279.015171 
L 1188.039559 280.323903 
L 1188.262614 279.77125 
L 1188.374142 281.194954 
L 1189.648745 282.165235 
L 1193.026442 280.473457 
L 1193.600013 280.353645 
L 1195.878365 281.233663 
L 1196.467869 282.147566 
L 1199.670308 281.861177 
L 1200.052689 280.651784 
L 1200.658125 280.581297 
L 1200.75372 279.372933 
L 1203.605644 273.905767 
L 1204.14735 275.715095 
L 1208.003023 273.710585 
L 1209.755601 273.67062 
L 1213.260758 273.241024 
L 1216.526928 271.59071 
L 1217.339487 269.097084 
L 1218.837145 269.73186 
L 1220.685319 271.368814 
L 1221.561608 273.379766 
L 1222.039584 273.062475 
L 1222.103314 271.802293 
L 1223.282322 265.948705 
L 1223.7125 267.861386 
L 1223.983353 268.146222 
L 1224.381666 270.743396 
L 1225.719999 270.676405 
L 1227.982419 271.99624 
L 1228.237339 273.61417 
L 1228.332935 271.531081 
L 1231.965552 270.381501 
L 1232.714381 265.029459 
L 1234.642218 262.506192 
L 1236.936502 264.13376 
L 1237.701264 264.076217 
L 1237.956184 264.244185 
L 1239.50164 260.736851 
L 1239.724696 263.892561 
L 1241.923385 259.811388 
L 1243.819356 262.060116 
L 1245.062094 259.969131 
L 1246.54382 257.796723 
L 1246.639415 258.791622 
L 1246.989931 258.553928 
L 1248.423858 255.288911 
L 1250.033044 252.844 
L 1251.259849 254.259457 
L 1251.70596 255.842638 
L 1253.187686 258.688308 
L 1254.382626 256.470328 
L 1255.41824 255.730746 
L 1257.569132 253.421953 
L 1259.974945 249.270071 
L 1261.568198 248.153358 
L 1262.890598 248.616051 
L 1264.021808 251.714328 
L 1265.567264 254.969773 
L 1265.758454 257.761756 
L 1266.204565 250.381229 
L 1266.602878 253.153589 
L 1268.132402 256.119407 
L 1270.458551 253.877491 
L 1271.526031 256.285957 
L 1277.771584 256.442359 
L 1278.18583 254.050264 
L 1279.046187 250.893562 
L 1281.675055 254.415376 
L 1283.778149 246.356728 
L 1284.272057 248.335024 
L 1284.399518 245.584041 
L 1289.481996 247.57719 
L 1290.422015 249.958631 
L 1290.868126 249.878535 
L 1291.871876 244.480838 
L 1294.994652 239.062437 
L 1297.193342 242.356518 
L 1298.308619 240.755509 
L 1298.324551 240.841859 
L 1299.662884 239.21803 
L 1301.27207 242.475606 
L 1302.132427 239.334347 
L 1302.180224 227.875251 
L 1304.761295 223.74512 
L 1305.271136 223.733739 
L 1307.230837 224.056847 
L 1308.712563 215.860855 
L 1308.983416 216.056733 
L 1309.477324 205.407831 
L 1310.178356 210.765287 
L 1311.006848 208.865012 
L 1315.563552 204.672112 
L 1315.722877 196.764845 
L 1315.754742 202.299479 
L 1318.367678 198.181282 
L 1321.586049 197.99115 
L 1323.179303 200.274235 
L 1323.354561 204.31327 
L 1324.214917 216.847391 
L 1327.258031 219.08639 
L 1327.720075 220.993355 
L 1328.00686 225.418464 
L 1328.930947 228.670004 
L 1329.32926 226.692153 
L 1330.5242 225.358211 
L 1331.018109 228.391033 
L 1331.352692 229.184439 
L 1331.751005 223.307114 
L 1332.930013 228.549766 
L 1333.599179 228.1218 
L 1334.650726 229.203763 
L 1336.036857 233.129904 
L 1337.805368 235.696562 
L 1338.458602 235.300937 
L 1339.924395 234.770625 
L 1340.067788 236.726354 
L 1344.034988 238.562144 
L 1347.795066 233.877259 
L 1349.595442 236.688276 
L 1351.825997 232.688643 
L 1354.391135 221.060478 
L 1354.837245 223.438358 
L 1354.964706 220.21868 
L 1355.554209 225.441707 
L 1359.505478 225.772423 
L 1362.229941 219.711582 
L 1362.771647 210.600312 
L 1363.393016 211.378119 
L 1366.547657 217.599152 
L 1372.347099 219.964732 
L 1375.342415 212.961521 
L 1375.358348 215.55527 
L 1375.629201 217.803942 
L 1377.174657 208.570696 
L 1377.987216 211.723749 
L 1379.309616 215.864726 
L 1380.552354 218.301657 
L 1384.121241 221.15242 
L 1386.893502 207.925049 
L 1389.809155 207.92249 
L 1389.825088 206.796341 
L 1390.032211 202.468025 
L 1392.278698 207.352251 
L 1393.075324 208.168215 
L 1394.333994 208.613464 
L 1394.668578 210.283201 
L 1396.978795 213.316158 
L 1397.632029 204.454995 
L 1398.062207 200.638476 
L 1398.540183 207.152978 
L 1399.798853 206.129443 
L 1401.264646 203.904107 
L 1401.66296 199.270445 
L 1405.056589 197.900431 
L 1409.836349 194.823258 
L 1410.314325 193.454992 
L 1410.378055 182.582788 
L 1410.760436 177.120634 
L 1410.871964 182.293017 
L 1411.445535 183.565745 
L 1412.258094 190.082483 
L 1413.006923 184.874786 
L 1413.468966 190.510491 
L 1414.647974 193.256616 
L 1417.595492 188.750473 
L 1418.886028 190.561458 
L 1423.283407 189.648791 
L 1423.952573 191.739716 
L 1425.768882 187.211653 
L 1426.390251 183.260321 
L 1427.776381 188.115896 
L 1428.190627 185.058483 
L 1430.038801 183.27039 
L 1431.201875 186.128011 
L 1432.492411 174.468368 
L 1433.384632 171.857075 
L 1433.703283 149.939802 
L 1434.197192 144.424235 
L 1434.547707 144.343903 
L 1435.073481 147.365376 
L 1435.519592 159.546563 
L 1438.021 151.651718 
L 1439.263737 144.650569 
L 1439.614253 149.912691 
L 1439.646118 151.617573 
L 1441.271236 158.452831 
L 1441.319034 161.09126 
L 1441.956335 163.24582 
L 1443.772644 161.545765 
L 1443.884172 145.396247 
L 1446.401512 143.868363 
L 1448.791392 152.019483 
L 1449.986332 148.525208 
L 1450.958216 152.998735 
L 1453.666747 149.758404 
L 1455.881369 139.19996 
L 1462.732358 137.873924 
L 1463.465255 126.575254 
L 1464.214084 124.698808 
L 1465.042575 127.756662 
L 1465.170036 139.662442 
L 1465.536484 140.486738 
L 1466.01446 129.986066 
L 1466.922614 123.89873 
L 1467.448388 130.608784 
L 1468.866383 120.244167 
L 1469.72674 120.647051 
L 1469.838268 125.674912 
L 1473.1841 129.614703 
L 1479.41372 129.614102 
L 1480.528997 119.972364 
L 1481.102568 124.055413 
L 1482.679889 114.148502 
L 1484.910444 121.208484 
L 1485.404352 116.795119 
L 1489.738001 126.957666 
L 1490.152247 117.987915 
L 1490.439033 124.295618 
L 1491.713635 134.387773 
L 1492.701452 139.862057 
L 1493.784865 143.784005 
L 1497.082899 149.907519 
L 1497.497145 127.204525 
L 1498.102581 127.434634 
L 1499.504644 125.339674 
L 1500.189743 102.242267 
L 1502.085714 110.120916 
L 1505.479344 117.114749 
L 1506.291903 103.457582 
L 1508.586188 107.669467 
L 1509.239421 108.556586 
L 1509.335017 107.779549 
L 1509.844858 112.886058 
L 1511.199123 112.020285 
L 1513.047297 121.279236 
L 1513.334082 132.193223 
L 1515.70803 114.339639 
L 1517.699596 124.156899 
L 1518.942334 129.527559 
L 1519.707096 121.676046 
L 1520.949833 120.988559 
L 1521.87392 128.985854 
L 1522.256301 111.422775 
L 1522.654614 120.658212 
L 1522.989197 102.429426 
L 1524.789573 99.406848 
L 1527.322846 99.884609 
L 1528.007945 97.231796 
L 1528.900167 96.470771 
L 1531.959213 89.170564 
L 1532.102606 81.506754 
L 1532.62838 84.497406 
L 1533.791455 83.291845 
L 1534.699609 79.938599 
L 1542.825201 72.743387 
L 1543.908613 71.509988 
L 1545.135418 81.63877 
L 1545.358473 79.051441 
L 1545.661192 86.914036 
L 1545.979842 83.286601 
L 1546.489683 93.293858 
L 1548.258194 77.382996 
L 1551.333173 89.197416 
L 1551.476566 100.703782 
L 1552.432518 107.852638 
L 1553.069819 74.930737 
L 1553.308807 76.566238 
L 1555.921743 66.816913 
L 1556.288191 55.8 
L 1556.590909 74.878929 
L 1556.590909 74.878929 
" clip-path="url(#pc1c9e77984)" style="fill: none; stroke: #e8000b; stroke-width: 1.5; stroke-linecap: round"/>
   </g>
   <g id="line2d_22">
    <path d="M 288.409091 307.799984 
L 1468.866383 307.697953 
L 1473.1841 307.672052 
L 1492.701452 307.551047 
L 1502.085714 307.282089 
L 1515.70803 307.074828 
L 1521.87392 306.745035 
L 1522.654614 306.59634 
L 1524.789573 306.576298 
L 1531.959213 306.235595 
L 1532.102606 306.050812 
L 1532.62838 306.057251 
L 1533.791455 305.878118 
L 1534.699609 305.878501 
L 1545.135418 305.650218 
L 1545.661192 305.28092 
L 1545.979842 305.326567 
L 1546.489683 305.099364 
L 1552.432518 305.080913 
L 1553.022022 304.88987 
L 1553.069819 304.67785 
L 1553.308807 304.574593 
L 1556.590909 304.450429 
L 1556.590909 304.450429 
" clip-path="url(#pc1c9e77984)" style="fill: none; stroke: #8b2be2; stroke-width: 1.5; stroke-linecap: round"/>
   </g>
   <g id="line2d_23"/>
   <g id="line2d_24"/>
   <g id="line2d_25"/>
   <g id="line2d_26"/>
   <g id="line2d_27"/>
   <g id="patch_3">
    <path d="M 225 320.4 
L 225 43.2 
" style="fill: none; stroke: #cccccc; stroke-width: 0.8; stroke-linejoin: miter; stroke-linecap: square"/>
   </g>
   <g id="patch_4">
    <path d="M 1620 320.4 
L 1620 43.2 
" style="fill: none; stroke: #cccccc; stroke-width: 0.8; stroke-linejoin: miter; stroke-linecap: square"/>
   </g>
   <g id="patch_5">
    <path d="M 225 320.4 
L 1620 320.4 
" style="fill: none; stroke: #cccccc; stroke-width: 0.8; stroke-linejoin: miter; stroke-linecap: square"/>
   </g>
   <g id="patch_6">
    <path d="M 225 43.2 
L 1620 43.2 
" style="fill: none; stroke: #cccccc; stroke-width: 0.8; stroke-linejoin: miter; stroke-linecap: square"/>
   </g>
   <g id="text_20">
    <!-- gamma = 0.98 -->
    <g style="fill: #262626" transform="translate(883.98 37.2)scale(0.12 -0.12)">
     <defs>
      <path id="ArialMT-67" d="M 319 -275 
L 866 -356 
Q 900 -609 1056 -725 
Q 1266 -881 1628 -881 
Q 2019 -881 2231 -725 
Q 2444 -569 2519 -288 
Q 2563 -116 2559 434 
Q 2191 0 1641 0 
Q 956 0 581 494 
Q 206 988 206 1678 
Q 206 2153 378 2554 
Q 550 2956 876 3175 
Q 1203 3394 1644 3394 
Q 2231 3394 2613 2919 
L 2613 3319 
L 3131 3319 
L 3131 450 
Q 3131 -325 2973 -648 
Q 2816 -972 2473 -1159 
Q 2131 -1347 1631 -1347 
Q 1038 -1347 672 -1080 
Q 306 -813 319 -275 
z
M 784 1719 
Q 784 1066 1043 766 
Q 1303 466 1694 466 
Q 2081 466 2343 764 
Q 2606 1063 2606 1700 
Q 2606 2309 2336 2618 
Q 2066 2928 1684 2928 
Q 1309 2928 1046 2623 
Q 784 2319 784 1719 
z
" transform="scale(0.015625)"/>
      <path id="ArialMT-61" d="M 2588 409 
Q 2275 144 1986 34 
Q 1697 -75 1366 -75 
Q 819 -75 525 192 
Q 231 459 231 875 
Q 231 1119 342 1320 
Q 453 1522 633 1644 
Q 813 1766 1038 1828 
Q 1203 1872 1538 1913 
Q 2219 1994 2541 2106 
Q 2544 2222 2544 2253 
Q 2544 2597 2384 2738 
Q 2169 2928 1744 2928 
Q 1347 2928 1158 2789 
Q 969 2650 878 2297 
L 328 2372 
Q 403 2725 575 2942 
Q 747 3159 1072 3276 
Q 1397 3394 1825 3394 
Q 2250 3394 2515 3294 
Q 2781 3194 2906 3042 
Q 3031 2891 3081 2659 
Q 3109 2516 3109 2141 
L 3109 1391 
Q 3109 606 3145 398 
Q 3181 191 3288 0 
L 2700 0 
Q 2613 175 2588 409 
z
M 2541 1666 
Q 2234 1541 1622 1453 
Q 1275 1403 1131 1340 
Q 988 1278 909 1158 
Q 831 1038 831 891 
Q 831 666 1001 516 
Q 1172 366 1500 366 
Q 1825 366 2078 508 
Q 2331 650 2450 897 
Q 2541 1088 2541 1459 
L 2541 1666 
z
" transform="scale(0.015625)"/>
      <path id="ArialMT-6d" d="M 422 0 
L 422 3319 
L 925 3319 
L 925 2853 
Q 1081 3097 1340 3245 
Q 1600 3394 1931 3394 
Q 2300 3394 2536 3241 
Q 2772 3088 2869 2813 
Q 3263 3394 3894 3394 
Q 4388 3394 4653 3120 
Q 4919 2847 4919 2278 
L 4919 0 
L 4359 0 
L 4359 2091 
Q 4359 2428 4304 2576 
Q 4250 2725 4106 2815 
Q 3963 2906 3769 2906 
Q 3419 2906 3187 2673 
Q 2956 2441 2956 1928 
L 2956 0 
L 2394 0 
L 2394 2156 
Q 2394 2531 2256 2718 
Q 2119 2906 1806 2906 
Q 1569 2906 1367 2781 
Q 1166 2656 1075 2415 
Q 984 2175 984 1722 
L 984 0 
L 422 0 
z
" transform="scale(0.015625)"/>
      <path id="ArialMT-20" transform="scale(0.015625)"/>
      <path id="ArialMT-3d" d="M 3381 2694 
L 356 2694 
L 356 3219 
L 3381 3219 
L 3381 2694 
z
M 3381 1303 
L 356 1303 
L 356 1828 
L 3381 1828 
L 3381 1303 
z
" transform="scale(0.015625)"/>
      <path id="ArialMT-2e" d="M 581 0 
L 581 641 
L 1222 641 
L 1222 0 
L 581 0 
z
" transform="scale(0.015625)"/>
      <path id="ArialMT-39" d="M 350 1059 
L 891 1109 
Q 959 728 1153 556 
Q 1347 384 1650 384 
Q 1909 384 2104 503 
Q 2300 622 2425 820 
Q 2550 1019 2634 1356 
Q 2719 1694 2719 2044 
Q 2719 2081 2716 2156 
Q 2547 1888 2255 1720 
Q 1963 1553 1622 1553 
Q 1053 1553 659 1965 
Q 266 2378 266 3053 
Q 266 3750 677 4175 
Q 1088 4600 1706 4600 
Q 2153 4600 2523 4359 
Q 2894 4119 3086 3673 
Q 3278 3228 3278 2384 
Q 3278 1506 3087 986 
Q 2897 466 2520 194 
Q 2144 -78 1638 -78 
Q 1100 -78 759 220 
Q 419 519 350 1059 
z
M 2653 3081 
Q 2653 3566 2395 3850 
Q 2138 4134 1775 4134 
Q 1400 4134 1122 3828 
Q 844 3522 844 3034 
Q 844 2597 1108 2323 
Q 1372 2050 1759 2050 
Q 2150 2050 2401 2323 
Q 2653 2597 2653 3081 
z
" transform="scale(0.015625)"/>
     </defs>
     <use xlink:href="#ArialMT-67"/>
     <use xlink:href="#ArialMT-61" x="55.615234"/>
     <use xlink:href="#ArialMT-6d" x="111.230469"/>
     <use xlink:href="#ArialMT-6d" x="194.53125"/>
     <use xlink:href="#ArialMT-61" x="277.832031"/>
     <use xlink:href="#ArialMT-20" x="333.447266"/>
     <use xlink:href="#ArialMT-3d" x="361.230469"/>
     <use xlink:href="#ArialMT-20" x="419.628906"/>
     <use xlink:href="#ArialMT-30" x="447.412109"/>
     <use xlink:href="#ArialMT-2e" x="503.027344"/>
     <use xlink:href="#ArialMT-39" x="530.810547"/>
     <use xlink:href="#ArialMT-38" x="586.425781"/>
    </g>
   </g>
   <g id="legend_1">
    <g id="patch_7">
     <path d="M 232 121.926562 
L 309.3 121.926562 
Q 311.3 121.926562 311.3 119.926562 
L 311.3 50.2 
Q 311.3 48.2 309.3 48.2 
L 232 48.2 
Q 230 48.2 230 50.2 
L 230 119.926562 
Q 230 121.926562 232 121.926562 
z
" style="fill: #ffffff; opacity: 0.8; stroke: #cccccc; stroke-linejoin: miter"/>
    </g>
    <g id="line2d_28">
     <path d="M 234 55.857812 
L 244 55.857812 
L 254 55.857812 
" style="fill: none; stroke: #023eff; stroke-width: 1.5; stroke-linecap: round"/>
    </g>
    <g id="text_21">
     <!-- lr = 0.5e-3 -->
     <g style="fill: #262626" transform="translate(262 59.357812)scale(0.1 -0.1)">
      <defs>
       <path id="ArialMT-6c" d="M 409 0 
L 409 4581 
L 972 4581 
L 972 0 
L 409 0 
z
" transform="scale(0.015625)"/>
       <path id="ArialMT-72" d="M 416 0 
L 416 3319 
L 922 3319 
L 922 2816 
Q 1116 3169 1280 3281 
Q 1444 3394 1641 3394 
Q 1925 3394 2219 3213 
L 2025 2691 
Q 1819 2813 1613 2813 
Q 1428 2813 1281 2702 
Q 1134 2591 1072 2394 
Q 978 2094 978 1738 
L 978 0 
L 416 0 
z
" transform="scale(0.015625)"/>
       <path id="ArialMT-65" d="M 2694 1069 
L 3275 997 
Q 3138 488 2766 206 
Q 2394 -75 1816 -75 
Q 1088 -75 661 373 
Q 234 822 234 1631 
Q 234 2469 665 2931 
Q 1097 3394 1784 3394 
Q 2450 3394 2872 2941 
Q 3294 2488 3294 1666 
Q 3294 1616 3291 1516 
L 816 1516 
Q 847 969 1125 678 
Q 1403 388 1819 388 
Q 2128 388 2347 550 
Q 2566 713 2694 1069 
z
M 847 1978 
L 2700 1978 
Q 2663 2397 2488 2606 
Q 2219 2931 1791 2931 
Q 1403 2931 1139 2672 
Q 875 2413 847 1978 
z
" transform="scale(0.015625)"/>
       <path id="ArialMT-2d" d="M 203 1375 
L 203 1941 
L 1931 1941 
L 1931 1375 
L 203 1375 
z
" transform="scale(0.015625)"/>
      </defs>
      <use xlink:href="#ArialMT-6c"/>
      <use xlink:href="#ArialMT-72" x="22.216797"/>
      <use xlink:href="#ArialMT-20" x="55.517578"/>
      <use xlink:href="#ArialMT-3d" x="83.300781"/>
      <use xlink:href="#ArialMT-20" x="141.699219"/>
      <use xlink:href="#ArialMT-30" x="169.482422"/>
      <use xlink:href="#ArialMT-2e" x="225.097656"/>
      <use xlink:href="#ArialMT-35" x="252.880859"/>
      <use xlink:href="#ArialMT-65" x="308.496094"/>
      <use xlink:href="#ArialMT-2d" x="364.111328"/>
      <use xlink:href="#ArialMT-33" x="397.412109"/>
     </g>
    </g>
    <g id="line2d_29">
     <path d="M 234 70.003125 
L 244 70.003125 
L 254 70.003125 
" style="fill: none; stroke: #ff7c00; stroke-width: 1.5; stroke-linecap: round"/>
    </g>
    <g id="text_22">
     <!-- lr = 1e-3 -->
     <g style="fill: #262626" transform="translate(262 73.503125)scale(0.1 -0.1)">
      <use xlink:href="#ArialMT-6c"/>
      <use xlink:href="#ArialMT-72" x="22.216797"/>
      <use xlink:href="#ArialMT-20" x="55.517578"/>
      <use xlink:href="#ArialMT-3d" x="83.300781"/>
      <use xlink:href="#ArialMT-20" x="141.699219"/>
      <use xlink:href="#ArialMT-31" x="169.482422"/>
      <use xlink:href="#ArialMT-65" x="225.097656"/>
      <use xlink:href="#ArialMT-2d" x="280.712891"/>
      <use xlink:href="#ArialMT-33" x="314.013672"/>
     </g>
    </g>
    <g id="line2d_30">
     <path d="M 234 84.148438 
L 244 84.148438 
L 254 84.148438 
" style="fill: none; stroke: #1ac938; stroke-width: 1.5; stroke-linecap: round"/>
    </g>
    <g id="text_23">
     <!-- lr = 1.5e-3 -->
     <g style="fill: #262626" transform="translate(262 87.648438)scale(0.1 -0.1)">
      <use xlink:href="#ArialMT-6c"/>
      <use xlink:href="#ArialMT-72" x="22.216797"/>
      <use xlink:href="#ArialMT-20" x="55.517578"/>
      <use xlink:href="#ArialMT-3d" x="83.300781"/>
      <use xlink:href="#ArialMT-20" x="141.699219"/>
      <use xlink:href="#ArialMT-31" x="169.482422"/>
      <use xlink:href="#ArialMT-2e" x="225.097656"/>
      <use xlink:href="#ArialMT-35" x="252.880859"/>
      <use xlink:href="#ArialMT-65" x="308.496094"/>
      <use xlink:href="#ArialMT-2d" x="364.111328"/>
      <use xlink:href="#ArialMT-33" x="397.412109"/>
     </g>
    </g>
    <g id="line2d_31">
     <path d="M 234 98.29375 
L 244 98.29375 
L 254 98.29375 
" style="fill: none; stroke: #e8000b; stroke-width: 1.5; stroke-linecap: round"/>
    </g>
    <g id="text_24">
     <!-- lr = 2e-3 -->
     <g style="fill: #262626" transform="translate(262 101.79375)scale(0.1 -0.1)">
      <use xlink:href="#ArialMT-6c"/>
      <use xlink:href="#ArialMT-72" x="22.216797"/>
      <use xlink:href="#ArialMT-20" x="55.517578"/>
      <use xlink:href="#ArialMT-3d" x="83.300781"/>
      <use xlink:href="#ArialMT-20" x="141.699219"/>
      <use xlink:href="#ArialMT-32" x="169.482422"/>
      <use xlink:href="#ArialMT-65" x="225.097656"/>
      <use xlink:href="#ArialMT-2d" x="280.712891"/>
      <use xlink:href="#ArialMT-33" x="314.013672"/>
     </g>
    </g>
    <g id="line2d_32">
     <path d="M 234 112.439062 
L 244 112.439062 
L 254 112.439062 
" style="fill: none; stroke: #8b2be2; stroke-width: 1.5; stroke-linecap: round"/>
    </g>
    <g id="text_25">
     <!-- lr = 3e-3 -->
     <g style="fill: #262626" transform="translate(262 115.939062)scale(0.1 -0.1)">
      <use xlink:href="#ArialMT-6c"/>
      <use xlink:href="#ArialMT-72" x="22.216797"/>
      <use xlink:href="#ArialMT-20" x="55.517578"/>
      <use xlink:href="#ArialMT-3d" x="83.300781"/>
      <use xlink:href="#ArialMT-20" x="141.699219"/>
      <use xlink:href="#ArialMT-33" x="169.482422"/>
      <use xlink:href="#ArialMT-65" x="225.097656"/>
      <use xlink:href="#ArialMT-2d" x="280.712891"/>
      <use xlink:href="#ArialMT-33" x="314.013672"/>
     </g>
    </g>
   </g>
  </g>
 </g>
 <defs>
  <clipPath id="pc1c9e77984">
   <rect x="225" y="43.2" width="1395" height="277.2"/>
  </clipPath>
 </defs>
</svg>
